/* XPM */
static char *_44149eac30c4efae9bb7642bfda6ceewGsFfDBsmMyZ3wRJ[] = {
/* columns rows colors chars-per-pixel */
"32 32 243 2 ",
"   c #4CB551",
".  c #51C658",
"X  c #71E178",
"o  c #53B857",
"O  c #4BAE4F",
"+  c #4CAF50",
"@  c #4CB251",
"#  c #53C65A",
"$  c #5DD465",
"%  c #76E97D",
"&  c #5AC25F",
"*  c #40B547",
"=  c #26992D",
"-  c #4AB14F",
";  c #4DB051",
":  c #52B756",
">  c #4CB050",
",  c #4BAF4F",
"<  c #4CB451",
"1  c #4BC052",
"2  c #56CD5E",
"3  c #6DDE74",
"4  c #52B857",
"5  c #1C8F23",
"6  c #3BA340",
"7  c #4AAD4E",
"8  c #49AD4D",
"9  c #4AB14E",
"0  c #6AD770",
"q  c #44A948",
"w  c #1A8D21",
"e  c #178F1F",
"r  c #50C558",
"t  c #4FB553",
"y  c #42A746",
"u  c #43A847",
"i  c #25932B",
"p  c #4EB352",
"a  c #51B656",
"s  c #39A13E",
"d  c #198C20",
"f  c #4BB150",
"g  c #49AD4E",
"h  c #54C65A",
"j  c #5BD062",
"k  c #6FE177",
"l  c #58BF5D",
"z  c #6EDD75",
"x  c #4BAD4F",
"c  c #4BAE4E",
"v  c #3CA340",
"b  c #239429",
"n  c #42A847",
"m  c #4BB14F",
"M  c #4ABF51",
"N  c #4CC555",
"B  c #5FD667",
"V  c #6FE176",
"C  c #5AC35F",
"Z  c #70E277",
"A  c #5FD467",
"S  c #4DB352",
"D  c #43A848",
"F  c #6EDC74",
"G  c #51B756",
"H  c #168D1D",
"J  c #4DC555",
"K  c #5CD364",
"L  c #55CB5D",
"P  c #53CA5B",
"I  c #54C95B",
"U  c #4FB954",
"Y  c #59CB60",
"T  c #6DDB73",
"R  c #4EB452",
"E  c #60D467",
"W  c #53BA58",
"Q  c #6DDC73",
"!  c #3BA540",
"~  c #1B9022",
"^  c #42BA4A",
"/  c #56CE5E",
"(  c #4BC353",
")  c #1F9827",
"_  c #54CA5C",
"`  c #4EC355",
"'  c #58C25D",
"]  c #4AB04F",
"[  c #4CC154",
"{  c #58D060",
"}  c #4BBE52",
"|  c #51B956",
" . c #70E177",
".. c #4CB150",
"X. c #52C358",
"o. c #45BC4D",
"O. c #259D2D",
"+. c #45BD4D",
"@. c #48C050",
"#. c #49C151",
"$. c #2CA334",
"%. c #66DA6E",
"&. c #58C85F",
"*. c #42B749",
"=. c #44AC49",
"-. c #52C659",
";. c #4CC454",
":. c #289D30",
">. c #4BC152",
",. c #42BB4A",
"<. c #269E2E",
"1. c #37B03F",
"2. c #148C1C",
"3. c #35AD3D",
"4. c #1C9424",
"5. c #41BA49",
"6. c #50C557",
"7. c #4DB552",
"8. c #43A948",
"9. c #49AF4D",
"0. c #39A23E",
"q. c #259B2D",
"w. c #51C959",
"e. c #63D56B",
"r. c #50B555",
"t. c #26982D",
"y. c #49BF50",
"u. c #3AB142",
"i. c #118819",
"p. c #0B8012",
"a. c #118619",
"s. c #168B1D",
"d. c #41B749",
"f. c #4DB252",
"g. c #57C75E",
"h. c #239329",
"j. c #4DC254",
"k. c #2B9E32",
"l. c #44AA49",
"z. c #43AB48",
"x. c #128519",
"c. c #40A645",
"v. c #49AF4E",
"b. c #44AC4A",
"n. c #4AB34F",
"m. c #4ABE51",
"M. c #52C559",
"N. c #54BE5A",
"B. c #6EE075",
"V. c #58CD5F",
"C. c #53BE59",
"Z. c #4DB351",
"A. c #4BB04F",
"S. c #41A645",
"D. c #4AAE4E",
"F. c #53C45A",
"G. c #279E2F",
"H. c #44BC4C",
"J. c #2DA435",
"K. c #52B757",
"L. c #4DB151",
"P. c #4AC052",
"I. c #40B948",
"U. c #1D9525",
"Y. c #1A9222",
"T. c #3AB141",
"R. c #56CA5D",
"E. c #4FB754",
"W. c #43A947",
"Q. c #40B647",
"!. c #0D8414",
"~. c #087F0F",
"^. c #45AC4A",
"/. c #42A946",
"(. c #138519",
"). c #108317",
"_. c #49AC4D",
"`. c #42A846",
"'. c #1B8C21",
"]. c #48AF4D",
"[. c #53B958",
"{. c #54B958",
"}. c #46AE4B",
"|. c #1A8F21",
" X c #64D66B",
".X c #52BA57",
"XX c #48AF4C",
"oX c #68D96F",
"OX c #72E379",
"+X c #58CD60",
"@X c #49BF51",
"#X c #47B34C",
"$X c #58CB5F",
"%X c #4DC154",
"&X c #25952B",
"*X c #1D8E23",
"=X c #24992C",
"-X c #4EBA54",
";X c #55C95D",
":X c #54C85B",
">X c #51C257",
",X c #4ABD51",
"<X c #4DB251",
"1X c #6CDB72",
"2X c #42AA47",
"3X c #48BB4F",
"4X c #51C559",
"5X c #50BC56",
"6X c #54C75B",
"7X c #4EBB54",
"8X c #4CC153",
"9X c #54CA5B",
"0X c #24952B",
"qX c #4EB653",
"wX c #53C65B",
"eX c #52C359",
"rX c #50BC55",
"tX c #55CD5D",
"yX c #24972B",
"uX c #3DAA43",
"iX c #52C65A",
"pX c #43BB4B",
"aX c #1B8E22",
"sX c #74E27A",
"dX c #79E980",
"fX c #54BC59",
"gX c #46B04B",
"hX c #49C251",
"jX c #54C65B",
"kX c #1C9123",
"lX c #118519",
"zX c #3AA13E",
"xX c #5AC05E",
"cX c #75E67C",
"vX c #5ACC61",
"bX c #4EB552",
"nX c #158C1C",
"mX c #13891B",
"MX c #158B1D",
"NX c #53C35A",
"BX c #38A03D",
"VX c #4BAF50",
"CX c white",
/* pixels */
"  . X o O O O O + + + + + + + + + + + + + + + + + O @ # $ % & + ",
"* = - ; O ; : > O + + + + + + + + + + + + + + + + O , < 1 2 3 4 ",
"5 6 7 O 8 9 0 : O + O O O O O + O O O + + + + + + + + q w e r t ",
"y 7 + + u i 9 ; O O , @ p : + O + a > O + + + + + + + 7 s d * f ",
"+ O O + g u 8 O + O @ h j k l ; l z : x O O + + + + O + c v b n ",
"> a + O + + O O O O m M N B V C Z A S S : > O + + + + O + 7 D 8 ",
"4 F l + O + G t : ; q w H J K L P I U Y T a O + + + + + O + + + ",
"R E Z W + l V E Q a 7 ! ~ ^ / ( ) ( _ ` ' t , O + + + + + + + + ",
"] [ { } |  .B ` | + ..X.o.O.+.@.e #.+.$.%.&...O + O O O O + + + ",
"n = *.= =.-.;.:.- ; O < >.,.<.1.2.3.4.5.6.7.O O O + : p , O + + ",
"8 8.9.n 0.q.( w.e.r.O 8.t.y.u.i.p.a.s.d.t.8.f.@ + l  .g.> O + + ",
"+ + + 8.h.*.I j.k.l.+ g q z.5 x.s c.n v.b.n.m.M.N.B.V.C.p , O + ",
"+ + + g 8.f Z.A.u 8 + + + 8 S.y D.+ + ..F.[ G.H._ #.J.%.&...O + ",
"+ + O + + O O O + + O + O > K.L.O O O , < P.I.U.1.Y.T.R.E.O O + ",
"+ + + + + + + + + + + + O : 0 9 8 + + + W.= Q.!.~.p.5 ^.+ O + + ",
"+ + + + O + + + O + + + O ; 9 i u + + + g q /.(.).s y g O + + + ",
"+ + + O + 7 8.8 O + + + + O _.u g + + O + + 7 `.n D.+ + O + + + ",
"+ O O O 7 s '.].; + + O + O + + + O + + + O + + + + O + + + + + ",
"O ; [.{.}.w |. X.Xu 8 O + + O + + + + + + + + + + O O O + + + + ",
"_.XXoXOX+X@X#X$X%X&X=.f 8.8 O O + + + + + + + + O > a ; O O + + ",
"n *X=X-X;X/ :XU >X#XM.,Xt.b.<X, O + + + + + + O O W 1X- _.O O O ",
"8 2X3X4X5X6X# @ 7.6X6X7X8X9X6X@ O + + + + O O O @ # @.0X=.Z.@ @ ",
"O + qXwXeX7.@ O @ eXrX:XtX;.M m O + + + O > o K.R ,XyXuXiXL L L ",
"+ O O @ @ O O O O 7.6XtXpX2.aXq + + + + O a sXdXfXm gX# tX;.hXhX",
"+ + O O + G ; O O @ jX8XkXlXzX7 + + + + O + xXcXvXbX6XtXpXnXmXMX",
"+ + + O : 0 9 8 O , @ m `.`.D.+ O + + + + O + .XNXqXjX8XkXx.BXc.",
"+ + + O ; 9 i u + O O O + + + O + + + + + + O O ..VX@ m `.`.D.+ ",
"+ + + + O _.u g + + + + + + + + + O O O + + + O O O O O + + + O ",
"+ + + + O + + + O + + + + + + + O > : ; O O + + + + + + + + + + ",
"+ + + + + + + + + + + + + + + + O : 0 9 _.+ + + + + + + + + + + ",
"+ + + + + + + + + + + + + + + + O ; 9 i u + + + + + + + + + + + ",
"+ + + + + + + + + + + + + + + + + O _.`.8 + + + + + + + + + + + "
};
