/* XPM */
static char *_b7866721c2c4b0ec16e09cb81cd4fd00JK588kGUxBPfQiL[] = {
/* columns rows colors chars-per-pixel */
"32 32 183 2 ",
"   c None",
".  c #010000",
"X  c #0D0606",
"o  c #060509",
"O  c #150909",
"+  c #180A0B",
"@  c #040915",
"#  c #040A16",
"$  c #1A1819",
"%  c #200909",
"&  c #2A1915",
"*  c #361212",
"=  c #351A1A",
"-  c #2D2311",
";  c #312412",
":  c #081122",
">  c #0E1629",
",  c #051329",
"<  c #1B1927",
"1  c #0C1B37",
"2  c #0D1E3D",
"3  c #041736",
"4  c #1A1D34",
"5  c #181D38",
"6  c #0F203F",
"7  c #19213D",
"8  c #23233F",
"9  c #242136",
"0  c #3B2B3E",
"q  c #34283C",
"w  c #541B1B",
"e  c #451717",
"r  c #4C2626",
"t  c #4E2828",
"y  c #582C2C",
"u  c #4E3327",
"i  c #4D322A",
"p  c #5B312D",
"a  c #4D2B3F",
"s  c #542C3F",
"d  c #5D3734",
"f  c #662628",
"g  c #7A2828",
"h  c #652D31",
"j  c #643232",
"k  c #683434",
"l  c #743134",
"z  c #7C3E3F",
"x  c #79363B",
"c  c #663623",
"v  c #6E4236",
"b  c #6B503D",
"n  c #0E2040",
"m  c #112141",
"M  c #1C284A",
"N  c #1F2C51",
"B  c #2D354B",
"V  c #262E52",
"C  c #2F375F",
"Z  c #3A395F",
"A  c #2C3147",
"S  c #363F78",
"D  c #5B3442",
"F  c #573A58",
"G  c #753642",
"H  c #6A3A51",
"J  c #3C4159",
"K  c #39437B",
"L  c #374079",
"P  c #41455F",
"I  c #655A5C",
"U  c #7F6C54",
"Y  c #4A4D6C",
"T  c #645D64",
"R  c #59637C",
"E  c #73696E",
"W  c #8A2E2E",
"Q  c #823434",
"!  c #893538",
"~  c #943C3C",
"^  c #933131",
"/  c #A93E3E",
"(  c #BB3E3F",
")  c #C23F3E",
"_  c #8A432F",
"`  c #C3403F",
"'  c #843D47",
"]  c #A53D40",
"[  c #824241",
"{  c #8C4D48",
"}  c #8B4943",
"|  c #934F4A",
" . c #98544C",
".. c #9C5B53",
"X. c #A94149",
"o. c #B54040",
"O. c #BE4040",
"+. c #A15C51",
"@. c #BC5346",
"#. c #8E6D47",
"$. c #93754A",
"%. c #966859",
"&. c #987C53",
"*. c #A86454",
"=. c #AE735B",
"-. c #9D6D61",
";. c #9D7F6F",
":. c #857676",
">. c #B87762",
",. c #C04142",
"<. c #CE5947",
"1. c #EA585B",
"2. c #FA5958",
"3. c #C27B61",
"4. c #B48C58",
"5. c #9C857E",
"6. c #B98770",
"7. c #C79759",
"8. c #D6A45A",
"9. c #E0A256",
"0. c #FCBD5D",
"q. c #F3B55B",
"w. c #C9886A",
"e. c #D28469",
"r. c #DE8E6F",
"t. c #CD8D70",
"y. c #DF9071",
"u. c #DC9A78",
"i. c #D29B7B",
"p. c #E29271",
"a. c #E79A77",
"s. c #D9A960",
"d. c #EBA27C",
"f. c #E1A37D",
"g. c #3D4780",
"h. c #4D5589",
"j. c #585F92",
"k. c #50578A",
"l. c #5A6091",
"z. c #737A8F",
"x. c #6F759F",
"c. c #767F94",
"v. c #686F9B",
"b. c #7278A2",
"n. c #9D8395",
"m. c #AF8E9B",
"M. c #A48D85",
"N. c #8589AE",
"B. c #8184AB",
"V. c #9297B9",
"C. c #969ABB",
"Z. c #A0A1BF",
"A. c #CA969F",
"S. c #F49A9F",
"D. c #DBAF95",
"F. c #D0A990",
"G. c #E7A982",
"H. c #F2AB83",
"J. c #FABB8C",
"K. c #F3B588",
"L. c #E5AE93",
"P. c #FFA4A6",
"I. c #E8BEA2",
"U. c #F4BFA0",
"Y. c #FFC392",
"T. c #F6C9AC",
"R. c #FACBAC",
"E. c #F5C7A9",
"W. c #FFD1AD",
"Q. c #FFD2B2",
"!. c #EAC1A6",
"~. c #A9A8C5",
"^. c #B5B7CF",
"/. c #C8CADF",
"(. c #D9DAEA",
"). c #DFE0EF",
"_. c #DEE3F2",
"`. c #E0E1EF",
"'. c #E4E4F2",
"]. c #EFEBF6",
"[. c #F0EEF8",
"{. c #FFFBFF",
"}. c #F9F5FC",
/* pixels */
"                                    K                           ",
"                                  l.Z.b.                        ",
"                                h.x.{.B.K                       ",
"                    K K K K K L ~.}.{.B.L K                     ",
"                    N.~.~.C.V.V./.[.[.^.C.C.v.                  ",
"                  k.^.{.{.[.'.'.'.'.(.`.(.(.b.L                 ",
"              g.l.].{.{.{.{.{.{.{.}._.'./.h.                    ",
"              5 M z.A.P.P.m.c.c.A.P.S.n.R 7                     ",
"              . o 3 ' 1.2.G 5 8 X.2.1.D 3 .                     ",
"            . : 6 2 V F O.o.] ` ,.o.Z M 2 2 @ .                 ",
"            . : m 2 N C H H H H H F C M 2 6 @ .                 ",
"            & < 2 B Y Y Y Y Y Y Y Y Y J A 1 < &                 ",
"        z { K.b $ I.T.T.Q.T.T.T.R.R.T.R.F.. &.f.[               ",
"        z { J.%.p E.Q.!.E F.Q.W.M.:.R.Q.D.r t.G.[               ",
"          { G.>...U.R.D.n 5.W.R.T B R.R.L.| t.u.[               ",
"            [ =.p.r.H.G.n 5.Y.Y.I B J.d.y.r...[                 ",
"              ..*.r.a.a.%.i.Y.J.6.-.d.a.e.*.|                   ",
"              j x =.3.e.y.H.J.J.d.p.3.3.*.k                     ",
"              . . . t | r.y.p.p.p.e.} = . .                     ",
"            . w f > 9 0 u i i t u y A 4 < g *                   ",
"            ; _ <.4 1 1 o O % % X @ 2 1 q <.c ;                 ",
"        v } 0.0.8.X : 6 2 x ) ) s 1 n # ; q.0.9.[               ",
"        ! } 8.s.7.p l G 5 A a D 8 8 ! h v 8.s.4.A               ",
"          I $.$.#.j ~ / A m 3 2 8 a ] ! v $.&.U 7               ",
"            . . . . r } O.s 2 n ' ] [ & . . > m                 ",
"              . . . + = _ G D D ! ! & X . . :                   ",
"              . . + X X j j j j j t . O + .                     ",
"              . X z = . . . . . . . . y k .                     ",
"              . O / Q h W * . . w W y ~ ^ .                     ",
"                + W l h ^ e . . f ^ j g g .                     ",
"                  . . . .       . . . . .                       ",
"                                                                "
};
