/* XPM */
static char *_7f4a8c1cadd4e328e2f46b4389d8591MSlJ7SQqiVZdVcxd[] = {
/* columns rows colors chars-per-pixel */
"32 32 193 2 ",
"   c #1B151C",
".  c #291B14",
"X  c #251A1B",
"o  c #1A1927",
"O  c #1C1B2B",
"+  c #1D1E32",
"@  c #211F2D",
"#  c #281F28",
"$  c #1F2034",
"%  c #23212E",
"&  c #2F262A",
"*  c #342929",
"=  c #212235",
"-  c #292734",
";  c #2B2A36",
":  c #24253B",
">  c #27283D",
",  c #2A2A3D",
"<  c #322C36",
"1  c #3C2E33",
"2  c #36343E",
"3  c #5A2F1C",
"4  c #503A17",
"5  c #5D321F",
"6  c #482D29",
"7  c #5E3422",
"8  c #5F3924",
"9  c #55372C",
"0  c #5C362B",
"q  c #412B30",
"w  c #463638",
"e  c #4E373B",
"r  c #543936",
"t  c #583935",
"y  c #56393A",
"u  c #623623",
"i  c #683726",
"p  c #643926",
"a  c #6A3B27",
"s  c #623729",
"d  c #653C29",
"f  c #6A3D2B",
"g  c #703F2E",
"h  c #663E32",
"j  c #724A12",
"k  c #4F403E",
"l  c #524139",
"z  c #66422C",
"x  c #6D412E",
"c  c #674A2D",
"v  c #72432F",
"b  c #75492E",
"n  c #795B26",
"m  c #674437",
"M  c #6D4331",
"N  c #724532",
"B  c #784736",
"V  c #754A35",
"C  c #7A4B35",
"Z  c #754C3A",
"A  c #7A4C3A",
"S  c #745236",
"D  c #7C5434",
"F  c #7B5B35",
"G  c #7B5139",
"H  c #7C5C38",
"J  c #7F6331",
"K  c #262B43",
"L  c #2B2C43",
"P  c #2C2F4A",
"I  c #342E45",
"U  c #2F3049",
"Y  c #333344",
"T  c #3E3641",
"R  c #31324A",
"E  c #2F3E5D",
"W  c #343551",
"Q  c #3B3B54",
"!  c #373C58",
"~  c #483A46",
"^  c #3F405C",
"/  c #37526E",
"(  c #44424B",
")  c #584748",
"_  c #494755",
"`  c #4C4D5B",
"'  c #524A51",
"]  c #684C49",
"[  c #724F43",
"{  c #7A5443",
"}  c #7B5A4D",
"|  c #6C5651",
" . c #7C6158",
".. c #444561",
"X. c #4B4C65",
"o. c #4E4F6A",
"O. c #43536B",
"+. c #51526C",
"@. c #585968",
"#. c #4A5A75",
"$. c #5A5A74",
"%. c #5C5D79",
"&. c #64646A",
"*. c #786767",
"=. c #747477",
"-. c #8D5105",
";. c #995603",
":. c #9E5C0A",
">. c #89551C",
",. c #945917",
"<. c #995B12",
"1. c #A35D05",
"2. c #AA6305",
"3. c #BD6B01",
"4. c #BB7019",
"5. c #8A5727",
"6. c #865528",
"7. c #905926",
"8. c #845533",
"9. c #885B37",
"0. c #855A3B",
"q. c #915F38",
"w. c #84632A",
"e. c #8A692C",
"r. c #926E26",
"t. c #9C632E",
"y. c #926E2C",
"u. c #957028",
"i. c #9C742A",
"p. c #896234",
"a. c #8A6739",
"s. c #9B6A37",
"d. c #977136",
"f. c #9C7535",
"g. c #97753C",
"h. c #A6692B",
"j. c #A47B2C",
"k. c #A67B37",
"l. c #BA7B33",
"z. c #C46E01",
"x. c #CA7704",
"c. c #D57B07",
"v. c #DA7E03",
"b. c #805340",
"n. c #866047",
"m. c #8E6542",
"M. c #816F69",
"N. c #837673",
"B. c #AC812C",
"V. c #B28328",
"C. c #AC8332",
"Z. c #AE883D",
"A. c #DA8315",
"S. c #E78807",
"D. c #F88E01",
"F. c #EE9E0C",
"G. c #F69603",
"H. c #F79906",
"J. c #FB9B06",
"K. c #E18D15",
"L. c #EA981C",
"P. c #FDA204",
"I. c #FBA80C",
"U. c #CC8626",
"Y. c #D18B24",
"T. c #DA9022",
"R. c #C38633",
"E. c #516B8C",
"W. c #4E769B",
"Q. c #696A85",
"!. c #73748D",
"~. c #757692",
"^. c #557BA3",
"/. c #7D8A9F",
"(. c #6F92B9",
"). c #7AAAD5",
"_. c #868687",
"`. c #8A898B",
"'. c #858699",
"]. c #909090",
"[. c #A19E9E",
"{. c #9BA7AE",
"}. c #B2A6A4",
"|. c #AEAEB5",
" X c #B4B2B2",
".X c #BBBBBB",
"XX c #97B5C3",
"oX c #9AD0F1",
"OX c #BBE8F9",
"+X c #C9D0D5",
"@X c #D7D5D5",
"#X c #C4DBE0",
"$X c #C4E6EB",
/* pixels */
"C C C C b a u u s g g h s 0 d h B g g N f z x u 8 d z N A A A B ",
"C C C C C f i 5 7 7 y | 0 7 h h g g g g z M N z 5 z M V B B B B ",
"b b b B C C v a h s N.@X*.s s d g N N g d M N d 8 x B V N N B B ",
"f v g v v V N x [ B n.@X X{ h 0 h g M g z N N 7 u c Z V v g N N ",
"x N M d u u d d b.B b.}.+X/.E.O._ h f f f N N p u d M M N N N f ",
"x N M p 5 p x N B *.{.#XOX).W./ / ) f f d g f 7 5 u p f N B B N ",
"f M M d p M Z G | (.oX$XXXE.E K K , q t 0 u u 7 p p u u f N B N ",
"z m z s 8 M Z Z ] ^.^.#.! P L > = = = + < 9 d f z z p 7 u a x x ",
"m z d d p d f M Z Q P U W P P L > Y ` , O % *.M.0.B x f p u p x ",
"u 5 7 d d s d m ~ I W ! ! ! W R L @.+X`., O ' [.} B Z B p 3 5 d ",
"5 7 p z f 7 u y P W ~ O.o.o...! L ` @X X&.O % `.=.N B B z u u d ",
"i z N N f s 7 I W ! o.Q.Q.Q.+.^ R Y |..X_.; o ( `.[ v x N x d u ",
"f G m.0.N x y L W ..%.~.'.~.$.~ R , @..X].2 o O &. .f i d z z p ",
"D k.k.Z.a.G e P W ..%.~.'.!.$.^ R , > &.=.; o O ; ] f u 5 d x V ",
"d.j.j.B.Z.H w L W ^ +.Q.Q.Q.X.! U > : + = O o @ @ q s p i N V S ",
"f.i.p.y.C.J Y L P ! ..o.o...~ W L : $ O O O @ @ @ 1 s f q.k.s.C ",
"C.r.F w.B.w.< > L R Q Q Q Q R L : $ $ O O O % & & 1 z s.L.J.c.,.",
"g.C.y.r.B.B.l : K L L P R L , : : $ O O O $ ; 1 1 w b Y.I.I.x.,.",
"p.j.B.B.V.B.c $ : > : , , , : : $ + O O % - Y w T e b K.P.F.2.7.",
"M a.i.j.B.u.n % = : : : : : + + O O O + % 2 ( ) k c V A.J.v.:.8.",
"f z d.j.y.J n * = = = = = + + + O O O @ - Y _ ' c -.4.S.D.z.,.a ",
"u p p.j.i.i.r.4 @ + + + + O O O o o O % ; Y _ ' V ,.S.D.S.1.5.i ",
"5 d d.i.e.i.i.j 9 # + O O o o o o o O $ ; Y Q ] d m s.v.z.<.D v ",
"u f f.u.a.m.i.n V 6 # # X X     o o O $ ; T m m x N A t.<.5.x x ",
"i x d.f.w.a.i.e.{ z d >.j .     O O % ; e m N f V B N A b d p N ",
"v V p.C.B.j.i.m.n.B 8.A.1.c q * q q r h V B B B N x v V M d p p ",
"B C G d.j.i.y.J q.l.Y.x.-.b.B f z f a f M N B A B N v N N M d 8 ",
"v V N N F H S S U.J.S.x.c.4.9.B p p s d f M N g V N x f c N x d ",
"f x v x x x f x T.P.H.J.P.v.;.b d d 5 p g g N g f x v i a x M z ",
"p x x v x f f p R.P.P.I.I.c.;.6.Z d u 5 i a g g i v B v M M x f ",
"u f v f f f i p 6.A.G.H.S.3.-.>.V c d u 5 u i g a g N N z z d d ",
"5 u f f f f f p a 0.t.h.h.7.6.8.x N N z i 5 i a f i i u u 5 5 8 "
};
