/* XPM */
static char *_d4880b4d3014065a415f3b3485f6db8nzek2iSOX3leuzhU[] = {
/* columns rows colors chars-per-pixel */
"32 32 188 2 ",
"   c #1C151B",
".  c #2A1B17",
"X  c #352316",
"o  c #1A1721",
"O  c #1A1927",
"+  c #1C1C2B",
"@  c #1D1E31",
"#  c #1F2034",
"$  c #22212D",
"%  c #34282C",
"&  c #222234",
"*  c #292432",
"=  c #2B2935",
"-  c #24253B",
";  c #27283D",
":  c #2A2A3C",
">  c #362B33",
",  c #3E3331",
"<  c #3C363E",
"1  c #5A2F1C",
"2  c #5D321F",
"3  c #5A2F21",
"4  c #463128",
"5  c #5E3422",
"6  c #5F3924",
"7  c #5A372C",
"8  c #402F31",
"9  c #42353B",
"0  c #493638",
"q  c #523633",
"w  c #543B35",
"e  c #5C3D37",
"r  c #5B3B3B",
"t  c #623624",
"y  c #683727",
"u  c #643926",
"i  c #6B3C27",
"p  c #613729",
"a  c #653B29",
"s  c #6A3D2B",
"d  c #633C33",
"f  c #6A3F32",
"g  c #5E4418",
"h  c #744F1C",
"j  c #5D482E",
"k  c #66402C",
"l  c #6D412E",
"z  c #794C26",
"x  c #71432E",
"c  c #734A2E",
"v  c #794829",
"b  c #7C592A",
"n  c #6D4332",
"m  c #68473B",
"M  c #724532",
"N  c #784736",
"B  c #764935",
"V  c #7A4B34",
"C  c #754B3A",
"Z  c #7A4D3A",
"A  c #775235",
"S  c #7C5334",
"D  c #7E513C",
"F  c #7B5B38",
"G  c #262741",
"H  c #2B2B43",
"J  c #2D2F4A",
"K  c #332E46",
"L  c #2F3044",
"P  c #2E324C",
"I  c #313145",
"U  c #3B3743",
"Y  c #3B3841",
"T  c #32334C",
"R  c #393A4B",
"E  c #2A3552",
"W  c #353651",
"Q  c #3A3B57",
"!  c #3B3C55",
"~  c #473743",
"^  c #503F46",
"/  c #3F405C",
"(  c #3D5167",
")  c #365271",
"_  c #4C454B",
"`  c #53464A",
"'  c #484855",
"]  c #6C4C43",
"[  c #6E4D49",
"{  c #7C5243",
"}  c #735F58",
"|  c #75655F",
" . c #434460",
".. c #444964",
"X. c #4B4C66",
"o. c #4E4F6A",
"O. c #51526C",
"+. c #5E5D6D",
"@. c #5A5A74",
"#. c #5B5C78",
"$. c #616271",
"%. c #6E6E74",
"&. c #747179",
"*. c #787578",
"=. c #8A510B",
"-. c #945404",
";. c #9B5805",
":. c #9B5B0C",
">. c #89531A",
",. c #955815",
"<. c #A55F05",
"1. c #AB6204",
"2. c #B76A06",
"3. c #A7671A",
"4. c #875621",
"5. c #8C5727",
"6. c #83532D",
"7. c #925A29",
"8. c #855936",
"9. c #835C3A",
"0. c #836326",
"q. c #84642B",
"w. c #8B6A2D",
"e. c #97712A",
"r. c #9C7529",
"t. c #826133",
"y. c #8B6335",
"u. c #8B6739",
"i. c #916B30",
"p. c #99673C",
"a. c #916D3B",
"s. c #9B7631",
"d. c #9E7833",
"f. c #A16528",
"g. c #A0772B",
"h. c #A47B2B",
"j. c #A97E2B",
"k. c #BA7A27",
"l. c #A66E35",
"z. c #AD7031",
"x. c #A57D32",
"c. c #CC7403",
"v. c #C9750D",
"b. c #D67C04",
"n. c #D67E09",
"m. c #805340",
"M. c #865C43",
"N. c #82665B",
"B. c #827C7E",
"V. c #AB802C",
"C. c #B18229",
"Z. c #AC8536",
"A. c #D9850A",
"S. c #DC8618",
"D. c #EA8A08",
"F. c #F68D03",
"G. c #F69307",
"H. c #FC9E03",
"J. c #F69A0A",
"K. c #E28D12",
"L. c #EB9813",
"P. c #FBA308",
"I. c #FDA809",
"U. c #C8862D",
"Y. c #D28627",
"T. c #656681",
"R. c #6A6B86",
"E. c #62778F",
"W. c #747481",
"Q. c #73748F",
"!. c #767792",
"~. c #5B84AE",
"^. c #6996BF",
"/. c #79A7D0",
"(. c #908C8C",
"). c #81829D",
"_. c #AAA6A5",
"`. c #B0A4A0",
"'. c #B6B1AF",
"]. c #B5B5B5",
"[. c #BBBBBE",
"{. c #B9CACF",
"}. c #AFD3DF",
"|. c #9DD0EF",
" X c #BAE2F4",
".X c #C7CCCF",
"XX c #D9D7D7",
"oX c #D2F4F8",
/* pixels */
"V V 6.N M i t t p a n f a 7 d f N f f v k k k 2 6 k l M Z D C M ",
"V V V V N x y 2 5 5 5 3 3 3 d f f s f f m 7 V k 2 k M M B B N Z ",
"c c N V V V x i s a p 5 p p p a f f 6.N.].| n a 2 l A B M M M N ",
"s x s x M M M l C C N N N n a 3 i s ] `.XXN.M 5 k k B B x x f M ",
"l M n a t u u a Z Z Z { { Z k _ O.+.W..X`.C M u t a l M M M M f ",
"l M n u 2 u l n Z N N C Z V [ ( ) E./. X{.B.] 5 2 5 a s M N N x ",
"k n n a p k Z D M M M M n r _ E E ) E.}.oX|.!.^ u u t t i M N x ",
"k n k u p n C C M M n 0 * # # # G G E ..E.^.~.[ l k u t t i f x ",
"n k a a p a k n { N.> @ # / : ; H J J J P E  .{ D B s s a t a l ",
"6 5 6 a a 5 a C (.*.+ & %.].$.; J W Q Q Q J J r C B Z M u 1 2 a ",
"5 5 6 k s t 2 } (.Y + ' _.XX$.L W ^ ..o...Q W K d f V V l t t u ",
"y k M M k t u B.%.+ $ &.'.[./ I / o.T.T.T.X.Q J ~ M x l n k a u ",
"s V 8.N n s ] *.: + = (.].&.H P  .@.Q.!.Q.@. .P T m l M A A l y ",
"i M V M M V m U + + $ %.%.L : P / @.!.).!.#. .W H r c a.Z.x.a.C ",
"x i x M V N e $ + O O & # # : L ! o.T.R.T.O.Q W H 0 F Z.j.r.Z.u.",
"6.8.f.l.9.f q * $ $ + + @ # - : T ! X.O.o. .Q T G 9 w.Z.i.w.r.u.",
"S 2.G.J.k.s q = % $ $ + + @ @ ; H I ! ! Q Q I H G 8 e.j.9.F r.a.",
"6.1.J.I.L.6.w > , = & + + @ @ & ; : K I I H H G ; j C.h.i.s.V.y.",
"v :.A.I.J.7.d U 0 < = $ + @ @ @ # - ; ; ; G ; - - b V.C.j.j.x.9.",
"x ,.2.G.L.7.l w ` _ I & + + + + @ # & - - & - & = 0.r.h.h.s.8.M ",
"a 5.<.D.F.n.:.h ` ' R = $ + + + @ @ @ # # # # # 4 b 0.e.h.t.u t ",
"t c :.c.F.D.3.v ` ' R = $ + + O O + + + @ @ # > g r.r.r.x.S t t ",
"t a >.<.b.z.B y d ~ I ; * + O O O O O + + + % m h r.i.w.g.a.f f ",
"t u v >.7.9.B u f 7 9 = & $ O O     . . % % n F 0.r.S q.r.p.s x ",
"t s n M M M Z B B s 5 q > * + O o   X -.f.D M F e.r.y.s.V.F a M ",
"M M M M M M B M D M a t p 7 q 0 q w c ;.S.M.Z M.a.r.h.V.d.c 6 a ",
"V Z M M s M M M x x y t s Z V s s k 6.,.c.K.Y.p.F q.r.s.t.M a 6 ",
"M M M x s s x l u a y s M m.Z M s >.v.D.b.D.H.U.A A A c n M l a ",
"i x M s l s s s u u i Z Z Z M c z ;.b.I.P.H.H.U.s x l a a n M k ",
"y s M M l s i u t u x D D n n Z 4.-.c.P.P.H.J.l.y x B M l n l k ",
"t s n s s s i u t a M B B n B Z 4.=.1.A.D.K.k.v s f x x l k k u ",
"2 y s s s a i y y M B M n B B M l M V 6.6.i i i s y u u t 2 2 2 "
};
