/* XPM */
static char *result[] = {
/* columns rows colors chars-per-pixel */
"32 32 32 1 ",
"  c black",
". c #552A17",
"X c #5B2F1D",
"o c #5D321E",
"O c #60311F",
"+ c #582E20",
"@ c #5E3421",
"# c #623623",
"$ c #683726",
"% c #653926",
"& c #6A3A26",
"* c #63372A",
"= c #663B2A",
"- c #6A3D2B",
"; c #703F2E",
": c #663F30",
"> c #6B3F32",
", c #66402C",
"< c #6D412E",
"1 c #71422E",
"2 c #6E4331",
"3 c #6F4936",
"4 c #724532",
"5 c #784736",
"6 c #754936",
"7 c #794A35",
"8 c #764B3A",
"9 c #7A4C3A",
"0 c #7D513E",
"q c #7F5141",
"w c #804F3E",
"e c #815441",
/* pixels */
"                                ",
" 7777<%o@#@@+@*>4-;2,26,@,23679 ",
" 167764&:**#@***;44-%43,#,86415 ",
" 111464<853383*+--5<,42@%<684<4 ",
" 22=##%,999qq9-OO#>--44%@,24444 ",
" 32=o%<47689995;##&-=<,@o@%=455 ",
" 33@@2905445559w;#&-%%%@%%#%-44 ",
" 22@=2361444;-15;O#&%@==<,%o#-< ",
" ,==%,,2641<-;-&%6%.--&w06<-%#% ",
" @@=,%%<<<&-;;-$%62=64$-6765%Xo ",
" o@<,OO,--&-4;*O%<4896-#-468<#@ ",
" =36<OOo&=&>;;*O,%<6565&41<12<, ",
" 77711,O@*===*::,o%<-49;95<%=,, ",
" 677174,@=>=*@**2@@=-45-55-#@%< ",
" -177777=>2>=*::3%@=;14-$&%%%<9 ",
" &O771<0==2233q89,@#-4;4&$#%409 ",
" 161-%%-#%<699996<#X#,<%o%<7776 ",
" 4141-&%#=46862<165-%%,,o@,4<<1 ",
" 4144<&%154-%-1<;57<%o@@o,,2--1 ",
" <11-,-&444%#-2174-#%,@o,2<,--- ",
" --#O%<,#<5444<&9;##-42,22,%### ",
" %#oO%-&%%<144<<-$##-490<<=%&## ",
" #%O-41&<#o%--<4&##-2290,<<<1<1 ",
" #%<9e6#-oo-<%#&-#%19932<4664-- ",
" -<<46666-###o%4-=<2641-92462#% ",
" 654146696&O%%%%22<245796<464=% ",
" 961<14441&#-76-,,=-245961<442= ",
" 54,-<<<%%%-6w04%#%%-44154<-<42 ",
" <1<<<-&%%<60642-###-41;-4<&=<3 ",
" -41<-&%#%1004<62,#o$-;;$-54<2< ",
" -<<<-=##-4644663<%###&--;44<,, ",
"                                "
};
