/* XPM */
static char *result[] = {
/* columns rows colors chars-per-pixel */
"32 32 179 2 ",
"   c black",
".  c #5A2F1C",
"X  c #5D321F",
"o  c #5E3522",
"O  c #623623",
"+  c #643926",
"@  c #6D3E27",
"#  c #603729",
"$  c #653C29",
"%  c #6B3D2B",
"&  c #6D3E30",
"*  c #66402C",
"=  c #6D412E",
"-  c #71432F",
";  c #6D4431",
":  c #6F4E3F",
">  c #724532",
",  c #754935",
"<  c #7A4B35",
"1  c #724738",
"2  c #754C3A",
"3  c #7A4C38",
"4  c #7D513D",
"5  c #734E41",
"6  c #7B4F42",
"7  c #745244",
"8  c #7B5346",
"9  c #7A5749",
"0  c #7F5849",
"q  c #75584D",
"w  c #7E5E51",
"e  c #755A52",
"r  c #7F6258",
"t  c #905859",
"y  c #83655A",
"u  c #8D615D",
"i  c #866659",
"p  c #AB5365",
"a  c #AA5C6C",
"s  c #A15764",
"d  c #B15769",
"f  c #B3596B",
"g  c #B95B6E",
"h  c #BE5E71",
"j  c #8A6E63",
"k  c #896763",
"l  c #966163",
"z  c #897167",
"x  c #8F776F",
"c  c #8C7B75",
"v  c #947B75",
"b  c #AD616C",
"n  c #A76772",
"m  c #AC6372",
"M  c #AA6976",
"N  c #A66E7A",
"B  c #BE6276",
"V  c #AC707D",
"C  c #B0717E",
"Z  c #C05F73",
"A  c #C46275",
"S  c #CA657A",
"D  c #CC6A7E",
"F  c #C3677A",
"G  c #D5697F",
"H  c #D2677E",
"J  c #98827A",
"K  c #A87981",
"L  c #AD7F89",
"P  c #B77181",
"I  c #BC7F8D",
"U  c #D46C81",
"Y  c #DB6E85",
"T  c #CE7487",
"R  c #C47F8D",
"E  c #DD7187",
"W  c #D6788B",
"Q  c #E2758B",
"!  c #988A86",
"~  c gray62",
"^  c #9D9391",
"/  c #AB858C",
"(  c #A28E88",
")  c #A9888E",
"_  c #A08C85",
"`  c #B0818B",
"'  c #A5938D",
"]  c #A28F91",
"[  c #AE8A92",
"{  c #BC8994",
"}  c #AA9799",
"|  c #A39C9C",
" . c #AA9D9D",
".. c #A49490",
"X. c #B0999D",
"o. c #9FA09F",
"O. c #AAA29F",
"+. c #B4A59F",
"@. c #AE9EA2",
"#. c #B999A0",
"$. c #A5A4A4",
"%. c #AAA3A4",
"&. c #ADA7A8",
"*. c #ACACAC",
"=. c #B3A8A5",
"-. c #B1ABAB",
";. c #B5A7A6",
":. c #BBB1AD",
">. c #B3B3B3",
",. c #BBB5B3",
"<. c #BCBBBB",
"1. c #C68D98",
"2. c #CA8A97",
"3. c #D18A9A",
"4. c #E3869B",
"5. c #F7879F",
"6. c #FB879F",
"7. c #F7889F",
"8. c #D697A3",
"9. c #DA96A4",
"0. c #F887A0",
"q. c #FC8CA4",
"w. c #F68CA1",
"e. c #FE94AA",
"r. c #FE99AE",
"t. c #F992A8",
"y. c #FE9DB2",
"u. c #CEA2AA",
"i. c #C8ADB1",
"p. c #D0A9B1",
"a. c #C2BBBD",
"s. c #E6A5B2",
"d. c #FDA2B5",
"f. c #FEA6B9",
"g. c #F7AEBC",
"h. c #FDAABD",
"j. c #F3A5B5",
"k. c #E2B1BA",
"l. c #F5B1BF",
"z. c #C6C0BF",
"x. c #FEADC0",
"c. c #E9B8C2",
"v. c #FAB0C1",
"b. c #F8B8C5",
"n. c #FCBBCA",
"m. c #F4BAC6",
"M. c #C4C4C4",
"N. c #CDC4C4",
"B. c #CCCCCC",
"V. c #D6CCCD",
"C. c #D3D0CF",
"Z. c #D4D4D4",
"A. c #DCDCDC",
"S. c #D9D1D2",
"D. c #F7C1CC",
"F. c #FBC3CE",
"G. c #FBC7D3",
"H. c #F2CCD3",
"J. c #FACBD6",
"K. c #FACDD8",
"L. c #E0D5D7",
"P. c #E9D5D8",
"I. c #FAD3DC",
"U. c #FCDAE0",
"Y. c #E3E3E3",
"T. c #EAE5E6",
"R. c #EEE7E8",
"E. c #EBEBEB",
"W. c #F0E6E7",
"Q. c #FAE2E6",
"!. c #F0EFEF",
"~. c #FAEAED",
"^. c #FCE4EB",
"/. c #F0F0EF",
"(. c #F3F3F3",
"). c #FAF5F5",
"_. c #FAF7F8",
"`. c #F7F8F8",
"'. c #FBFAFB",
/* pixels */
"                                                                ",
"  < < < , - + X o o # e  .Z.Y.(.`.E.N.v ; = , * o * ; ; 2 3 3   ",
"  - > < 3 < - % * ; v M.Y./.`.'.'.'.'./.:.7 > $ O = , , > - ,   ",
"  - - - - > > = 9 ..C.T./.`.'.'.'.).'.'.).N.r O + = 2 , > = >   ",
"  > ; $ O O $ ; ! C.Y./.).'.'.I.F.n.n.J.^.).N.5 O $ ; ; > > >   ",
"  > ; # o + ; v M.A.E./.`.).F.f.f.h.h.x.v.K.).a.; O + % > , ,   ",
"  > ; $ o ; j ,.Z.Y.E.(.).D.y.d.d.f.h.h.h.x.G.(.=.$ O O % > >   ",
"  ; ; o $ 7 O.B.Z.Y.E./.Q.d.e.y.y.d.f.f.f.f.f.I.T.c + X O % -   ",
"  * $ $ $ c <.B.Z.Y.E./.D.e.e.r.r.d.y.d.d.d.f.f.~.V.2 % + O +   ",
"  o o $ q $.<.B.Z.A.E.!.l.t.e.e.r.r.r.y.y.d.r.d.G./.' > + X X   ",
"  X o ; c >.<.M.C.A.Y.E.l.w.t.e.e.e.r.r.r.r.r.r.l.`.C.0 = + o   ",
"  * 1 9 | >.<.M.C.A.Y.E.H.0.q.q.e.e.e.e.e.r.e.e.h.).E.J ; = $   ",
"  < 4 z *.>.>.z.B.Z.A.Y.E.j.0.q.q.q.e.q.e.e.e.e.n.`./.,.$ * $   ",
"  > 3 ! *.*.>.<.M.Z.A.Y.E.R.j.0.6.q.q.q.q.q.q.y.Q.`.).Z.7 $ =   ",
"  @ 2 | *.;.{ 1.i.B.A.A.Y.E.R.m.t.q.q.6.q.q.d.I.'.`.(.A.z = 2   ",
"  @ 2 $.O.P A D T p.C.A.Y.Y.E.E.T.H.m.h.b.H.~.`.`.)./.Y.' 4 2   ",
"  - y %./ g h F T T N.Z.A.A.Y.Y.E.E.(.(.(.(.`.(.(.(.E.Y.=.< ,   ",
"  > y %.M f h F S U u.C.Z.A.Y.Y.Y.E.E.E.!.(.!.(.!.!.T.Y.:.& &   ",
"  > j %.a p f h A S 2.M.B.Z.A.A.A.Y.Y.E.R.E.!.!.!.E.Y.Y.:.% -   ",
"  = k %.a p d g Z A { <.M.B.Z.Z.A.A.A.Y.Y.Y.T.P.c.s.p.S.=.@ &   ",
"  % 0 *.m p p f h h I >.<.M.B.Z.Z.Z.A.A.A.S.k.4.Q Q E 8.' X O   ",
"  + 5 &.L p p p f f [ *.>.<.M.M.B.C.C.Z.V.9.Q Y Y Y G T v + +   ",
"  + * @.%.m p p p M | &.*.>.<.M.M.M.B.N.3.U U Y G H S D u - &   ",
"  o o ! *.@.V n N ] ~ $.$.*.>.>.<.<.<.1.S S S Z S A Z b 6 & @   ",
"  % ; w -.*.*.%.$.o.o.$.$.$.*.*.>.>.#.B Z Z Z Z h g f t > O O   ",
"  > > > ^ >.*.&.$.$.$.o.$.$.*.*.*.-.C d g d d d d p s 6 > % O   ",
"  3 , > 5 %.>.>.*.*.$.$.$.$.$.$.&.} p p p p p p p a t > > > $   ",
"  , > = % y *.>.>.*.*.&.$.$.$.$.$.) p p p p p p a l ; % ; > ;   ",
"  = > % = % y *.>.>.*.*.*.&.&.$.&.) d p p d d m l 3 - $ $ = ;   ",
"  % > - = % $ 7 ^ >.>.>.*.*.*.*.&.| m d f a n u & & > > ; ; =   ",
"  % - = & @ $ O $ j %.>.>.>.>.-.*.*.} ` K l 8 & % & > > = * $   ",
"                                                                "
};
