/* XPM */
static char *result[] = {
/* columns rows colors chars-per-pixel */
"32 32 189 2 ",
"   c black",
".  c #3E3B1A",
"X  c #592F1D",
"o  c #552D1D",
"O  c #5C321F",
"+  c #58351D",
"@  c #463B1D",
"#  c #6E3F1A",
"$  c #733E1B",
"%  c #733F17",
"&  c #493F29",
"*  c #513321",
"=  c #5E3422",
"-  c #563E2B",
";  c #563F32",
":  c #623623",
">  c #653926",
",  c #6B3B26",
"<  c #653C2A",
"1  c #6A3D2B",
"2  c #623F32",
"3  c #2A5D07",
"4  c #3D4617",
"5  c #335410",
"6  c #33550E",
"7  c #177603",
"8  c #1B6E07",
"9  c #277D09",
"0  c #49540C",
"q  c #424B1A",
"w  c #52481D",
"e  c #4A5115",
"r  c #595E1C",
"t  c #54541B",
"y  c #7F441D",
"u  c #5D6B19",
"i  c #58611B",
"p  c #5C7119",
"a  c #49452B",
"s  c #52432D",
"d  c #564A28",
"f  c #544233",
"g  c #594135",
"h  c #5D4739",
"j  c #5D493C",
"k  c #66402C",
"l  c #6D412E",
"z  c #71432F",
"x  c #6D4431",
"c  c #6C473B",
"v  c #6C493B",
"b  c #644738",
"n  c #724532",
"m  c #764936",
"M  c #7A4B35",
"N  c #754B3A",
"B  c #7A4C3A",
"V  c #7C503D",
"C  c #5F6623",
"Z  c #6E4D41",
"A  c #644D42",
"S  c #704D40",
"D  c #6D5247",
"F  c #6D544A",
"G  c #695747",
"H  c #715E46",
"J  c #745549",
"K  c #7A574B",
"L  c #745A4D",
"P  c #795445",
"I  c #6D5E57",
"U  c #5F6358",
"Y  c #646949",
"T  c #7B6156",
"R  c #7C645A",
"E  c #75625C",
"W  c #636D55",
"Q  c #676665",
"!  c #7D6B66",
"~  c #6F7A6F",
"^  c #78716D",
"/  c #7F7D7E",
"(  c #9B521B",
")  c #944D19",
"_  c #A5581F",
"`  c #92641B",
"'  c #966421",
"]  c #CB7B2E",
"[  c #D6792E",
"{  c #DB7D30",
"}  c #825542",
"|  c #82695F",
" . c #846459",
".. c #876D62",
"X. c #847169",
"o. c #91786E",
"O. c #907C76",
"+. c #877975",
"@. c #1C891A",
"#. c #329D12",
"$. c #05A903",
"%. c #14AC06",
"&. c #38B614",
"*. c #2EA70F",
"=. c #3BB928",
"-. c #3BB42D",
";. c #41BA1F",
":. c #43AB2F",
">. c #43B83B",
",. c #45C119",
"<. c #4CC51C",
"1. c #4ECD1D",
"2. c #51C51D",
"3. c #53C91F",
"4. c #4FC335",
"5. c #46C12A",
"6. c #79D82C",
"7. c #7ED934",
"8. c #5C8643",
"9. c #798249",
"0. c #4CAF4A",
"q. c #48B745",
"w. c #7BD246",
"e. c #C1852C",
"r. c #D6833A",
"t. c #E48B3D",
"y. c #85CC2E",
"u. c #88CB2F",
"i. c #81D92F",
"p. c #84DB31",
"a. c #8BDE34",
"s. c #87D836",
"d. c #92DA34",
"f. c #8DE436",
"g. c #8DE636",
"h. c #94EA36",
"j. c #94E43B",
"k. c #9BEB39",
"l. c #96E639",
"z. c #A3F23B",
"x. c #ABF43E",
"c. c #80AE42",
"v. c #8EBE53",
"b. c #8ABA4F",
"n. c #948074",
"m. c #E48F41",
"M. c #F5AB5C",
"N. c #F8B464",
"B. c #FCBD6D",
"V. c #8ACB42",
"C. c #88D54A",
"Z. c #99DE4D",
"A. c #8FC155",
"S. c #93DB53",
"D. c #A1DD43",
"F. c #A3E142",
"G. c #ACF440",
"H. c #B4FA41",
"J. c #B0F740",
"K. c #9BCC64",
"L. c #A4DA76",
"P. c #9A8D8E",
"I. c #9C9092",
"U. c #BAB6B3",
"Y. c #B3B1AB",
"T. c #C2BBBC",
"R. c #A5D88D",
"E. c #A8CCA6",
"W. c #BED1A9",
"Q. c #BDCEB7",
"!. c #BBCDA7",
"~. c #C6D7B5",
"^. c #C2D9A8",
"/. c #D7EEBD",
"(. c #CFCBCD",
"). c #D1CDCE",
"_. c #C8DEC0",
"`. c #D1D3CD",
"'. c #DADAD7",
"]. c #E1DFD9",
"[. c #DAEDC4",
"{. c #D9E5D9",
"}. c #E2E6DD",
"|. c #E4E5E3",
" X c #E9E6E7",
".X c #E7F1E7",
"XX c #F1EDF1",
"oX c #F7F6F7",
"OX c #FDF9FD",
/* pixels */
"                                                                ",
"  M M M M l = # = = 2 A f r c.t f t c.r f J N k = k x x m M B   ",
"  z n M B m 1 1 1 < Z E d K.~.b.d v.~.K.w | T > : l N m n z m   ",
"  z z z n n N 1 B m c A D '.|.}.^ '.|.].H g v : > l N m n l n   ",
"  x x < : : < 1 B } n D Y.P./ '.~ './ I.U.A b < = < x n n n n   ",
"  n n : = : 1 n P  ...L ).Q Q ~.-.~.Q Q ).L T R = : > 1 n m m   ",
"  x b < : x N P  .X.j H ).U W C.7.S.W U ).H f ! L < : : 1 n n   ",
"  x x = > x m m c j e b.^.V.D.G.G.G.F.V.!.A.e f v k > O : 1 l   ",
"  k < < < < < x 2 q #.s.Z.G.H.x.H.x.H.x.Z.s.#.q N m 1 1 < : <   ",
"  = = > < : < x < F R.f.x.H.z.1.z.1.z.H.x.j.R.Y < m m m < X O   ",
"  = = x < = # k : R [.j.H.H.x.6.z.6.z.H.H.j./...= n m m k : :   ",
"  1 x N x = o = = R [.j.H.H.H.x.x.z.H.H.H.j./...< n 1 n n l <   ",
"  M V M z l , O o R [.l.H.H.H.H.H.H.H.H.H.l./.X.n m l > 1 1 <   ",
"  n M M z M n , o L ~.a.z.H.H.H.H.H.H.H.k.a.^. .1 n 1 : = > l   ",
"  l , z M n M M - ; R i.p.k.H.H.H.H.H.z.f.i.Y A : > , : > x N   ",
"  , , M M z z V J D 6 3.p.a.l.k.k.k.l.f.i.3.e J Z > : > n V B   ",
"  m m 1 1 , > 1 Z T @ 9 ,.3.6.p.p.p.i.1.;.9 q J Z : 1 m B m m   ",
"  1 m m 1 1 > > : Z G . 7 %.,.<.2.<.<.%.7 4 D A * > l x n 1 1   ",
"  n 1 m m 1 > : x K O.I . 8 @.$.$.$.@.8 4 I ! J = > k l 1 1 n   ",
"  z m 1 1 1 1 < n m L ^ a 6 8.q.q.q.8.5 & ^ L + 1 x x l 1 1 1   ",
"  1 1 : # = < 1 : S K s 3 =.L.`.).`.L.;.3 s L v n x 1 > > : :   ",
"  , : X : > 1 1 x R R q &.S.}.XXoXXX XS.&.4 R o.N k < > > > ,   ",
"  : : : 1 n x > L E d u 6.w.{.oXOXOX|.w.i.p s R L k 1 x z z 1   ",
"  , > 1 B } m > < s u d.h.5.E.oXOXoXE.4.h.l.p - x m m m n 1 1   ",
"  1 l z n m m m 2 r d.J.H.g.-..XoX.X=.g.H.x.a.i x x m m 1 : :   ",
"  n m n x n m m x t u.x.H.l.4.{.XX.Xq.g.H.x.u.C < x 1 m m 1 :   ",
"  m m n 1 n n n S h t 6.h.V.Q.}..X XQ.C.k.y.i j c 1 m m n x <   ",
"  m m 1 1 n 1 1 R +.; e *.-.Y.U.T.U.U.:.*.0 s +...m 1 1 1 N x   ",
"  1 n 1 1 n 1 1 2 h # ] e.` + * ; * = ' e.] y g c n z < < x x   ",
"  1 n z 1 1 1 : + $ { N.M.[ ( + n.= ) ] M.N.r., : 1 n n x x l   ",
"  1 z z 1 1 > : X $ t.B.N.{ _ O P X ( { N.B.m.) = 1 n n l 1 <   ",
"                                                                "
};
