/* XPM */
static char *result[] = {
/* columns rows colors chars-per-pixel */
"32 32 83 1 ",
"  c black",
". c #5D5D5D",
"X c gray37",
"o c #5F5F5F",
"O c #606060",
"+ c gray38",
"@ c #686868",
"# c DimGray",
"$ c gray42",
"% c #6C6C6C",
"& c #6D6D6D",
"* c gray43",
"= c #6F6F6F",
"- c gray44",
"; c #717171",
": c #727272",
"> c gray45",
", c #747474",
"< c gray46",
"1 c #767676",
"2 c #777777",
"3 c #797979",
"4 c gray48",
"5 c #7C7C7C",
"6 c gray49",
"7 c gray50",
"8 c #808080",
"9 c #818181",
"0 c gray51",
"q c #838383",
"w c #848484",
"e c #868686",
"r c gray53",
"t c #888888",
"y c #898989",
"u c gray54",
"i c #8B8B8B",
"p c gray55",
"a c #8D8D8D",
"s c #8E8E8E",
"d c gray56",
"f c gray57",
"g c #929292",
"h c gray58",
"j c #959595",
"k c gray59",
"l c #979797",
"z c #989898",
"x c gray60",
"c c #9A9A9A",
"v c #9B9B9B",
"b c gray61",
"n c #9D9D9D",
"m c gray62",
"M c #9F9F9F",
"N c #A0A0A0",
"B c gray63",
"V c #A2A2A2",
"C c gray64",
"Z c gray65",
"A c #AEAEAE",
"S c #AFAFAF",
"D c gray70",
"F c #B4B4B4",
"G c #B7B7B7",
"H c gray72",
"J c gray73",
"K c #BBBBBB",
"L c #BCBCBC",
"P c gray74",
"I c gray",
"U c #C0C0C0",
"Y c #C1C1C1",
"T c gray76",
"R c #C3C3C3",
"E c gray77",
"W c #C5C5C5",
"Q c #C6C6C6",
"! c gray78",
"~ c #C8C8C8",
"^ c gray79",
"/ c #CACACA",
"( c #CBCBCB",
/* pixels */
"                                ",
" nq3+ooooooooooOXXXXXXXXXXX+qgH ",
" 3OX@9000000006$flllllllllj&.ow ",
" +#8yNVBBBBBBVx&jE(/////((~Vg=+ ",
" +:NVBNBBBBBBBn7=K^^^^^QCI//!6+ ",
" +:kuMBBBBBBBNBc,K^^^^^R2iI^Q6+ ",
" +:jrMBBBBBBBBn0=K^^^^^Qx*S/Q6+ ",
" +:MBBBBBBBBBBz%dT^^^^~^E4A/Q6+ ",
" +:MBBBBBNBBBBl<P^~^^^^^WnJ^Q6+ ",
" +:MBBBBBBbpMBl<P/~^^^^~^^^^Q6+ ",
" +:MBBBBBBc7uMz*bE^^^^^^^^^^Q6+ ",
" +:MBBBBBBBk=vb4=K^^^^^^^^^^Q6+ ",
" +:MBBBBBBBc0nBz,K^^^^^^^^^^Q6+ ",
" +:MBBNBVBBNNNBx,K^^^^^^^^^^Q6+ ",
" +:MBNBnisMBBBmt-K^^^^^^^^^^Q6+ ",
" +:MBBby16mBBBz%eU^^^^^^^^^^Q6+ ",
" +:MBBg;bNNBBBl,K^^^^^^^^^^^Q6+ ",
" +:MBBk7mBBBBBl<P/~^~^/^~^^^Q6+ ",
" +:MBBNNNBBBBBl-ZW^^^QDR^^^^Q6+ ",
" +:MBBBBBBBBBBv,-L^^^Y5F/^^^Q6+ ",
" +:MBBBBBBBBBBBl,K^^^Y3D/^^^Q6+ ",
" +:MBBBBBBBBBNBx,K^^^RaH^^^^Q6+ ",
" +:MBBBBBBBBBBMa;K^^^~W~^^^^Q6+ ",
" +:MBBBBBNBBBBz%6I^^^^^^~^^^Q6+ ",
" +:MBBBBBBmlMBl,G^^^^^^^^^^^Q6+ ",
" +:MBBBBBBk>vBl<P^~^^^^^~^^^Q6+ ",
" +:MBBBBNBj-vBl:A!^^^^^^^~KEQ6+ ",
" +:MmxNBBMa=vBc->L^^^^^^^WsF!6+ ",
" +:Nh6mBBz;>bBNh>K^^^^^^^~TQQ6+ ",
" +:NMbBBBNvbBBVx,L/^^^^^^^//!6+ ",
" +-kzzzzzzzzzzzf;AKJJJJJJJJJH3+ ",
"                                "
};
