/* XPM */
static char *result[] = {
/* columns rows colors chars-per-pixel */
"32 32 93 2 ",
"   c black",
".  c #1D1F36",
"X  c #1F2137",
"o  c #1F213A",
"O  c #22253C",
"+  c #242740",
"@  c #262943",
"#  c #292D47",
"$  c #292E4A",
"%  c #2F3147",
"&  c #2B314D",
"*  c #393C4F",
"=  c #2E3452",
"-  c #2D3658",
";  c #2F395D",
":  c #303654",
">  c #323956",
",  c #323B5C",
"<  c #343E62",
"1  c #36405F",
"2  c #364164",
"3  c #394365",
"4  c #3B4669",
"5  c #3E496B",
"6  c #44475A",
"7  c #424D6D",
"8  c #4C5067",
"9  c #4B526B",
"0  c #555869",
"q  c #434E70",
"w  c #465172",
"e  c #495576",
"r  c #4C5877",
"t  c #485678",
"y  c #4D5A7A",
"u  c #515E7E",
"i  c #51607F",
"p  c #5B667E",
"a  c #515F80",
"s  c #556383",
"d  c #596785",
"f  c #5B6986",
"g  c #5C6B8A",
"h  c #626F8C",
"j  c #62718E",
"k  c #657491",
"l  c #687693",
"z  c #6B7A96",
"x  c #6E7D98",
"c  c #747D95",
"v  c #717F9A",
"b  c #73829D",
"n  c #7A879F",
"m  c #7E889E",
"M  c #7685A1",
"N  c #7A87A1",
"B  c #7A89A4",
"V  c #7F8EA9",
"C  c #838A9E",
"Z  c #878FA2",
"A  c #8791A6",
"S  c #8393AC",
"D  c #8B96AC",
"F  c #8697B0",
"G  c #8798B2",
"H  c #8B9BB4",
"J  c #8F9FB8",
"K  c #929EB4",
"L  c #909FB8",
"P  c #8FA0B8",
"I  c #94A1B7",
"U  c #98A1B1",
"Y  c #93A3BA",
"T  c #98A6BC",
"R  c #9BA8BD",
"E  c #9CABC2",
"W  c #A1AFC3",
"Q  c #A4B1C5",
"!  c #A6B4C8",
"~  c #A9B6CA",
"^  c #ADBACD",
"/  c #B2BDCD",
"(  c #B2BED0",
")  c #B5C2D3",
"_  c #B9C5D6",
"`  c #BFCAD7",
"'  c #BBC7D8",
"]  c #BEC9D9",
"[  c #C2CDDD",
"{  c #CAD2DE",
"}  c #C6D1E1",
"|  c #CBD5E4",
" . c #CCD8E6",
/* pixels */
"                                                                ",
"  3 3 3 d f f f f d f f d g t 3 4 7 F Y H J Y J J Y B 2 4 2 u   ",
"  @ , 3 4 4 4 4 4 4 4 5 5 5 5 < l F ( ' ' ' _ ' ' ] ~ V d < 5   ",
"  # 5 e w w w w w w w 4 3 < 2 2 M E ( ' ) ' ) ' ) ' ^ E z 7 5   ",
"  ; x J F G G G H H H q , O - 2 M J F H H H G H H F R } Q H y   ",
"  d G Q E E W T G H F l r & , 3 k B F H H H H H H G Y ^ Q Q v   ",
"  P ) | } } | ~ F H H Y B 3 4 3 y g H J G H H G H H H S !  .W   ",
"  ) E E E E E Y H H H K b 2 3 2 a g l M H H H H H H H H Y W M   ",
"   .Y F F S F H H H G H M < 3 2 a f s k H G H G G H G H F F k   ",
"  z F H I W H H H J H l d 4 , @ 2 q d g k j j j h k h k k j g   ",
"  a x Y Q K V S S S V d r 4 , $ , 2 u s s u i i a a s a s u s   ",
"  < d K z d g g g g f 2 < < < < & O 3 3 3 2 4 3 3 3 3 3 3 4 4   ",
"  f Z h t u a e 7 r y d f f f f 1 & , > 9 = > 2 4 4 3 4 1 - 2   ",
"  c 4 - ; ; < $ . - 3 F J J P Y y , O O * % O , < < < 2 = O ,   ",
"  u N U K D v d 7 j b ! ^ ^ E G M l 3 : O & , f b z z M 9 O <   ",
"  d ^  .} ' Y B d S T ] ] } ! F Y G 7 1 O , 4 B T P H R p O 2   ",
"  G H P P H P M s V P P Y Y P H H G 5 2 , d S ! ' ' ^ H v s >   ",
"  P G G G F S z y N S V V V V V V N 5 3 < j P ^ ' ' ^ H b f ,   ",
"  T H P P S g r 2 a g g h g g g 7 2 4 4 < h Y H G H G H b f 7   ",
"  z b M B z r w 2 t y y y y y t 7 2 , , < d B S H H G H b y f   ",
"  < y f s r ; 2 2 ; 3 2 ; 2 2 2 4 3 @ $ 3 e d V Y H H P b m C   ",
"  $ 5 t n B x x z b b n k i w 4 > & @ & 3 t g l z z l z D D w   ",
"  o , 5 F P P P Y P P Y V j t 3 % + @ & 3 e g s d s j A m f 7   ",
"  , z G S T _ _ _ _ _ ` ^ V b s 5 < @ $ 4 4 4 s g z U v t 5 4   ",
"  < M Y J Q { ' ) _ ) _ ^ J b d q 2 # % < 2 2 y s s d i w , 3   ",
"  , M Y [ ` Q R G G G H G P b d 7 2 @ O O : 4 4 4 3 3 4 = O ,   ",
"  < k D / ) I G H H H H F B l d q 2 : : : , 4 , > - > , > = 3   ",
"  < j A K T H H H J J P V s d g q 3 2 2 2 2 < # O @ @ O = 3 <   ",
"  8 m B z z z z z z l z k g u q 4 4 l v z x b 7 , @ $ > u b z   ",
"  0 f j s s s d s d d s d g e < 3 7 F T T Y Y u < # & 3 j T L   ",
"  6 < 5 f g f f g g g g s 4 4 4 y g ( ' ] W G k u < e S S F ^   ",
"                                                                "
};
