/* XPM */
static char *c9eb430bbd0e4810a4d00c02602ee77cv4Sb0bYV6v8SYExB[] = {
/* columns rows colors chars-per-pixel */
"32 32 131 2 ",
"   c None",
".  c #1B1A0A",
"X  c #1D2C11",
"o  c #25230E",
"O  c #29270F",
"+  c #2A2B0F",
"@  c #292710",
"#  c #222C12",
"$  c #2C2B11",
"%  c #312E13",
"&  c #263414",
"*  c #2E3114",
"=  c #253C18",
"-  c #2E3D19",
";  c #353314",
":  c #393616",
">  c #353A11",
",  c #3C3B17",
"<  c #363C18",
"1  c #3D3C19",
"2  c #413E1A",
"3  c #2D4C1A",
"4  c #3E4413",
"5  c #35441A",
"6  c #3B451C",
"7  c #344D1B",
"8  c #3D4B1E",
"9  c #3A531E",
"0  c #3C4F20",
"q  c #3C5120",
"w  c #404316",
"e  c #434A16",
"r  c #45441B",
"t  c #49461E",
"y  c #444B1C",
"u  c #4B4C1D",
"i  c #44511D",
"p  c #4D511E",
"a  c #53571F",
"s  c #454E21",
"d  c #4D4B21",
"f  c #524D22",
"g  c #435123",
"h  c #4D5323",
"j  c #565125",
"k  c #565124",
"l  c #545225",
"z  c #565224",
"x  c #575224",
"c  c #565225",
"v  c #575225",
"b  c #575325",
"n  c #565326",
"m  c #575326",
"M  c #545024",
"N  c #525726",
"B  c #575527",
"V  c #555626",
"C  c #565627",
"Z  c #565727",
"A  c #535223",
"S  c #595325",
"D  c #585327",
"F  c #585425",
"G  c #595425",
"H  c #585427",
"J  c #595427",
"K  c #5A5427",
"L  c #5A5527",
"P  c #5B5727",
"I  c #5C5627",
"U  c #595526",
"Y  c #585A27",
"T  c #545628",
"R  c #5B5528",
"E  c #5A5628",
"W  c #5B5628",
"Q  c #5C5628",
"!  c #5C5728",
"~  c #5C5729",
"^  c #5B5628",
"/  c #535828",
"(  c #555828",
")  c #575928",
"_  c #555F2A",
"`  c #555B29",
"'  c #5E5829",
"]  c #5E5929",
"[  c #5F5929",
"{  c #5E5B28",
"}  c #5F5A2A",
"|  c #5D5B2B",
" . c #615B2B",
".. c #615D2C",
"X. c #625C2C",
"o. c #625D2C",
"O. c #635D2C",
"+. c #625C2D",
"@. c #615E2C",
"#. c #625E2C",
"$. c #635E2D",
"%. c #645E2D",
"&. c #645F2D",
"*. c #645E2D",
"=. c #62612C",
"-. c #65602E",
";. c #65612E",
":. c #686230",
">. c #696330",
",. c #696331",
"<. c #696631",
"1. c #6C6532",
"2. c #6C6632",
"3. c #6D6733",
"4. c #6B6A32",
"5. c #6F6935",
"6. c #6E6A36",
"7. c #6F6B36",
"8. c #706A35",
"9. c #726B36",
"0. c #736D38",
"q. c #746D38",
"w. c #756E38",
"e. c #756F39",
"r. c #766F39",
"t. c #757239",
"y. c #78713A",
"u. c #78723B",
"i. c #7A733C",
"p. c #7B743D",
"a. c #7D753E",
/* pixels */
"                            4.a.i.I O.                          ",
"                          t.p 3.=.h V e                         ",
"                        t.w.) y p e p 4 e e                     ",
"                      p.5./ s g A t G x u u                     ",
"                      3.X.V 5 g i u A u f ' u                   ",
"                    X.>.:.' r y 8 T u w p e G f                 ",
"                  y.;.e N u t 8 6 h n n { e f f 2               ",
"              0.5.5.{ A e u t f s R n y A d  .I r               ",
"            t.u.1.O.f G k t 4 u A 8 5 s r n ' t ,.+.            ",
"            w.8._ T t S f t  .S R ) s q 6 f f 2 S n 2           ",
"            3.V 7 9 i d t t X.d 2 r 1 6 s d R G d f +.t         ",
"          >.9.V 9 3 3 g T d t         & 5 T Q  .f d f d         ",
"          X.f f y 5 5 9 h d           @ ; 1 d G f O.f x d       ",
"          r t x | y s q 6             @ @ % R  .t f f n t       ",
"          t t f B h X.A ,             o @ O f f r o.n G f       ",
"          r 2 t n r f d               @ @ ; f  .e e u u S       ",
"          1 2 d | y h 5               o o $ f B e 5 y e 1       ",
"          @ : 1 h 7 3 7               $ % % G d 0 s d r 2       ",
"          @ : 6 g 7 7 9               : % o d n s 0 5 s X.d     ",
"          @ ; 5 9 8 _ '               @ ; @ r G f d s 6 d 2     ",
"          . % < 8 y q r               o % > e e d B 0 s Q f *   ",
"          % ; ; 5 5 h ~               $ ; : x e e f f R r s     ",
"          o $ ; d 6 q 5               @ o @ f A u G R 5 &       ",
"          $ 1 $ r d s g               # @ : x O.T y -           ",
"          % : > e p s 6                 X < A 6 -               ",
"          O $ + > 4 w 6                                         ",
"          o @ % : Y u w                                         ",
"          ; ; > , d G f                                         ",
"          @ ; + w u e e                                         ",
"          @ o o 2 d A r #                                       ",
"          X & ; 1 d h 6                                         ",
"              X r 0 =                                           "
};
