/* XPM */
static char *result[] = {
/* columns rows colors chars-per-pixel */
"32 32 180 2 ",
"   c #020201",
".  c #0A0605",
"X  c #000A00",
"o  c #0D0806",
"O  c #0C0B0C",
"+  c #130A07",
"@  c #130C09",
"#  c #190E09",
"$  c #011200",
"%  c #0B1704",
"&  c #111008",
"*  c #1B130C",
"=  c #1C1F0B",
"-  c #100F10",
";  c #181818",
":  c #23150F",
">  c #29170F",
",  c #251710",
"<  c #2D1B13",
"1  c #271D1A",
"2  c #341D14",
"3  c #3A1F15",
"4  c #032500",
"5  c #0C2306",
"6  c #032B00",
"7  c #172D09",
"8  c #043B01",
"9  c #0A3503",
"0  c #123807",
"q  c #1A3619",
"w  c #2F2314",
"e  c #3C241A",
"r  c #362516",
"t  c #252525",
"y  c #3D2E28",
"u  c #313131",
"i  c #283728",
"p  c #42261B",
"a  c #44291D",
"s  c #4C2B1E",
"d  c #4A271A",
"f  c #512D1E",
"g  c #5B2F1D",
"h  c #5D321F",
"j  c #4B2D21",
"k  c #452F20",
"l  c #502F23",
"z  c #47352D",
"x  c #553223",
"c  c #5D3422",
"v  c #5E3825",
"b  c #5E3A2A",
"n  c #543228",
"m  c #483B35",
"M  c #623623",
"N  c #643926",
"B  c #6B3C26",
"V  c #653C2A",
"C  c #6A3D2A",
"Z  c #703F2E",
"A  c #633F30",
"S  c #084D02",
"D  c #124B07",
"F  c #0D5404",
"G  c #085A02",
"H  c #075301",
"J  c #086701",
"K  c #086801",
"L  c #0E6209",
"P  c #0A7302",
"I  c #0A7C02",
"U  c #23671F",
"Y  c #66402D",
"T  c #6D412E",
"R  c #72432E",
"E  c #6D4431",
"W  c #724532",
"Q  c #784736",
"!  c #754935",
"~  c #7A4B35",
"^  c #7B4C39",
"/  c #754F3A",
"(  c #7E513C",
")  c #434242",
"_  c #484A47",
"`  c #514E4F",
"'  c #5C595A",
"]  c #5A5655",
"[  c #6F6F6F",
"{  c #656565",
"}  c #747474",
"|  c #797B79",
" . c #0A8401",
".. c #0B8C02",
"X. c #0C9402",
"o. c #0C9A02",
"O. c #0DA502",
"+. c #0DAC02",
"@. c #11A006",
"#. c #0FB503",
"$. c #10BE03",
"%. c #27A51E",
"&. c #31872C",
"*. c #28A420",
"=. c #0FCD01",
"-. c #11CB03",
";. c #10C403",
":. c #12D503",
">. c #13DF04",
",. c #12E602",
"<. c #14ED04",
"1. c #0FFF00",
"2. c #14F303",
"3. c #14FF04",
"4. c #1BFF0B",
"5. c #1FEB10",
"6. c #23FE13",
"7. c #2BFF1D",
"8. c #34FF25",
"9. c #37FF29",
"0. c #3BFF2D",
"q. c #3CEF30",
"w. c #41FF34",
"e. c #45FF38",
"r. c #4AFF3D",
"t. c #52D04A",
"y. c #65DC5E",
"u. c #4DFF42",
"i. c #52FF46",
"p. c #55FF49",
"a. c #59FF4F",
"s. c #55F24B",
"d. c #5FFF55",
"f. c #62FF57",
"g. c #63FF58",
"h. c #6DDE65",
"j. c #7CCA77",
"k. c #6BFF62",
"l. c #75FF6C",
"z. c #7DFF74",
"x. c #83CD7E",
"c. c #85FF7C",
"v. c #888787",
"b. c #939393",
"n. c #A09E9D",
"m. c gray67",
"M. c #AEB4AD",
"N. c #B3B2B3",
"B. c #99D096",
"V. c #96FF8F",
"C. c #97FF90",
"Z. c #9AFF93",
"A. c #A2FF9C",
"S. c #ABC9A9",
"D. c #ABFFA5",
"F. c #AFFFAA",
"G. c #B3FFAE",
"H. c #B7FFB2",
"J. c #BBFFB6",
"K. c #C7C7C7",
"L. c #D9D8D9",
"P. c #CFE3CE",
"I. c #C7FFC4",
"U. c #CAFEC6",
"Y. c #CDFFCA",
"T. c #C5F2C2",
"R. c #D0FFCD",
"E. c #D4FFD2",
"W. c #D9FFD7",
"Q. c #DEFFDC",
"!. c #D9E3D9",
"~. c #E3E3E3",
"^. c #EAEAEA",
"/. c #E5FFE3",
"(. c #E8FFE7",
"). c #ECFFEB",
"_. c #F6F6F6",
"`. c #F4FFF4",
"'. c #F8FFF7",
"]. c #FEFFFE",
/* pixels */
"~ ~ ~ ~ R B M M M V Z A j < j Z Q Z Z W C C Y v v N T W / ^ ^ Q ",
"~ ~ ~ ~ ~ R M h c l 2 #     1 n j C Z Z C E ! Y v Y E W ! ~ ^ ^ ",
"R R R ~ ~ ~ T d , o     t [ n.1 o c n V V W W V h T / ! W Z W Q ",
"R T R R R R Y +   ; ' m.^.]._.} [ '   e V A E c M T / W W W Z W ",
"T E T V v N v m b.L.'.].].].]._.].N.5 0 = * C M M V E W W W W W ",
"T W E V h f * ` _.`.'.].].].].].G.s.@...4   j h h c V C W Q W W ",
"C E E V V b & 0 h.u.I.].].].].].l.3.;.o.H   : c f N M M C W W W ",
"Y E C b x e D ..=.1.c.].].].].].J.4.,.o.I 4 9 7 + x M M M C C W ",
"E Y V V p   9 O.:.3.w.(.].].].].).e.3.-.:.O.X.8   a E C N M V T ",
"b x c V l 9 K ,.3.3.4.H.].].].].].c.3.3.3.:.X.J   * W V c h h V ",
"h h M p o F o.-.3.3.3.k.].].].].].U.8.r.6.2.O. .q ' m o s M c N ",
"V Y W j   6 X.+.2.3.8.c.'.].].].].'.W.).f.6.t.B.!.].v.  < T V N ",
"B ~ ( T & X P O.<.4.Z.].].].].].].].].].E.Y.'.].].].K.- + v Y V ",
"B ! ~ R w 6 X.,.3.3.z.].].].].'.Q.'.].].].].].].].].'._   e T W ",
"R B B p 7  .+.6.i.C.Q.].]./.D.f.8.J.].`.].].].].`.T.j.U   , / / ",
"~ B M + X &.x.U.`.].].E.l.9.4.3.3.u.d.l.'.].]./.a.5.o. .$ o Y Y ",
"R R ! 2   | ].].].].].J.4.3.3.3.3.3.3.7.W.].].`.u.3.#.X.8   a E ",
"T W W n   ] _.].].].`.H.7.3.3.3.3.3.3.3.Z.].).A.9.3.:.X.F 2 c Z ",
"T W V j v.~.].].].].V.6.3.3.3.4.3.3.3.3.p.'.R.6.3.<.;.8 O c Z Q ",
"B T e   | ].].].].].J.4.3.3.3.3.3.3.3.3.6.U.'.i.3.$.X.8   3 Z W ",
"C C f   u ^.].].].].).w.3.3.3.3.4.3.3.4.i.Y.].C.3.:.o.K   * h h ",
"M M c # . N.].].].].].c.3.3.3.3.3.3.3.e.(.].].W.7.2.O. .% > h M ",
"M M M 2   { ].].(.I.'.U.6.3.3.3.3.3.3.7.E.].].'.d.6.%.8 r T T W ",
"M M M x . t S.j.q.7.Y.Q.l.D.p.1.4.9.l.J.`.].].].E.Y.M.O : C B T ",
"M B T C ,   L o.:.3.r.9.z.].F.g.D./.].].].].].].]._.N.z b M N W ",
"W Q ! W a   7 S G 2.3.3.0.(.].'.].].].].].].].~.b.) - e E V M V ",
"~ ^ Q E N n b + $ #.-.,.4.F.].].].].].].].].].m.    @ a ! E V c ",
"W Q W C Y T T 2   S o.$.,.y.'.].].].].].].]._.K.y j V C Y W T V ",
"C W W C T T C s   5 F 8 ..*.P.K.~.].].].^.N.{ t p R T B C E E Y ",
"M C W W T B B M a g :   F G i - v._.K.} u .     2 R ! W T T T C ",
"M C E C B C V M M B n n k     * m ) O   . # 3 x N Z R W T Y V N ",
"M M C B C C B V V E ! W V < j V V # . , d g M B C B M M M h h v "
};
