/* XPM */
static char *e02cb9b238c143dee55acdae069a26afdyjRnVfs9L8eRaQW[] = {
/* columns rows colors chars-per-pixel */
"32 32 177 2 ",
"   c #5A2F1C",
".  c #5D321F",
"X  c #5E3522",
"o  c #5F3924",
"O  c #633623",
"+  c #643926",
"@  c #6B3C26",
"#  c #603729",
"$  c #653C29",
"%  c #6A3D2B",
"&  c #703F2E",
"*  c #156515",
"=  c #176A17",
"-  c #1B6619",
";  c #176D18",
":  c #1A6C19",
">  c #19731A",
",  c #1C7B1C",
"<  c #226A1E",
"1  c #246C22",
"2  c #296D29",
"3  c #3B6B2B",
"4  c #257F25",
"5  c #377236",
"6  c #367E36",
"7  c #3B753B",
"8  c #3F7D3F",
"9  c #66402C",
"0  c #6D412E",
"q  c #72432E",
"w  c #6D4432",
"e  c #6C4933",
"r  c #684438",
"t  c #6C4C3B",
"y  c #724532",
"u  c #784736",
"i  c #754935",
"p  c #7A4B35",
"a  c #744D3C",
"s  c #7B4C39",
"d  c #635B37",
"f  c #7E513C",
"g  c #4D6633",
"h  c #60643F",
"j  c #744F40",
"k  c #7B5445",
"l  c #765448",
"z  c #7B5F54",
"x  c #4A7A49",
"c  c #5D7448",
"v  c #587D52",
"b  c #626F50",
"n  c #7E645B",
"m  c #7F6A63",
"M  c #815A4B",
"N  c #82665C",
"B  c #866D65",
"V  c #886F66",
"C  c #86726C",
"Z  c #8C7A74",
"A  c #1C831C",
"S  c #1E8A1E",
"D  c #258325",
"F  c #238F23",
"G  c #2D842D",
"H  c #2C8C2C",
"J  c #378836",
"K  c #2DA92D",
"L  c #34A734",
"P  c #33AD33",
"I  c #3DAB3C",
"U  c #36B236",
"Y  c #3BB53B",
"T  c #3EB93D",
"R  c #40B43F",
"E  c #40BA3F",
"W  c #4B864A",
"Q  c #469D45",
"!  c #588057",
"~  c #538952",
"^  c #579956",
"/  c #4DAF4B",
"(  c #42B641",
")  c #45BC44",
"_  c #48BE47",
"`  c #4BBD4A",
"'  c #5FA95E",
"]  c #55BA55",
"[  c #628861",
"{  c #6A8B66",
"}  c #6C856B",
"|  c #6B9D6A",
" . c #758A74",
".. c #7C9F7C",
"X. c #63AC62",
"o. c #73A672",
"O. c #4DC14C",
"+. c #54C454",
"@. c #58C857",
"#. c #5AC359",
"$. c #5CC95B",
"%. c #65C764",
"&. c #65CC64",
"*. c #6BCD6B",
"=. c #75D174",
"-. c #8E827E",
";. c #95817A",
":. c #8D8E8D",
">. c #938682",
",. c #948986",
"<. c #9B8A85",
"1. c #958D8A",
"2. c #859085",
"3. c #8C978B",
"4. c #99918E",
"5. c #959594",
"6. c #9D9694",
"7. c #939A93",
"8. c #9B9896",
"9. c #9C9C9C",
"0. c #A38F88",
"q. c #A4928C",
"w. c #AD9D97",
"e. c #88AC87",
"r. c #96A594",
"t. c #9DA29D",
"y. c #9BBE9A",
"u. c #B6A49E",
"i. c #A3A3A3",
"p. c #ADA6A5",
"a. c #A5A9A5",
"s. c #ABABAB",
"d. c #A9B2A9",
"f. c #B7B0AE",
"g. c #B4B4B4",
"h. c #B6B8B4",
"j. c #BBBCBB",
"k. c #C4BCBA",
"l. c #95C294",
"z. c #95CF94",
"x. c #92D691",
"c. c #94DB93",
"v. c #A0D19F",
"b. c #ABD3AA",
"n. c #AADCAA",
"m. c #BCC1BC",
"M. c #B3DAB2",
"N. c #B1E3B0",
"B. c #C5C4C3",
"V. c #CCCBCB",
"C. c #D4CFCE",
"Z. c #C8D6C7",
"A. c #C9D7C9",
"S. c #D4D4D4",
"D. c #D7D7D8",
"F. c #DCDCDC",
"G. c #C2E7C2",
"H. c #CEE1CE",
"J. c #CCE9CC",
"K. c #D4E0D3",
"L. c #DCECDB",
"P. c #D7F1D6",
"I. c #D9F0D9",
"U. c #E0EEDF",
"Y. c #E1E1E0",
"T. c #E4E4E4",
"R. c #E7E7E7",
"E. c #E7E9E7",
"W. c #EAEAEA",
"Q. c #EBEBEB",
"!. c #EDECEC",
"~. c #EBF6EB",
"^. c #F2F2F2",
"/. c #F2F3F2",
"(. c #F7F9F6",
"). c #F9FAF9",
"_. c gray99",
/* pixels */
"p p p p q @ O O # % & % r m ,.w.u.0.V u @ % % o o $ w w s s s u ",
"p p p p p q O . X X O z p.S.R.^.(.^.W.k.N % i $ o $ w i i u u u ",
"q q q p p p q @ % % Z B.Y.W.^.)._._._.).L.q.t $ o 9 i i u % u u ",
"q 0 q q q i q 0 k <.B.Y.W.^.).).~.I.I.R.(.Q.w.$ + w i i y y y y ",
"0 y w $ o O $ 9 >.B.F.R.^.).~.M.=.*.&.=.c.I.Q.q.+ $ w u y y y y ",
"0 y w # . + 0 V g.S.Y.W.^.~.x.+.+.#.$.$.$.*.G.E.;.X + $ y y y y ",
"9 w w $ + w N p.B.D.U.W.^.n.` ` O.+.+.@.$.$.&.G.D.n O O % y y y ",
"9 w % o + a 4.h.V.S.Y.W.L.%.( ) ` O.O.+.+.+.+.&.L.k.w O O % % y ",
"w 9 $ # $ m s.j.B.D.Y.W.n.( Y ( T O.T O.O.O.O.O.c.W.<.@ + O + w ",
"o X o $ t 4.s.j.B.D.F.R.b.I I Y T T T O.O.) O.O.#.L.C.k +   X + ",
"X X O 9 m i.s.g.B.S.F.R.b.P P I U Y T T Y T ( T ) J.W.0.% O O + ",
"+ % y j :.i.s.g.m.V.D.F.K./ L P U U U Y Y Y Y Y ) J.^.B.a 0 $ + ",
"@ p f z 8.i.a.s.j.V.D.F.R.b.L L P P U U U U U U #.E.^.F.N % % + ",
"@ y p V 9.w.t.a.g.B.V.D.Y.Y.z.I K K P K P P U Y n.(.^.T.4.+ 0 y ",
"q @ q -.9.3.~ W | h.V.S.F.Y.E.Z.*.I K K K L ] n.~.(.W.R.f.i a a ",
"p @ q 1.3.8 , 4 G ^ m.V.S.F.R.R.E.H.b.z.x.M.L.^.(.^.~.R.B.k i e ",
"q y j 5.} : > , 4 H e.B.V.D.F.Y.Y.E.W.!.Q.^.^.^.Q.^.W.U.B.z y & ",
"& r j 5.x ; ; > , A ^ j.V.V.D.D.Y.Y.T.R.W.Q.Q.Q.Q.Q.R.F.V.l & & ",
"9 y j 5.7 * ; ; > 4 J d.j.V.V.S.S.F.F.Y.Y.T.R.W.W.D.F.F.B.k & u ",
"% % j 5.5 * ; ; > > 6 i.g.j.B.V.V.C.S.D.F.F.F.A.y.X.' y.k.a & y ",
"% @ t 6.x * * * ; ; 6 t.s.g.j.B.B.V.V.D.S.V.l.Q F S S H r.w O O ",
"O + $ 4. .; * * = ; W 7.s.s.g.g.j.B.B.B.B.o.H A S A A A } t O O ",
"O O # >.9.x * * ; 2  .5.9.i.s.s.g.j.j.j.o.4 A A A A A , c y & y ",
"O O O m i.7.! 5 7 m :.5.5.9.i.s.s.s.g.o.4 , , , , > > 1 d % @ & ",
"O % 0 i 8.i.9.5.5.:.:.:.5.5.9.9.i.a.r.6 > > > > > : = 3 0 O + y ",
"y y y y B i.i.9.9.5.5.5.5.5.5.9.9.9.[ = = = = = = = < d 0 $ O + ",
"u u u y y ,.a.i.9.9.8.5.5.5.5.9.8.5.5 * * * * * * - g e y e 9 . ",
"y y i 0 % a 4.a.i.i.9.8.5.5.5.5.5.2.1 * * * * * = g t @ 0 y 0 9 ",
"% % y % % & a 1.a.i.i.i.9.9.8.5.5.2.1 = * * = < g a w @ $ 0 e 9 ",
"@ % y y % % $ % C i.a.i.i.9.9.9.9.5.7 = = 1 5 h w q y y 0 0 q 9 ",
"O % % & % % % O O l ,.i.s.i.i.i.i.9.7.{ v b t & % % q y 0 9 $ + ",
". + % % % % % + % y u k V 1.6.8.5.1.>.C j # O % @ % O O O o . . "
};
