/* XPM */
static char *_f15607c52cc4cb7889796e7d8839c6ddvseWYFcawGxRqLr[] = {
/* columns rows colors chars-per-pixel */
"32 32 181 2 ",
"   c #5A2F1C",
".  c #5D321F",
"X  c #5E3522",
"o  c #5F3924",
"O  c #623623",
"+  c #643926",
"@  c #6B3C26",
"#  c #663C29",
"$  c #6A3D2B",
"%  c #703F2E",
"&  c #673E31",
"*  c #66402C",
"=  c #6D412E",
"-  c #72432E",
";  c #6D4432",
":  c #6C483B",
">  c #724532",
",  c #784736",
"<  c #754935",
"1  c #7A4B35",
"2  c #744C3C",
"3  c #7A4B39",
"4  c #7D513D",
"5  c #6B4B45",
"6  c #704B40",
"7  c #7A5344",
"8  c #725349",
"9  c #695254",
"0  c #7B5D50",
"q  c #7D655C",
"w  c #56586C",
"e  c #655F68",
"r  c #54657C",
"t  c #7E6961",
"y  c #656975",
"u  c #805F53",
"i  c #85675C",
"p  c #85695E",
"a  c #836B62",
"s  c #8D6F63",
"d  c #86716A",
"f  c #8C736B",
"g  c #94786F",
"h  c #8F7E79",
"j  c #8D807C",
"k  c #96827B",
"l  c #A0857C",
"z  c #005E9A",
"x  c #01619E",
"c  c #0A649C",
"v  c #14639A",
"b  c #1B689A",
"n  c #266A98",
"m  c #396D94",
"M  c #3B759B",
"N  c #0165A4",
"B  c #0B68A3",
"V  c #006AAD",
"C  c #1573AE",
"Z  c #006DB1",
"A  c #0270B5",
"S  c #0274BC",
"D  c #0C76B9",
"F  c #0978BD",
"G  c #206BA3",
"H  c #2C7AAA",
"J  c #465F83",
"K  c #597B93",
"L  c #427DA1",
"P  c #0079C4",
"I  c #0B7CC3",
"U  c #017DC9",
"Y  c #2785BF",
"T  c #3B89BA",
"R  c #68869A",
"E  c #758995",
"W  c #4886AC",
"Q  c #669BBC",
"!  c #1482C7",
"~  c #0084D3",
"^  c #0689D7",
"/  c #2C92CE",
"(  c #2799DC",
")  c #0A9EF5",
"_  c #129EF1",
"`  c #0DA1F7",
"'  c #0DA4FB",
"]  c #14A1F5",
"[  c #13A5FB",
"{  c #15ABFD",
"}  c #1AADFE",
"|  c #1DB1FE",
" . c #21A2F1",
".. c #22ACFC",
"X. c #23B4FD",
"o. c #2BB5FD",
"O. c #2DB9FE",
"+. c #34BDFE",
"@. c #38B8FC",
"#. c #4A94C3",
"$. c #539AC6",
"%. c #4FA9DF",
"&. c #57A7D7",
"*. c #43AEEE",
"=. c #44B7FB",
"-. c #3BC1FE",
";. c #56C7FC",
":. c #7EC3EC",
">. c #6ACEFC",
",. c #74C4F3",
"<. c #8D8280",
"1. c #8E8E8E",
"2. c #938783",
"3. c #948985",
"4. c #948D8A",
"5. c #998E8A",
"6. c #8C959B",
"7. c #959595",
"8. c #979899",
"9. c #9C9C9C",
"0. c #A4948F",
"q. c #A59995",
"w. c #A4A09E",
"e. c #8799A4",
"r. c #9A9EA0",
"t. c #9DA2A5",
"y. c #9EA9AF",
"u. c #A3A3A3",
"i. c #A9A5A4",
"p. c #ABABAB",
"a. c #B4AAA7",
"s. c #ADB3B6",
"d. c #B4B3B3",
"f. c #BEB4B0",
"g. c #BCBBBB",
"h. c #C1BDBC",
"j. c #8AADC3",
"k. c #80BADC",
"l. c #B4BBC0",
"z. c #80BFE4",
"x. c #BEC1C3",
"c. c #B7C4CC",
"v. c #ADC5D3",
"b. c #92CCEF",
"n. c #89CAF1",
"m. c #83D1FB",
"M. c #9BD7F8",
"N. c #AAD4ED",
"B. c #BCD8E8",
"V. c #A3D8F7",
"C. c #AADFFA",
"Z. c #A8E2FC",
"A. c gray77",
"S. c #C8C5C4",
"D. c #CCCBCB",
"F. c #C9D2D7",
"G. c #D4D4D4",
"H. c #DAD6D6",
"J. c #DCDCDC",
"K. c #E0DEDE",
"L. c #C3DAEA",
"P. c #DCDFE1",
"I. c #DFE5E7",
"U. c #D4EBF5",
"Y. c #DBEDF7",
"T. c #D9EEF8",
"R. c #E3E3E3",
"E. c #E6E8E8",
"W. c #E5E8EA",
"Q. c #EAEAEA",
"!. c #EBEBEB",
"~. c #EEEEEE",
"^. c #E8EEF1",
"/. c #E5F5FB",
"(. c #EBF5FA",
"). c gray95",
"_. c #F2F3F3",
"`. c #F5F8F9",
"'. c #F4F8FA",
"]. c #F9F9F9",
"[. c #FAFCFC",
/* pixels */
"1 1 1 1 - @ O O O $ & & & 8 d h l g u @ * * * + o * * < 3 4 1 < ",
"1 1 1 1 1 - O . X O O 8 q.D.R.~._.).K.0.2 - - * . * ; < < < , 1 ",
"- - - 1 1 1 - @ @ & a h.P.!._.].].].).).D.p < # . = < < > - , , ",
"- = - - - < - = 7 h A.K.!._.`.[.`././._.].J.f O + = < < > = > > ",
"= ; ; + O O * * h h.J.E.).].'.Z.>.;.;.>.Z./.K.a X # ; ; > > > $ ",
"= > ; + . + = p d.G.K.!.).(.m.@.@.@.-.-.-.>.U.G.0 + + $ > , , > ",
"= ; ; + + = q w.A.G.R.!.`.M.o.o.+.+.+.-.-.-.;.U.A.; O O @ > , ; ",
"* ; ; o + : 5.f.D.G.R.!.U.=...X.X.O.O.+.-.+.+.>.^.q.+ X O @ = = ",
"; * # o # q u.g.D.G.R.!.V.] ....X.X.X.O.O.O.O.O.C.K.i @ O O + ; ",
"o X o # : 4.s.g.S.G.P.!.n.[ [ } | | | X.X.X.X.X.;.^.f., +   X + ",
"X X o & t t.p.d.S.G.J.R.b.] [ { { } | | | | | | @.Y.K.s = O X + ",
"+ $ > 2 3.u.p.d.x.D.H.R.L. .] ` [ { { { { | { { o.Y.~.a.; = # + ",
"@ , 4 u 8.w.u.d.g.D.G.P.E.:._ ` ' [ { { { { { { ;.^.).D.2 * $ + ",
"@ < 1 d 9.w.u.p.d.A.D.H.K.I.:._ ) ` ' ' ' [ ' X.C.].).P.t # = < ",
"- @ - j 9.6.W T Q x.D.G.J.R.E.N.*.[ ) ) ` [ @.V.(.].).R.0.; < 2 ",
"1 @ = 3.6.H A F ! $.x.F.G.P.R.E.W.B.n.,.,.M.T.`.).).~.R.a.4 2 = ",
"- - 2 7.R B V S I ! j.S.D.J.P.R.W.!.!.~.~.).).).).~.!.R.g.3 , - ",
"- < 2 7.M x V A S I #.l.D.D.G.J.J.R.E.E.~.~.~.~.~.~.E.J.h.$ $ % ",
"= - 2 8.n x N V A S Y s.g.D.D.G.G.J.J.K.R.R.E.E.E.R.J.J.h.$ % , ",
"= = 2 8.n x x x V A Y y.g.g.S.D.F.G.G.H.J.K.K.B.z.%.&.v.d.@ $ , ",
"+ $ ; 9.M x x x V V H t.d.d.g.A.S.D.D.G.G.F.k.( ^ ^ ^ / t.. O O ",
"O + $ 4.R x x z x N W r.u.p.s.d.g.A.A.D.c.&.^ ~ ~ ~ U I E O O O ",
"O O + <.r.M z x z b E 1.9.u.u.d.d.g.g.s.$.U U U U P P D y % % % ",
"O O + t w.6.K n m R 1.1.8.w.u.i.p.d.s.Q F S S S S S Z G 9 @ % % ",
"+ @ = 2 8.u.9.8.6.1.1.1.7.8.9.w.u.p.e.C Z Z Z Z Z V N J & O + > ",
"; , > > a i.u.9.9.8.7.7.1.7.7.9.r.r.L N N N N N N x n 9 > # O + ",
"< , < > ; 2.u.u.w.8.8.7.7.7.7.8.8.6.b z z x z z z v w : > ; # O ",
"> , > = $ 2 5.p.u.u.9.8.8.7.7.7.7.E c x z z z z v r : $ & > ; # ",
"@ = > $ $ = 2 3.p.u.t.w.9.9.8.7.8.E B z x x N b r 6 = @ $ = ; # ",
"+ $ > - = $ + $ d u.i.u.t.w.9.9.8.6.G N N v m e & > > > = ; = $ ",
"+ @ = = $ $ $ O O 7 2.u.i.u.u.u.9.t.6.R K e 5 % @ % > - = * # + ",
"O + $ $ $ $ $ + + > < 7 a k 5.5.5.3.h p : . O + % + + O O . . o "
};
