/* XPM */
static char *result[] = {
/* columns rows colors chars-per-pixel */
"32 32 184 2 ",
"   c #020201",
".  c #0B0605",
"X  c #020C01",
"o  c #0E0806",
"O  c #0D0D0D",
"+  c #110906",
"@  c #130C09",
"#  c #190F0A",
"$  c #021300",
"%  c #021B00",
"&  c #0C1304",
"*  c #1C110C",
"=  c #131313",
"-  c #181513",
";  c #23140D",
":  c #28150D",
">  c #251C0F",
",  c #241610",
"<  c #281710",
"1  c #271812",
"2  c #2A1A14",
"3  c #311C14",
"4  c #032E00",
"5  c #022100",
"6  c #053501",
"7  c #083402",
"8  c #1D370C",
"9  c #153B09",
"0  c #23241F",
"q  c #3B2117",
"w  c #35221A",
"e  c #3C241A",
"r  c #2A3112",
"t  c #242322",
"y  c #2C2827",
"u  c #332E26",
"i  c #31312F",
"p  c #323331",
"a  c #393939",
"s  c #42271C",
"d  c #432A1F",
"f  c #4A2A1C",
"g  c #532D1D",
"h  c #592E1C",
"j  c #5D321F",
"k  c #4B2D21",
"l  c #542F23",
"z  c #4E3124",
"x  c #47342D",
"c  c #533224",
"v  c #5C3422",
"b  c #5F3924",
"n  c #5D3929",
"m  c #523428",
"M  c #633624",
"N  c #643926",
"B  c #6B3C26",
"V  c #653B29",
"C  c #6A3D2B",
"Z  c #603628",
"A  c #703F2E",
"S  c #633E30",
"D  c #054201",
"F  c #0B4A04",
"G  c #075C01",
"H  c #0B5804",
"J  c #0A6702",
"K  c #096C01",
"L  c #056700",
"P  c #087701",
"I  c #0C7903",
"U  c #66412D",
"Y  c #6D412E",
"T  c #72432E",
"R  c #6D4331",
"E  c #634032",
"W  c #724532",
"Q  c #784736",
"!  c #754936",
"~  c #7B4B35",
"^  c #764C3A",
"/  c #7A4C39",
"(  c #7E513C",
")  c #474747",
"_  c #505050",
"`  c #5D5C57",
"'  c #645D5B",
"]  c #765F54",
"[  c #6F6F6F",
"{  c #637D61",
"}  c gray48",
"|  c #827977",
" . c #0B8702",
".. c #118209",
"X. c #0C9302",
"o. c #0C9A02",
"O. c #0DA203",
"+. c #0EAE02",
"@. c #0FB703",
"#. c #10B704",
"$. c #1EA415",
"%. c #36AF2E",
"&. c #0FC702",
"*. c #10C203",
"=. c #11CD03",
"-. c #12D304",
";. c #12DD03",
":. c #12E203",
">. c #13EC04",
",. c #0FFA00",
"<. c #14FF03",
"1. c #1AFF0A",
"2. c #15F404",
"3. c #23FE13",
"4. c #26F518",
"5. c #29FF1B",
"6. c #36FF28",
"7. c #39FE2C",
"8. c #34FF26",
"9. c #44D93A",
"0. c #41FF34",
"q. c #47FF3B",
"w. c #46F037",
"e. c #7DAE7A",
"r. c #56C04F",
"t. c #59C352",
"y. c #55EC4B",
"u. c #51FF46",
"i. c #57FF4C",
"p. c #5EFF53",
"a. c #60FF56",
"s. c #62FF58",
"d. c #74D36E",
"f. c #76FF6D",
"g. c #78FF6F",
"h. c #7CFF73",
"j. c #7BF273",
"k. c #87B47E",
"l. c #84FF7D",
"z. c #848484",
"x. c #928F8E",
"c. c #989797",
"v. c #9D9D9D",
"b. c #84A982",
"n. c #97AF84",
"m. c #B0AFAE",
"M. c #B7B7B7",
"N. c #A4A4A4",
"B. c #C7BDB9",
"V. c #97C894",
"C. c #A1D49D",
"Z. c #8EFF87",
"A. c #93FF8C",
"S. c #93F589",
"D. c #9BFF95",
"F. c #A3FF9D",
"G. c #ACFFA7",
"H. c #A6FFA0",
"J. c #BDFFB9",
"K. c #BBFFB7",
"L. c #C6C5C5",
"P. c #CECECE",
"I. c #CBC4C1",
"U. c #DBDADB",
"Y. c #D3D6C7",
"T. c #E6DEDC",
"R. c #CCEACB",
"E. c #C6FFC2",
"W. c #CAFFC7",
"Q. c #CDFFCA",
"!. c #D1FECE",
"~. c #D5FFD3",
"^. c #D9FFD6",
"/. c #DFFFDD",
"(. c #E1FFDF",
"). c #EDEDEC",
"_. c #E9E7E6",
"`. c #E4FFE3",
"'. c #EDFFEB",
"]. c #E9F7E8",
"[. c #F0FFEF",
"{. c #F5F5F5",
"}. c #F5FFF4",
"|. c #FEFFFE",
/* pixels */
"~ ~ ~ ~ T B M M Z C A A Z Z S A Q C ; , f Z U b b V R W / / / Q ",
"~ ~ ~ ~ ~ Y M j Z v v l l v Z m 2 x =     @ e c j U R W ! ^ ^ Q ",
"T T T ~ ~ ~ T Y C V Z Z v 3 k 2   z.P.z.a O     # k ^ ! W W Q Q ",
"T Y T T T T T Y ^ ! S m n . $ J H C.{.|.{.M.[ y X e ! ! A A W A ",
"Y R R V M M U U / / e   9 H H o.#.3.h.}.|.|.|._.x.k Z R W W W T ",
"Y W W N j M Y T ^ W * X K o.-.:.:.<.A.|.|.|.|.|.N.  < B W Q Q W ",
"U R R V n R ^ U m z   5  .+.2.<.<.5.!.|.|.|.|.|.M.) s M C W W W ",
"U R U b N R ! 2   F F J o.*.<.<.<.p.}.|.|.|.|.|.|.U.y 3 j C Y Y ",
"R U V V V V v . X I O.:.:.>.<.1.<.F.|.|.|.|.|.G.l.e.X ; b M N Y ",
"b v b V f f q   u n.d.7.<.<.7.D.g.`.|.|.|.|.}.u.,.+.K r c h j V ",
"j j M V # . x ' m.{.|.`.G.s.Z.|.|.|.|.|.|.|.W.3.>.O. .$ @ h b N ",
"B U W m . t B.{.|.|.|.|.|.|.}.|.|.|.|.|.|.|.l.<.-.X.G   ; U V N ",
"C ~ ( w   } |.|.|.|.|.|.|.'.'.|.|.|.|.|.|.'.0.<.-.O.4   s U B N ",
"B W T @ O L.|.|.|.|.|.}.|.l.7.l.W.Y._.|.|.~.0.1.<.;.J 7 f V Y W ",
"T Y f   ) {.|.|.|.|.`.p.h.8.<.<.3.w.S.[.|.|.`.p.<.=.o.G & d ^ ^ ",
"~ B :   { ].|.|.|.|.F.<.<.<.<.<.<.<.7.`.|.|.'.0.<.+.X.4   z ^ R ",
"W C # $ ..%.j.J.|.}.p.<.<.<.<.<.<.<.u.(.|.|.}.F.y.$.P X @ R Q W ",
"R R V r L O.<.u.}.~.5.<.<.1.<.1.<.<.1.7.Q.|.|.|.}.R.b.i 3 C A C ",
"C W T < X o.<.f.}.A.<.<.1.<.<.<.<.<.<.7.`.|.|.|.|.|.|.I.3 s C Q ",
"C Y n o % -.<.3.p.l.7.1.<.<.<.1.<.<.<.g.|.|.|.|.|.|.|.L.= + N W ",
"C C s   6 +.;.<.q.[.J.3.<.<.<.<.<.<.1.J.|.|.}.J.~.}.|.z.  : j M ",
"M M g : H X.-.<.Z.|.D.<.<.<.<.<.<.<.q.[.'.~.^.8.4.t.V.p   f M M ",
"M M M g & D *.4.!.|.(.D.i.3.<.<.h.l.F.|.A.5.7.1.;.o.K   # C A A ",
"M M M f @ 6 o.r.}.|.|.|.}.Q.l.i.^.|.|.}.u.<.<.<.@.X.D   q C C A ",
"M C Y Y n 8 L k.|.|.|.|.|.|.|.}.}.|.|.E.3.>.#.=.X. .%   m M N W ",
"W W ! W N o   0 z.{.|.|.|.|.|.|.|.|.|.l.<.=.o.G % 9 * 1 R C M N ",
"~ / ! Y V e *   _ {.|.|.|.|.|.|.|.|.'.0.<.+.X.4   k U C W R V b ",
"W Q W Y C U C c ' P.{.|.|.|.|.|.|.|.}.F.9. .P X o C R C Y W Y V ",
"C T W C C C C b o - _ v.T.{.|.).c.m.).T.' $ 8 # 3 T T U U Y R Y ",
"N C T W T C V v : o     t ` | ] @ . p x ; . l B M T W T Y Y Y U ",
"M C Y C C C B M M v k 1 .     e e *   * l h M C B C T T R U U M ",
"j M C C C C C M N R ^ R v w @ c U E m z M j M B C B M N b j j j "
};
