/* XPM */
static char *f342c2e7361d413de21ed2a800c26d42pmCrN6ASds0vvukv[] = {
/* columns rows colors chars-per-pixel */
"32 32 167 2 ",
"   c #5A2F1C",
".  c #5D321F",
"X  c #5E3522",
"o  c #5F3924",
"O  c #623623",
"+  c #643926",
"@  c #6B3C26",
"#  c #603729",
"$  c #653C29",
"%  c #6A3D2B",
"&  c #703F2E",
"*  c #6A3F32",
"=  c #66402C",
"-  c #6D412E",
";  c #72432E",
":  c #6D4431",
">  c #724532",
",  c #784736",
"<  c #754935",
"1  c #7B4B35",
"2  c #724738",
"3  c #754C3A",
"4  c #7A4C39",
"5  c #7D513D",
"6  c #724E42",
"7  c #7B4F42",
"8  c #745244",
"9  c #78584B",
"0  c #7F5849",
"q  c #755A52",
"w  c #7E5E51",
"e  c #7F6258",
"r  c #8A5756",
"t  c #96585B",
"y  c #83655B",
"u  c #866659",
"i  c #8B625B",
"p  c #A15764",
"a  c #AB5365",
"s  c #AA5C6C",
"d  c #B15769",
"f  c #B3596B",
"g  c #B95B6E",
"h  c #BE5E71",
"j  c #896763",
"k  c #8A6E63",
"l  c #966163",
"z  c #897167",
"x  c #8C756C",
"c  c #8C7B75",
"v  c #947C75",
"b  c #AC6372",
"n  c #AA6976",
"m  c #A66E7A",
"M  c #BE6276",
"N  c #C05F73",
"B  c #C46275",
"V  c #C3677A",
"C  c #CA657A",
"Z  c #CC6A7E",
"A  c #D2677E",
"S  c #D5697F",
"D  c #98827A",
"F  c #A87981",
"G  c #AD7F89",
"H  c #B77181",
"J  c #BC7F8D",
"K  c #D46C81",
"L  c #DB6E85",
"P  c #C97A8A",
"I  c #D8768A",
"U  c #E2758B",
"Y  c #988782",
"T  c #988A86",
"R  c #9E9998",
"E  c #A18D87",
"W  c #AB858C",
"Q  c #A9888E",
"!  c #A5938D",
"~  c #A88D92",
"^  c #BC8994",
"/  c #A79795",
"(  c #A49D9B",
")  c #AA9D9D",
"_  c #B0999D",
"`  c #9FA09F",
"'  c #A9A19E",
"]  c #AE9EA2",
"[  c #B999A0",
"{  c #A5A4A4",
"}  c #ABA4A4",
"|  c #ADA7A8",
" . c #ACACAC",
".. c #B5A7A6",
"X. c #B3A8A5",
"o. c #B1ABAB",
"O. c #BBB1AD",
"+. c #B3B3B3",
"@. c #BBB5B3",
"#. c #BCBBBB",
"$. c #CA8A97",
"%. c #C68D98",
"&. c #D18A9A",
"*. c #E3869B",
"=. c #FB879F",
"-. c #D897A4",
";. c #F887A0",
":. c #F68CA1",
">. c #FC8CA4",
",. c #F992A8",
"<. c #FE94AA",
"1. c #FE99AE",
"2. c #FE9DB2",
"3. c #CEA2AA",
"4. c #C8ADB1",
"5. c #D0A9B1",
"6. c #E6A5B2",
"7. c #F3A5B5",
"8. c #FDA2B5",
"9. c #FEA6B9",
"0. c #F7AEBC",
"q. c #FDAABD",
"w. c #E2B1BA",
"e. c #C6C0BF",
"r. c #FEADC0",
"t. c #E9B8C2",
"y. c #FAB0C1",
"u. c #F4BAC6",
"i. c #F8B8C5",
"p. c #FCBBCA",
"a. c #C4C4C4",
"s. c #CDC4C4",
"d. c #CCCCCC",
"f. c #D6CCCD",
"g. c #D3D0CF",
"h. c #D4D4D4",
"j. c #D9D1D2",
"k. c #DCDCDC",
"l. c #F7C1CC",
"z. c #FBC3CE",
"x. c #FBC7D3",
"c. c #F2CCD3",
"v. c #FACBD6",
"b. c #FACDD8",
"n. c #E0D5D7",
"m. c #E9D5D8",
"M. c #FAD3DC",
"N. c #E3E3E3",
"B. c #EAE5E6",
"V. c #EEE7E8",
"C. c #EAE9E9",
"Z. c #ECEBEB",
"A. c #EFEFEF",
"S. c #F0E6E7",
"D. c #FAE2E6",
"F. c #FCE4EB",
"G. c #F0EFEF",
"H. c #FAEAED",
"J. c #F0F0EF",
"K. c #F2F2F2",
"L. c #F6F1F2",
"P. c #F6F6F5",
"I. c #FAF5F5",
"U. c #FAF7F8",
"Y. c #F7F8F8",
"T. c #FBF9FA",
"R. c #FCFCFC",
/* pixels */
"1 1 1 1 ; @ O O X * : * * 6 e v D i < > % = = O . = - < 3 5 1 > ",
"1 1 1 1 1 - O . X X o q ] h.N.K.Y.C.s.v : : < = . = : < < < 4 1 ",
"; ; ; 1 1 1 ; = $ : c a.N.J.P.R.R.R.T.J.O.8 : $ o - < < > > 1 , ",
"; - ; ; ; ; ; ; 0 ! h.B.A.P.R.R.R.I.I.R.P.s.u + + - < < ; : % > ",
"- : - $ O + + : E g.N.A.P.R.U.M.p.p.p.v.F.I.s.6 o $ : > > > > & ",
"- > : + . + : D a.k.C.K.U.I.z.9.9.q.q.r.y.b.L.e.: O O % > , , > ",
"= > : $ $ : k @.h.N.C.K.I.l.2.2.9.9.9.q.q.q.x.L.| $ O O % > > : ",
"= : = $ o 8 } a.h.N.C.K.D.8.1.2.2.8.9.9.q.9.q.b.C.x O O O % % > ",
": = $ $ $ c #.d.h.N.C.J.l.,.1.1.1.8.8.8.8.8.8.q.H.f.8 @ O O O : ",
"o X o o 9 { #.a.h.N.C.A.y.,.<.<.1.1.1.1.8.2.2.2.x.K.! > O . . % ",
". X # : c +.#.a.h.k.N.Z.y.:.>.<.<.1.1.1.1.1.1.1.r.I.h.0 = O X O ",
"+ % > 9 ( +.#.a.g.k.N.C.c.:.>.>.<.<.<.<.<.1.<.<.0.I.C.D > - $ + ",
"% 1 5 z  .+.+.a.d.h.k.C.V.7.;.:.=.>.<.<.<.<.<.<.l.Y.A.@.= = % + ",
"@ > 4 T  . .+.#.a.h.k.N.C.S.7.;.=.>.>.>.<.>.=.2.D.Y.K.h.8 + - < ",
"; - < (  .X.^ %.4.d.h.k.N.Z.S.u.,.=.=.=.=.>.8.M.Y.I.K.N.z : 3 3 ",
"1 @ 3 ' ' H B Z P 5.h.k.k.C.Z.A.V.c.u.q.u.v.L.U.T.P.K.N.E 5 3 - ",
"; > r { W g N V K I s.h.k.k.N.C.C.A.G.P.P.P.K.P.K.K.A.N...1 , ; ",
"> : u } n d h B K K 3.g.h.k.N.N.B.C.C.Z.A.K.K.L.A.A.C.N.O.% & % ",
"- > k } s d f h M V $.a.d.h.h.k.k.N.N.C.C.C.G.G.A.C.N.k.O.% & , ",
"$ - j } s a d h h B ^ #.a.d.h.k.k.k.k.N.N.B.B.m.t.6.5.n...@ % , ",
"% @ 9  .b a a s g N ^ o.#.a.d.d.h.h.k.k.k.j.w.*.U U L -.! . O O ",
"O + 3 | G a a a s f ~ o.+.#.a.a.d.g.g.h.f.-.L L L L L P v O O O ",
"O O : ' | b a a a m ) |  .+.#.#.a.a.d.s.&.K K K K A C V i & & & ",
"O # o Y  .] m b m ~ R {  . .+.+.#.#.#.%.C C C C C B B f 7 % % & ",
"O % - r  .+. .{ { { R ` { {  .+.+.+.[ h N N N N N g f t > O # 2 ",
"> > , > T +. . .{ { { } { { {  . .| H d f d f d d a p 7 > $ O O ",
"< 4 < > 3 } +.+. . .{ { { { { {  ._ a a a a a a a s r > > : $ O ",
"> < > = = e  .+.+. . .{ { { { { { Q a a a a a a s l 2 @ - > : O ",
"% - > % - % u o.+.+. . . . .{ { { W a a a d d b l 3 - @ $ : : = ",
"+ % ; ; - = @ 8 R +.+.+. . . . . .] s d d s b i & ; > > - : ; = ",
"O % ; % % % + O # k { +.+.+. .+. . .] G F l 7 & % % ; ; - = = + ",
". + % % % % % + @ > 3 y D / } ) ] ( Y z 6 # O % % @ + + O . . . "
};
