/* XPM */
static char *result[] = {
/* columns rows colors chars-per-pixel */
"32 32 165 2 ",
"   c #010301",
".  c #030902",
"X  c #0F0B07",
"o  c #0D0D0C",
"O  c #080503",
"+  c #110B07",
"@  c #150D09",
"#  c #180F0B",
"$  c #031302",
"%  c #021A00",
"&  c #1E110C",
"*  c #1B190B",
"=  c #111111",
"-  c #1E1613",
";  c #23140E",
":  c #29170F",
">  c #241610",
",  c #281711",
"<  c #271812",
"1  c #2B1A13",
"2  c #241F1D",
"3  c #331E16",
"4  c #341F19",
"5  c #1F210D",
"6  c #3C2216",
"7  c #3B231A",
"8  c #34241A",
"9  c #232323",
"0  c #44291E",
"q  c #542D1D",
"w  c #5A2F1C",
"e  c #5D321F",
"r  c #482D22",
"t  c #4C3125",
"y  c #5E3422",
"u  c #5F3924",
"i  c #51392E",
"p  c #623623",
"a  c #643926",
"s  c #6B3C26",
"d  c #653C29",
"f  c #6A3D2B",
"g  c #703F2E",
"h  c #0F4605",
"j  c #124507",
"k  c #114B06",
"l  c #0C5E03",
"z  c #0B5A06",
"x  c #086502",
"c  c #0A6C03",
"v  c #066400",
"b  c #097302",
"n  c #0A7D02",
"m  c #127D09",
"M  c #287323",
"N  c #4E5E37",
"B  c #66402C",
"V  c #6D412E",
"C  c #72432E",
"Z  c #6D4331",
"A  c #724532",
"S  c #784736",
"D  c #754935",
"F  c #7A4B35",
"G  c #764D3A",
"H  c #7B4C39",
"J  c #7E513C",
"K  c #5C4B45",
"L  c #685049",
"P  c #645D5B",
"I  c #67615F",
"U  c #706B69",
"Y  c #777777",
"T  c #8A7E78",
"R  c #0C8603",
"E  c #0B8C01",
"W  c #0D9C03",
"Q  c #119E06",
"!  c #0DA002",
"~  c #0EAB03",
"^  c #0FB503",
"/  c #10BC03",
"(  c #1AA810",
")  c #38AE30",
"_  c #40AF38",
"`  c #0FDD01",
"'  c #12D504",
"]  c #13DC04",
"[  c #0FE100",
"{  c #0FE900",
"}  c #13E504",
"|  c #13E903",
" . c #18E509",
".. c #0FFF00",
"X. c #14F703",
"o. c #15FF04",
"O. c #18FF07",
"+. c #1CFF0B",
"@. c #20FF0F",
"#. c #24FF14",
"$. c #27FF18",
"%. c #2AFF1B",
"&. c #21F211",
"*. c #2DDF20",
"=. c #2FFF20",
"-. c #32FF23",
";. c #37FF29",
":. c #3CFF2E",
">. c #3CE630",
",. c #3FFF31",
"<. c #42FF35",
"1. c #46FF39",
"2. c #49FF3C",
"3. c #4CF23B",
"4. c #44E738",
"5. c #64DA5B",
"6. c #4EFF41",
"7. c #53FE46",
"8. c #56FF4A",
"9. c #70DF68",
"0. c #6FFF64",
"q. c #74FF6A",
"w. c #88FF7F",
"e. c gray55",
"r. c #9C908A",
"t. c #A09C9A",
"y. c #98AA8F",
"u. c #A5A89C",
"i. c #A2A8A2",
"p. c #ADADAC",
"a. c #AAA7A5",
"s. c #B4B2B1",
"d. c #C1BBB9",
"f. c #92FF8A",
"g. c #AAD5A3",
"h. c #BAD5B8",
"j. c #B4FFAF",
"k. c #B3F6AF",
"l. c #BBE3B8",
"z. c #B5FFB0",
"x. c #BAFFB5",
"c. c #BCF7B8",
"v. c #C1FFBC",
"b. c #C7C6C6",
"n. c #CACACA",
"m. c #CAC4C4",
"M. c #D0CFCF",
"N. c #D5D0C6",
"B. c #D5D4D5",
"V. c #CCEBCA",
"C. c #CEFFCA",
"Z. c #C9FFC5",
"A. c #D1FFCD",
"S. c #D6FFD3",
"D. c #DCFFDA",
"F. c #E0FFDE",
"G. c #EAEAEA",
"H. c #E4FFE2",
"J. c #E8FFE6",
"K. c #EEFFEC",
"L. c #EEF1EA",
"P. c #F0FFEF",
"I. c gray97",
"U. c #F2FFF2",
"Y. c #FFFFFE",
/* pixels */
"F F F F C s p e p f g f 7 3 4 4 7 4 7 0 d B B a u B Z A G J H A ",
"F F F F F C s e y y y t X             @ d Z A B u a Z Z D F S H ",
"C C C F G F C s f d 0 4 P Y Y Y Y Y Y P 8 r Z d u V G D A A S S ",
"C V C C C A C V G Z @ = M.Y.Y.Y.Y.Y.Y.M.= # Z p p V D D g V C A ",
"V Z Z d p p B a t 8 j z 9.f.K.Y.Y.Y.Y.G.e.U 7 6 y d Z Z A A A A ",
"V A Z d e a V V &   n ! | %.D.Y.Y.Y.Y.Y.Y.b.o @ e p d f A S S A ",
"f Z Z d u Z r 8 j l ^ ' X.%.D.Y.Y.Y.Y.J.f.5.z h 1 6 p p f A A A ",
"B Z B d u Z ; . b ! | O.o.%.D.Y.Y.Y.Y.S.+.{ ! b   & p y p s V f ",
"Z B d d d u &   b W | O.o.%.D.Y.Y.Y.Y.S.$.| W b . * V d a p a V ",
"u y u u d y &   b W | O.o.%.D.Y.Y.Y.Y.S.$.| W b   > D A a e e d ",
"y y a f 6 ; j x / ] X.@.f.j.K.Y.Y.Y.Y.S.$.X.] / x k 1 r V p u p ",
"a d D D ;   c W  .O.O.$.S.Y.Y.Y.Y.Y.Y.S.$.O.O.} W c   ; V V B a ",
"f D J D ;   N g.k.j.j.x.K.Y.Y.Y.Y.Y.Y.K.x.f.+.} W c   ; d V B p ",
"s A F A > O a.Y.Y.Y.Y.Y.I.Y.Y.L.N.Y.Y.Y.Y.C.%. .Q c   ; y p Z Z ",
"C s 6 ; i u.G.Y.Y.Y.Y.U.q.8.8.7.3.0.K.Y.Y.U.v.c.l.h.s.K * 7 G G ",
"H s :   T I.Y.Y.Y.Y.I.J.:...o...o.-.D.Y.Y.Y.Y.Y.Y.Y.Y.t.  1 G Z ",
"C A , O p.Y.Y.Y.Y.U.q.1.+.o.o.o.o.+.1.0.U.Y.Y.Y.Y.Y.Y.p.  1 S A ",
"g A 1   p.Y.Y.Y.Y.U.<...O.o.O.O.o.o.o.:.K.Y.Y.Y.U.P.I.i.  , g f ",
"V A ,   p.Y.Y.Y.Y.U.1.o.O.o.O.o.o.O.o.:.K.Y.Y.A.6.4._ M   > A S ",
"f f >   i.U.K.K.Y.U.1...o.O.o.o.o.o.o.,.K.Y.U.x.+.[ W v   : g A ",
"f s >   M ) >.<.C.U.1.o.o.O.o.O.O.o.o.:.K.S.2.-.O.} W x   ; p e ",
"p p , O l E ` O.z.H.7.$.O.O.O.o.o.O.$.6.U.C.+.o.X.' E x O : p p ",
"p p y q 5 % / O.=.<.x.C.;.o.o.o.o.-.Z.H.Y.C.#.| ~ n % > p d g A ",
"p p p f <   ~ X.o.@.C.U.8.%.=.-.%.6.K.Y.Y.C.#.} W x   > Z f f g ",
"p f Z V >   b ~ | #.C.Y.J.F.H.H.H.H.Y.Y.Y.C.@.} W c   < Z p p A ",
"A A A A 3 X l R ' &.C.Y.Y.Y.Y.Y.Y.Y.Y.Y.Y.A.<.*.E z X 4 Z d p d ",
"S H D C d d * % n ( V.Y.Y.Y.Y.Y.Y.Y.Y.Y.Y.Y.I.u.$ * d f A Z d y ",
"A D A V f f 1 + l m y.B.I.Y.Y.Y.Y.Y.Y.I.B.B.m.L # 3 g f V A Z d ",
"f V A f V f s u &   o 9 B.Y.Y.Y.Y.Y.I.d.2 = o & a V C a B Z Z B ",
"p f A A V f f p , + @ 2 a.n.n.n.n.b.r.i # # @ , p C A A V V V B ",
"p f g f f f d p y a Z g - o o o o o O @ q e p s f f C C V V B a ",
"p a f f f f f a d Z D f > X X X X X X ; e p p a g s a p a e e e "
};
