/* XPM */
static char *_cc665a9c3e74f13a599e64db03d72a7tMb4BILRPqjEruqo[] = {
/* columns rows colors chars-per-pixel */
"32 32 178 2 ",
"   c None",
".  c black",
"X  c #010000",
"o  c #000100",
"O  c #010300",
"+  c #050000",
"@  c #010400",
"#  c #0E0101",
"$  c #020801",
"%  c #030901",
"&  c #030A02",
"*  c #030B02",
"=  c #0D0D02",
"-  c #0D0D0C",
";  c #100101",
":  c #180202",
">  c #1B0202",
",  c #1E0301",
"<  c #1E0102",
"1  c #1C0202",
"2  c #1D0202",
"3  c #1E0202",
"4  c #1E0302",
"5  c #1E0203",
"6  c #1E0303",
"7  c #051003",
"8  c #041103",
"9  c #051103",
"0  c #041303",
"q  c #061203",
"w  c #061303",
"e  c #051504",
"r  c #061404",
"t  c #071404",
"y  c #071504",
"u  c #091D05",
"i  c #0A1D06",
"p  c #0A1E06",
"a  c #0A1F06",
"s  c #2A0404",
"d  c #2D0404",
"f  c #2F0404",
"g  c #300404",
"h  c #2A1C03",
"j  c #0A2006",
"k  c #0B2106",
"l  c #0B2206",
"z  c #11320A",
"x  c #11330A",
"c  c #2F2E08",
"v  c #2F2F2A",
"b  c #490707",
"n  c #483905",
"m  c #2A7F19",
"M  c #B51111",
"N  c #B91212",
"B  c #CE1414",
"V  c #D11414",
"C  c #D21414",
"Z  c #D31414",
"A  c #D41414",
"S  c #DF1515",
"D  c #E0170D",
"F  c #E0180B",
"G  c #E01513",
"H  c #E01515",
"J  c #E01516",
"K  c #E11516",
"L  c #E21516",
"P  c #E21616",
"I  c #E61516",
"U  c #E41616",
"Y  c #E61616",
"T  c #EE1717",
"R  c #F01717",
"E  c #F91718",
"W  c #FC1618",
"Q  c #FC1718",
"!  c #FF1719",
"~  c #F91818",
"^  c #FF1819",
"/  c #FF1919",
"(  c #FF1A19",
")  c #FF1B19",
"_  c #FF1E18",
"`  c #FF1F18",
"'  c #FF290F",
"]  c #FF2A0E",
"[  c #FF2716",
"{  c #FF2717",
"}  c #FF2018",
"|  c #FF2418",
" . c #FF2518",
".. c #FF2618",
"X. c #FF2B18",
"o. c #FF2E18",
"O. c #FF3C17",
"+. c #FF6815",
"@. c #FF6915",
"#. c #E17B11",
"$. c #E57F11",
"%. c #E57F12",
"&. c #FF7414",
"*. c #FF7514",
"=. c #FF7D13",
"-. c #FF7A14",
";. c #FF7B14",
":. c #FF7C14",
">. c #FF7D14",
",. c #2B821A",
"<. c #30901D",
"1. c #30911D",
"2. c #31921D",
"3. c #31931D",
"4. c #31941D",
"5. c #32961E",
"6. c #349D1F",
"7. c #349E1F",
"8. c #359E1F",
"9. c #359F1F",
"0. c #359F20",
"q. c #35A020",
"w. c #36A120",
"e. c #36A220",
"r. c #38A721",
"t. c #38A821",
"y. c #38A922",
"u. c #3AAE23",
"i. c #3BB023",
"p. c #3BB123",
"a. c #3BB223",
"s. c #3CB224",
"d. c #3CB324",
"f. c #3CB424",
"g. c #3CB524",
"h. c #3DB624",
"j. c #FF8114",
"k. c #FF8214",
"l. c #FF8314",
"z. c #FF8D13",
"x. c #F99213",
"c. c #FF9013",
"v. c #FF9113",
"b. c #FF9513",
"n. c #FC9613",
"m. c #FC9713",
"M. c #FF9613",
"N. c #FF9014",
"B. c #FF9813",
"V. c #FF9C13",
"C. c #FF9E15",
"Z. c #FFAA18",
"A. c #D4C00D",
"S. c #F0DB0F",
"D. c #F0DC0F",
"F. c #FFD511",
"G. c #FFD811",
"H. c #FFE40F",
"J. c #FFE510",
"K. c #FFEA10",
"L. c #FFEC10",
"P. c #CEC925",
"I. c #EEE82B",
"U. c #EEE92B",
"Y. c #FFED20",
"T. c #FFE729",
"R. c #FFF52D",
"E. c #FFF92E",
"W. c #FFFB2F",
"Q. c #FFEE3A",
"!. c #CECDB8",
"~. c #CECDB9",
"^. c #FFFBBD",
"/. c #EEEDD5",
"(. c #EEEDD7",
"). c #FFFFD9",
"_. c #FFFFE5",
"`. c #FFFFE7",
/* pixels */
"                . . . . . . . . . . . . . . . .                 ",
"                3 3 3 3 3 3 3 6 6 3 4 3 3 3 3 3                 ",
"        . . . f Z K S K K S J J K G F D J J K N ; . . .         ",
"        3 3 > b R ) ............{ [ ' ' { | ) A f 3 3 3         ",
"    . f Z K S I Q X.&.:.=.=.;.;.:.;.%.=.;.+._ E K K K N ; .     ",
"    > b R ) ......O.z.x.#.$.m.m.B.x.#.j.n.l.o.....| ) A f >     ",
". f Z I Q X.&.:.;.z.J.A.h n S.K.L.A.h n S.F.l.;.:.+._ E I N ; . ",
". g T ) Q o.l.z.m.Z.R.P.= c I.E.E.P.= c U.T.C.m.z.&.| Q ) B ; . ",
". g T ) Q o.l.V.J.Q.).~.- v (._._.~.- v (.^.Y.G.v.&.| Q ) B # . ",
". g T ) Q o.:.C.J.Q.).~.- v (._.`.~.- v (.^.Y.F.v.&._ Q Q Z ; . ",
". g T Q Q o.l.z.M.Z.R.P.= c I.W.W.P.= c U.T.C.M.z.&.| ) ) B ; . ",
". g A I Q o.&.;.;.z.J.A.h n S.K.L.A.h n D.F.l.;.:.+._ ~ U N ; . ",
"    > b R ) ......O.z.x.#.j.M.M.V.x.#.$.n.l.o.....| ) Z f 6     ",
"    . f Z K S I Q X.&.;.:.%.;.;.;.;.:.;.;.+._ E K K K N # .     ",
"        3 6 3 b R ) | ......................) A f 3 6 3         ",
"        . . . s Z J S K S J J J J J J S K K K M # . . .         ",
"            . + 3 3 3 3 3 3 3 3 6 3 3 6 3 3 6 > . .             ",
"            . . . . . . . @ 0 y r 8 . . . . . . . .             ",
"    . . . .             . a 1.8.0.m & .             . . . .     ",
"    y y r r             . l y.h.h.1.& .             r y y r     ",
". k 5.8.e.,.& . . .     . l r.s.h.<.* .     . . . l 1.0.q.,.* . ",
". k y.f.h.5.a q . .     . l r.s.g.<.& .     . @ q x y.h.h.1.* . ",
". l r.a.s.u.q.m * . . . . l r.d.g.<.& . . . . a 1.q.i.s.h.1.* . ",
". l r.d.d.s.h.5.a r r r . l r.d.g.<.& @ r r r x y.h.s.i.h.1.* . ",
". l y.d.d.d.d.u.q.0.0.m & l r.d.f.<.* u 1.0.0.q.a.s.g.i.h.1.* . ",
". l 5.q.a.d.a.d.i.h.h.<.& a r.d.f.<.$ k y.h.i.h.h.s.i.u.q.,.* . ",
"    q z y.f.d.d.g.i.h.1.& a r.d.f.1.& a y.a.a.i.s.g.h.5.l r     ",
"    . l 1.6.8.e.i.h.i.1.a z r.d.d.5.a z y.d.h.u.8.8.8.,.& .     ",
"        y r y x y.f.a.a.q.q.a.h.d.u.8.e.a.i.h.5.l r r r         ",
"        . . . l 5.8.8.6.8.8.6.8.8.8.8.8.8.0.q.,.& . . .         ",
"                y y y y r y y y y r y y y y r r                 ",
"                . . . . . . . . . . . . . . . .                 "
};
