/* XPM */
static char *result[] = {
/* columns rows colors chars-per-pixel */
"32 32 196 2 ",
"   c #020101",
".  c #0B0101",
"X  c #0C0C0B",
"o  c #140204",
"O  c #140F0C",
"+  c #12100F",
"@  c #121111",
"#  c #1B1B1A",
"$  c #281A15",
"%  c #2B1A14",
"&  c #331E14",
"*  c #21201F",
"=  c #2A211E",
"-  c #3C271E",
";  c #292524",
":  c #342926",
">  c #353230",
",  c #470808",
"<  c #530909",
"1  c #760D0C",
"2  c #7E0E0D",
"3  c #700D11",
"4  c #5A2F1C",
"5  c #5E321F",
"6  c #602F1E",
"7  c #542F2C",
"8  c #46332C",
"9  c #5E3521",
"0  c #5C3927",
"q  c #59372A",
"w  c #4F3932",
"e  c #6D2B29",
"r  c #782E23",
"t  c #633623",
"y  c #6D3725",
"u  c #643926",
"i  c #633629",
"p  c #653C2A",
"a  c #6A3D2B",
"s  c #743625",
"d  c #793427",
"f  c #743628",
"g  c #7D3328",
"h  c #743C2C",
"j  c #793B2E",
"k  c #7C3D31",
"l  c #66402C",
"z  c #6D412E",
"x  c #72432F",
"c  c #6D4432",
"v  c #674538",
"b  c #724532",
"n  c #754935",
"m  c #7B4B35",
"M  c #784A38",
"N  c #7A4C39",
"B  c #4D4945",
"V  c #504A47",
"C  c #5B544F",
"Z  c #5D5853",
"A  c #774F40",
"S  c #66514B",
"D  c #6A534C",
"F  c #6A5652",
"G  c #6A5B55",
"H  c #785E55",
"J  c #7E655D",
"K  c #6A6560",
"L  c #756763",
"P  c #736B65",
"I  c #77706A",
"U  c #7A736D",
"Y  c #7F7872",
"T  c #840E0E",
"R  c #92100F",
"E  c #980A17",
"W  c #85151A",
"Q  c #9A1419",
"!  c #B3091F",
"~  c #BC0D1E",
"^  c #A71216",
"/  c #AA121D",
"(  c #B11315",
")  c #BB141D",
"_  c #AE251C",
"`  c #921420",
"'  c #AD0724",
"]  c #A20D23",
"[  c #AC0B25",
"{  c #B40A22",
"}  c #BE0D20",
"|  c #AB1324",
" . c #A31B22",
".. c #AA1A26",
"X. c #A61D29",
"o. c #B31322",
"O. c #B31924",
"+. c #BB1B22",
"@. c #842624",
"#. c #8D2222",
"$. c #872B27",
"%. c #932623",
"&. c #9C2323",
"*. c #9D2A25",
"=. c #932529",
"-. c #9C2529",
";. c #922B2A",
":. c #9A2C2B",
">. c #873A2C",
",. c #92362D",
"<. c #9E302E",
"1. c #973131",
"2. c #98383A",
"3. c #AA2425",
"4. c #A52C27",
"5. c #B12123",
"6. c #BD2422",
"7. c #C30F1E",
"8. c #CC1515",
"9. c #C31817",
"0. c #C5121C",
"q. c #CC121D",
"w. c #D31414",
"e. c #DA1616",
"r. c #DD1817",
"t. c #D3141A",
"y. c #DA1719",
"u. c #DE1918",
"i. c #C4251E",
"p. c #C01120",
"a. c #D71B22",
"s. c #C72A22",
"d. c #DA2C29",
"f. c #D6302C",
"g. c #DE3330",
"h. c #DF3834",
"j. c #E02220",
"k. c #E12C2A",
"l. c #E23533",
"z. c #E33B39",
"x. c #814435",
"c. c #E2423E",
"v. c #864D40",
"b. c #846457",
"n. c #94655D",
"m. c #E14742",
"M. c #E64B46",
"N. c #E7504C",
"B. c #DC605A",
"V. c #EA6B65",
"C. c #EB716B",
"Z. c #8B837C",
"A. c #95857E",
"S. c #948C86",
"D. c #9A948F",
"F. c #A78E85",
"G. c #A39A92",
"H. c #ADA49C",
"J. c #B0A69D",
"K. c #A9A2A0",
"L. c #B7ABA2",
"P. c #BFB3A9",
"I. c #C2948F",
"U. c #EC8F87",
"Y. c #F08F88",
"T. c #EE948D",
"R. c #F1978F",
"E. c #EDA69A",
"W. c #C7B1AB",
"Q. c #C8BDB3",
"!. c #F5B7AD",
"~. c #D2C7BC",
"^. c #F3C4B4",
"/. c #F7C6BA",
"(. c #F5C9B9",
"). c #D9CDC2",
"_. c #DBD2C9",
"`. c #D8D6D4",
"'. c #EBDAC9",
"]. c #F3DBC6",
"[. c #F6D4C8",
"{. c #F3DDCA",
"}. c #EBDED2",
"|. c #F8DAD1",
" X c #F5E0CE",
".X c #ECE0D6",
"XX c #F6E3D2",
"oX c #F9E4D4",
"OX c #FCE7DA",
"+X c #F6E8DC",
"@X c #FBEBDD",
"#X c gray92",
"$X c #FDEFE2",
"%X c #FEF0E3",
"&X c #FBF2EB",
"*X c #F6F6F5",
/* pixels */
"m m m m x y t t i a a a i i p v M h c b p l l t 9 l z c N N N m ",
"m m m m m x u 5 9 9 e @.#.=.=.;.-.4.4.` $.c n l 5 l b n n n M N ",
"x x x m m m x l a g =...{ o.| [ [ | O. ./ 5.n p 9 l n n b b n M ",
"x z x x x x x x x.1.O.0.q.t.t.7.{ ' [ /  .+.! %.u c n n x z h b ",
"z b z p u t l g <...p.t.w.w.e.e.t.} ' ' | 4.+.6.t p c c b b b h ",
"z b c u 5 u >.,...7.t.e.w.w.e.w.w.t.~ ' ' / &.a.a.t u a b n n b ",
"l c c p i k <.3.7.w.w.w.w.w.w.w.w.w.8.7.~ 0./ Q ) 6.t t a b b b ",
"l c l u i k X.} e.e.w.w.w.w.w.w.w.w.w.e.r.e.0.^ | +.s 5 t a z c ",
"c l p p d @.W E ^ 9.e.w.e.w.w.w.w.w.w.e.u.8.^ R W *.,.a u u a z ",
"0 9 t d &.W o .   2 u.r.r.u.r.r.w.w.w.e.u.R . . X 3 3.>.u 4 5 u ",
"5 6 r ;.) ( < 7 C e R 9.u.u.u.u.r.r.r.8.R $.C 7 , 2 ] $.g t 9 u ",
"u h :.| 0.u.r.C.@XP   T u.u.u.u.u.u.r.( o V +XT.t.~ ! Q #.h p u ",
"a x.4.) w.e.u.C.%XI   & 1 1 1 1 1 1 1 3   B $XR.t.{ ' ] W y p i ",
"y >.6.8.w.e.r.C.%XI                       B +XR.y.7.' ' Q d c n ",
">.*.9.w.w.e.r.C.%XI   G S.A.$.T T #.A.K . B +XR.r.y.7.' ] =.,.M ",
"<.| 0.w.w.w.r.C.%XI   S.$XOXN.u.r.l.|.Q.+ V +XR.u.u.y.7.} | ..h ",
"-.[ { w.w.w.r.C.%X~.G.~.$XOXN.u.r.l.|. XG.P.@XR.u.u.r.e.t.} ' j ",
":.[ { 8.w.w.u.V.@XOXOXOXOXoXN.u.u.l.[.OXOXOXOXR.u.r.r.r.r.7.{ f ",
"-.[ ' 0.e.r.u.g.B.B.B.B.B.B.g.u.u.j.M.N.N.N.N.z.e.w.w.w.t.t.7.>.",
";.-...o.w.r.u.r.u.u.d.l.c.c.M.M.M.M.M.c.k.d.u.r.w.w.w.w.8.9...b ",
"y j 2.+.y.u.u.u.u.d.U.^.^.^.^.^.(.(.(.(./.Y.u.u.r.y.r.t.) %.r 6 ",
"9 p s _ s.f.h.l.l.m.E. X X].].].].].].]. X!.z.l.f.s.i.5.*.s t t ",
"t t t y v.I.(.(.(.(.(.XX X X{. X X].]. X X@X|.[.W.n.j x x h x x ",
"t u u y N F..X$X+X(. XoX@X@X@X@X@X@X@X@X$X$X%X_.K.J c b b a a a ",
"t y c x A F.}.OX{.].].XX$X%X$X$X$X$X$X$X%X%X&XG.> 8 8 l c u i n ",
"b n b b H L.}.XX XXX].].XX@X%X%X%X%X%X}.L.J.H.P X # : w 0 i 9 u ",
"M N M z b.P.~.J.K._.XX'.].XX%X%X%X%X%XQ.@   .       @ ; - p l 9 ",
"b b b z b.P.Z.; # K P.'. XXX$X%X$X.XD.U X               % l z p ",
"a z b a c L V @   X > Y ).$X%X%X$X).#                 O = p z l ",
"u a b x a q 8 ; X     + Z ~.$X&X&X_.* + X .       X # 8 9 l z l ",
"t a z a z a q : : $ % % % C `.*X*X`.; = $ $ $ % % & : q c l p p ",
"6 u a a a a u v G H D F G S.`.*X*X#XD.P S F F S F F l 5 t 5 5 5 "
};
