/* XPM */
static char *result[] = {
/* columns rows colors chars-per-pixel */
"32 32 188 2 ",
"   c #020101",
".  c #090202",
"X  c #090807",
"o  c #0C0C0B",
"O  c #140304",
"+  c #17110E",
"@  c #131313",
"#  c #1C1B1A",
"$  c #25140D",
"%  c #241813",
"&  c #291914",
"*  c #2E1F1A",
"=  c #2A211E",
"-  c #3B241A",
";  c #252321",
":  c #342825",
">  c #3E3B38",
",  c #4E0709",
"<  c #510908",
"1  c #760D0C",
"2  c #751517",
"3  c #41271D",
"4  c #5D2E1C",
"5  c #5D321F",
"6  c #77261E",
"7  c #45332D",
"8  c #5E3422",
"9  c #5F3924",
"0  c #57332C",
"q  c #5D3A2D",
"w  c #423E3B",
"e  c #503931",
"r  c #792C24",
"t  c #633624",
"y  c #693323",
"u  c #643926",
"i  c #6A3B27",
"p  c #633729",
"a  c #653C29",
"s  c #6A3E2B",
"d  c #7A3125",
"f  c #763628",
"g  c #7B3529",
"h  c #733B2A",
"j  c #7E3E32",
"k  c #66402C",
"l  c #6D412E",
"z  c #72432E",
"x  c #614135",
"c  c #6D4331",
"v  c #724532",
"b  c #7C4534",
"n  c #764936",
"m  c #7B4B35",
"M  c #774C3A",
"N  c #7B4C3A",
"B  c #59534F",
"V  c #5B5550",
"C  c #644B45",
"Z  c #67524C",
"A  c #775244",
"S  c #6C5750",
"D  c #6F5B55",
"F  c #6F5F5A",
"G  c #735F58",
"H  c #69635D",
"J  c #7C6057",
"K  c #6C6660",
"L  c #756761",
"P  c #746E68",
"I  c #7A746E",
"U  c #840E0E",
"Y  c #92100F",
"T  c #8B0A15",
"R  c #9B0B19",
"E  c #86161B",
"W  c #9C1111",
"Q  c #92131D",
"!  c #AF081E",
"~  c #BC0C1F",
"^  c #A71819",
"/  c #B2171F",
"(  c #BE1C1C",
")  c #98221F",
"_  c #B4281E",
"`  c #911F23",
"'  c #AE0724",
"]  c #A70824",
"[  c #AD0B25",
"{  c #B20B24",
"}  c #BB0D21",
"|  c #AC1425",
" . c #A51925",
".. c #B41424",
"X. c #BB1A23",
"o. c #852421",
"O. c #872B27",
"+. c #8B2925",
"@. c #952524",
"#. c #982926",
"$. c #9D2429",
"%. c #952B2A",
"&. c #9B2B2A",
"*. c #863528",
"=. c #843E30",
"-. c #8B3E31",
";. c #983136",
":. c #A62727",
">. c #C20E1E",
",. c #C71716",
"<. c #CC1415",
"1. c #C4111C",
"2. c #CC121B",
"3. c #D31413",
"4. c #DA1616",
"5. c #DD1817",
"6. c #D41419",
"7. c #D91619",
"8. c #DE1918",
"9. c #C4261E",
"0. c #DB201E",
"q. c #C00E20",
"w. c #C2172B",
"e. c #C82922",
"r. c #DB2C29",
"t. c #D5302C",
"y. c #E12523",
"u. c #E12B29",
"i. c #E23432",
"p. c #E33836",
"a. c #E43E3A",
"s. c #884537",
"d. c #E2423E",
"f. c #8E574C",
"g. c #896B5E",
"h. c #96655C",
"j. c #8F7366",
"k. c #DD5B55",
"l. c #E44742",
"z. c #E54B46",
"x. c #E64F4B",
"c. c #E6514C",
"v. c #DC605A",
"b. c #EC7C76",
"n. c #8A827C",
"m. c #94847C",
"M. c #EE817A",
"N. c #958E88",
"B. c #9C9695",
"V. c #AD988F",
"C. c #A59C94",
"Z. c #B09E96",
"A. c #ACA49B",
"S. c #B1A79E",
"D. c #B2A89F",
"F. c #C79A96",
"G. c #EF8B83",
"H. c #EE9A91",
"J. c #F2A69D",
"K. c #C7A8A6",
"L. c #C1B5AC",
"P. c #C7BDB3",
"I. c #F1BAAC",
"U. c #D3C8BD",
"Y. c #F3C5B5",
"T. c #F5C6BC",
"R. c #F5C9BA",
"E. c #DFDEDE",
"W. c #FACCC2",
"Q. c #E7D2CA",
"!. c #E2D6CA",
"~. c #E7DACE",
"^. c #ECDAC9",
"/. c #F3DBC6",
"(. c #F3DDC9",
"). c #FBD9CD",
"_. c #FBDCD0",
"`. c #F5E0CE",
"'. c #EEE2D7",
"]. c #F5E3D2",
"[. c #F9E5D5",
"{. c #F0E5DC",
"}. c #FCE6DB",
"|. c #FBEBDD",
" X c #FCEEE2",
".X c #FEF0E3",
"XX c #FBF2EB",
"oX c #F6F6F5",
/* pixels */
"m m m m z i t t t a s s p p a c b h c v s s s 9 9 q c c N N N m ",
"m m m m m l t 5 8 t q 4 6 @.#.%.%.%.%. .@.j n s 9 k c v n n n n ",
"z z z n m m z k a a u f ` / [ [ [ | ..{ [ | -.a 8 l n n v v b M ",
"l z z z z z z z M n -.&.| ' ' } 1.2.6.6.2.} [ #.u l n n c v h v ",
"l v l a 9 9 k i s.s.&.| ' ' ~ 6.7.8.3.3.3.1.{ ..r s l c v v v h ",
"l v c a 5 u l z s.#.^ [ ' ~ 2.3.3.4.3.3.3.7.q.{ w.g i s v n n v ",
"s c c a u l m s.#.^ >.>.>.2.3.3.3.3.<.3.3.4.6.>.{ ..r t s v v v ",
"k c k 9 u z s.:.^ 1.4.5.4.3.3.3.3.3.3.3.3.3.4.4.q.[ O.t y a s c ",
"c x a a i *.@.E T W ,.5.4.3.3.3.3.4.3.4.4.4.<.W W E O.*.p p a c ",
"9 8 8 u d  .2 O . . U 5.5.4.3.3.4.5.5.8.5.8.Y . . O 2 :.d 4 8 u ",
"5 5 t g o.R T , 0 V r Y ,.5.4.8.5.5.5.8.,.Y r V 0 , W X.#.r y u ",
"i s z O.Q ! } 2.b.|.F . W 8.8.8.8.8.5.5.W . V |.G.7.8.2...@.h t ",
"i m m o.R ' { 2.b. XH   , 1 1 1 1 1 1 1 <   V |.G.8.5.3.1. .f u ",
"i v =.` ] ' q.7.b. XH                       V  XG.8.4.3.<.( *.v ",
"z +.@. .' q.7.8.b. XK   H m.O.U U o.m.N.H   V  XG.8.5.3.3.,.:.s.",
"m | { ~ q.7.8.8.b. XK X S.[.l.8.8.a._.|.D.X V  XG.8.4.3.<.1.| :.",
"z ' } 6.7.5.8.5.b..XP.C.^.[.z.8.8.a._..X!.C.L..XG.8.4.<.3.~ ] $.",
"c { ~ 4.5.5.5.5.b.}.}.}.}._.l.8.8.a.).}.|.[.[.|.M.8.4.3.<.~ ] $.",
"l 1.<.3.3.3.4.4.i.z.x.c.c.x.y.8.8.r.k.v.v.v.v.v.d.8.4.4.2.{ [ :.",
"z  .9.<.<.3.<.3.5.8.y.u.d.z.z.x.z.z.d.d.i.r.0.0.8.8.8.7.} | ` %.",
"i g %./ 2.4.4.4.5.8.M.T.Y.R.R.R.Y.Y.Y.Y.Y.H.t.8.8.8.8.5.X.;.f y ",
"t t y ) / 9.e.t.i.p.J.[./././././././.`./.I.z.p.i.i.t.9._ *.p t ",
"5 t t y h s.h.K.Q._.}.[.`././.(.`.`.`.`.`.R.R.R.W.W.F.f.j v s v ",
"t t i s n N G B.!..X.X}.|.|.}.|.|. X|.|.[./.`.].|.{.V.M l s s h ",
"i i c l a 7 7 : n. X X.X.X X X X X.X X X[././.(.].'.Z.A l t u c ",
"v v v a e : # @ B A.A.D.~..X.X.X.X.X|.].(.^.].`.].'.L.g.v s u u ",
"n N c - ; #       X X o D. X.X.X.X X[.`.^.].!.D.A.U.P.g.n c s 8 ",
"v v k - X               H B.~..X.X X[.^.~.L.I ; # I L.j.k v l u ",
"a c a - +                 o P..X.X.X X!.n.> o   @ w H A s c c k ",
"i s l q 3 % o X     X X @ o U.oXXX XU.P #     o = 7 q l l l l k ",
"t i c s q - * % $ & = * = ; P.oXoXE.H & $ $ & : : 0 z v l k k u ",
"t t s s a x S Z Z S J S L N.E.oXoX{.B.H C C Z D C t u t u 5 5 5 "
};
