/* XPM */
static char *result[] = {
/* columns rows colors chars-per-pixel */
"32 32 32 1 ",
"  c #552A17",
". c #5B2F1D",
"X c #5D321E",
"o c #60311F",
"O c #582E20",
"+ c #5E3421",
"@ c #5F3924",
"# c #623623",
"$ c #683726",
"% c #653926",
"& c #6A3B26",
"* c #623729",
"= c #653B2A",
"- c #6A3D2B",
"; c #703F2E",
": c #6B3F32",
"> c #66402C",
", c #6D412E",
"< c #71422E",
"1 c #674031",
"2 c #6E4331",
"3 c #6F4936",
"4 c #724532",
"5 c #784736",
"6 c #754936",
"7 c #7A4B35",
"8 c #754B3A",
"9 c #7A4C3A",
"0 c #7D513E",
"q c #7F5141",
"w c #804F3E",
"e c #815441",
/* pixels */
"77777&o%#=2:*@::8;;;-=>X@>>67074",
"7777<<&o++@OO+*:::;;>66>X>237697",
"<<4774<>:***@@**;;5--,6=o,764455",
"<<<<47<<8543q:*O-<4:>2,@>>37<,;4",
",2,=o@>>999qe9-o##;--46#X>,,444-",
",62%X%,49559995<##--->>@X#=-4554",
">22=>>7044455599;#$&%#*X=%#*-454",
">2>@@2664444;-<5-##=%#=->>%o#=,,",
"2>==o>,,74,,;&&&%8# ---9w7,-%#=,",
"@@@@>@>,,,&&;4;$%6,-84&-6794*.X=",
"XX*>>oo>,--,:;$O%,8895&#><78>oX%",
"&>26<@@X&&=-;:-*=%>6455&4<,<4,>%",
"-7w7<&&X+#*===*:>+%>-49;w7,,,>,%",
"&477<73>#*:=*+@:,X#>-45;4<,oX%,2",
"<<<<7777=22:=*:*3##=-<<-&&>o>288",
"woow7<<7*=23338q9-X%;<4<&$o@<082",
"<444,%%,#%,498896,oX#>,%X%,7776,",
"<444,-&%#-48884,<84-#=>>X%><,<-<",
",<<<<,-o<4<-&-<,;57<@X@@X>,>-;45",
",,,,-,-$<84%#-,<74=%%%@X>>,,&=;4",
"&,-oo%--#,44<<,-9;#o-,2>44>%#X#o",
"o%oXX%,-#&,46<,,;&#%>69q,>-%$$#$",
"oo%o,6<$,#o%--,<$##-,660->>,,<,<",
"%%%,7w8#-XX-,%%=-#$,9862>6854--,",
"%,,,46764,oooo%<=->245<=7588,#*6",
"4474,46804,oo,-%24,245794,,5<%##",
"776<,4<<<<-o>76=>>--245984<42,>X",
"446>>,,,%%%-7006%%#=-44;44<->6,>",
"-,<,,,&-&%,806,6-###-44;,<,=><2>",
"%,<<,-&%o%<004,2,>#X$&;;$<4<<,,>",
"#-,-,-&##=4646662>=###$;&;<42>,%",
"o%-----%=,76<476>26>$o#&&&%%@XXX"
};
