/* XPM */
static char *a6c9285211ad49a98824f2efb8569951XbvazWZvEu74a4bb[] = {
/* columns rows colors chars-per-pixel */
"32 32 180 2 ",
"   c None",
".  c #010101",
"X  c #0A0402",
"o  c #020A03",
"O  c #0C0C0C",
"+  c #1B0404",
"@  c #120A01",
"#  c #1B0B05",
"$  c #110D0A",
"%  c #160601",
"&  c #051306",
"*  c #091009",
"=  c #071A08",
"-  c #0B1D0C",
";  c #15110D",
":  c #1A130C",
">  c #161809",
",  c #1C1303",
"<  c #100F10",
"1  c #0F1F10",
"2  c #141314",
"3  c #1C1B1C",
"4  c #1C1813",
"5  c #240703",
"6  c #210B04",
"7  c #220909",
"8  c #290E06",
"9  c #330506",
"0  c #221304",
"q  c #2C1404",
"w  c #231608",
"e  c #381109",
"r  c #351D08",
"t  c #241C14",
"y  c #0A250C",
"u  c #0C2B0E",
"i  c #0F3412",
"p  c #103413",
"a  c #133A15",
"s  c #24240D",
"d  c #292D0D",
"f  c #3B230A",
"g  c #2C2116",
"h  c #2B2218",
"j  c #34291D",
"k  c #382919",
"l  c #2C2C2C",
"z  c gray13",
"x  c #372B20",
"c  c #3D2E20",
"v  c #363536",
"b  c gray23",
"n  c #480D08",
"m  c #421908",
"M  c #4A1807",
"N  c #531D0A",
"B  c #5D170B",
"V  c #64170D",
"C  c #621A0C",
"Z  c #6F150D",
"A  c #661613",
"S  c #781612",
"D  c #761F14",
"F  c #452504",
"G  c #5D220B",
"H  c #492E11",
"J  c #5F3F1C",
"K  c #63220E",
"L  c #6B2011",
"P  c #433323",
"I  c #4D3C2A",
"U  c #453729",
"Y  c #573C20",
"T  c #523E2A",
"R  c #134216",
"E  c #154A1A",
"W  c #1A561E",
"Q  c #1A5A1F",
"!  c #2E4E18",
"~  c #1D5A21",
"^  c #34442B",
"/  c #1E6523",
"(  c #1F6A24",
")  c #216525",
"_  c #226B26",
"`  c #286926",
"'  c #26732B",
"]  c #28762D",
"[  c #2A792E",
"{  c #2C7B31",
"}  c #53402D",
"|  c #5A452F",
" . c #5E5923",
".. c #4D4637",
"X. c #5A4633",
"o. c #574839",
"O. c #60492F",
"+. c #6A4A27",
"@. c #664E35",
"#. c #6F543A",
"$. c #7A5D3F",
"%. c #74583A",
"&. c #6A732E",
"*. c #727733",
"=. c gray27",
"-. c #4C4D4F",
";. c #554B41",
":. c #785E44",
">. c #686245",
",. c #796249",
"<. c #776756",
"1. c #831919",
"2. c #811816",
"3. c #895114",
"4. c #975C1B",
"5. c #9A5F21",
"6. c #9F6729",
"7. c #9F6221",
"8. c #A26422",
"9. c #AE702F",
"0. c #B37532",
"q. c #BC7D3C",
"w. c #816243",
"e. c #926E4B",
"r. c #997855",
"t. c #A77F57",
"y. c #A17D58",
"u. c #8E7E6A",
"i. c #917F6B",
"p. c #957C62",
"a. c #A7825C",
"s. c #AA8A69",
"d. c #AA937A",
"f. c #C89866",
"g. c #CD9E6E",
"h. c #C59767",
"j. c #CB9F73",
"k. c #C29A71",
"l. c #CBA278",
"z. c #E9B47F",
"x. c #868787",
"c. c #8E8A86",
"v. c #AB9781",
"b. c #B69D81",
"n. c #BFA88E",
"m. c #BFA181",
"M. c #B8A795",
"N. c #A7A7A7",
"B. c #AAABAC",
"V. c #BBB4AD",
"C. c #CAA984",
"Z. c #D3AD85",
"A. c #D0AF8B",
"S. c #D9B288",
"D. c #C4AB90",
"F. c #C9B195",
"G. c #D6B693",
"H. c #D3BC9F",
"J. c #EAB580",
"K. c #FBC996",
"L. c #DFC5A6",
"P. c #D5C4B1",
"I. c #E7C9A7",
"U. c #F5CEA4",
"Y. c #FCD2A4",
"T. c #FFD6A8",
"R. c #EFD2B1",
"E. c #FFDEB7",
"W. c #FEDFBC",
"Q. c #F7DABA",
"!. c #FFE0BD",
"~. c #FFE1BE",
"^. c #FFE1BD",
"/. c #FFE3C2",
"(. c #FDE5CA",
"). c #E7E2DD",
"_. c #FDEEDB",
"`. c #F4EDE5",
"'. c #F8F0E6",
"]. c #FCF7F2",
/* pixels */
"                  & & & &                                       ",
"                o R / / E =                                     ",
"                - W / [ _ E =                                   ",
"              . R _ / { [ ( E =                                 ",
"              y ~ / W a p u u & . . . . . .                     ",
"              a _ Q y . . . . . . . . . . . . .                 ",
"            y / / u . . . . . . . . . . . . . . . .             ",
"            p ] ) = . . . . . . . . . . . . . . . . . .         ",
"          y ) [ W & . . . . . . . . . . . . . . . . . . X       ",
"          i ' ' u . . . . . . . . . . . . . . . . . . . .       ",
"        p / ' W & . O . . . . . . . . . . . . . . . . . . O     ",
"      a / ] ] i . X 2 v O . . o X . . . . . . o X O l O . o     ",
"    a / ] { ] u . O b v < < < 2 v =.v 2 O O < 2 2 2 v =.l X     ",
"  * W [ { [ E o . 2 l 3 2 < < < z l 3 O . O O . O 2 2 l z .     ",
"  * Q [ { ] i . o < 2 < < O . . . . . . . . . . . . . . . .     ",
"  O R _ { [ i . o O O . . $ : . . . t g g g $ . . . . . . .     ",
"    > E ` ] R o . . . . . P $.: . ; h.J.z.z.#.. . . . . . .     ",
"      1 E ' _ u . . . . . . $.@.. ; Z.T.Y.K.$.. k $ . . . .     ",
"        s ! ` p . X } T t k ,.a.4 ; G./.E.Y.:.. r.k . : P o     ",
"      # K C H d . O g.j.X.e.,.K.y.j H.~.~.W.<.I j.k . c r.$     ",
"      7 1.2.Z F q : g.l.o.l.d.Y.U.b.I./.~./.F.Z.K.r.g ,.X.      ",
"      7 1.1.S B F @ } S.A.l.O.o...;.<.R.~.W.v.o.I I U t.:       ",
"      : G D S Z m , 4 C.E.I.M.B.-.x.V.Q.W.~.P.N.-.c.s.P         ",
"        , G G M 6 X X U G.^._.].).`.(.W.W.W.~.'.).'.H.t         ",
"        7 A D V 5   X , ..D.L./././.W.W.~.~.~.~.(.^.d.2         ",
"          8 K N #     & p - o.d.I.W./.~.~./.~.~.D.p.t           ",
"          e L B 5       - E u a >.p.u.i.u.a.i.u.^ o .           ",
"            m C n +     s *.*.&.s 9 9 O o 2 J +. .>             ",
"            q D V %     k q.9.7.r A M X   H 0.0.5.w             ",
"            @ 7 # .     f 6.8.4.q + @ .   f 4.8.3.0             ",
"                          | f.+.          @ #.h.J               ",
"                          $ h               $ h                 "
};
