/* XPM */
static char *result[] = {
/* columns rows colors chars-per-pixel */
"32 32 13 1 ",
"  c #391800",
". c #525152",
"X c #B56121",
"o c #00AA00",
"O c #E78231",
"+ c #84DB31",
"@ c #B5FB42",
"# c #FFC373",
"$ c #A59294",
"% c #CECBCE",
"& c #EFEBEF",
"* c #FFFBFF",
"= c none",
/* pixels */
"=============. .=. .============",
"============. + . + .===========",
"============ +%+ +%+ ===========",
"===========. ***.*** .==========",
"=========== %$.*.*.$% ==========",
"=========== *..*o*..* ==========",
"==========. *..+++..* .=========",
"=========. +%+@@@@@+%+ .========",
"========= o++@@@@@@@++o ========",
"========= &+@@@o@o@@@+& ========",
"========= *+@@@+@+@@@+* ========",
"========= *+@@@@@@@@@+* ========",
"========= *+@@@@@@@@@+* ========",
"========= %++@@@@@@@++% ========",
"=========. +++@@@@@+++ .========",
"========== o+++++++++o =========",
"==========. oo+++++oo .=========",
"===========. ooooooo .==========",
"============. .ooo. .===========",
"===========. o+%%%+o .==========",
"=========== o+&&&&&+o ==========",
"==========. ++&***&++ .=========",
"=========. +@o%***%o@+ .========",
"========= +@@@o***o@@@+ ========",
"========= +@@@o&&&o@@@+ ========",
"=========. +@+%&&&%+@+ .========",
"==========. oo%%%%%oo .=========",
"=========. OOX     XOO .========",
"========= O##OX = XO##O ========",
"========= O##OX = XO##O ========",
"=========. OOX .=. XOO .========",
"==========.   .===.   .========="
};
