/* XPM */
static char *result[] = {
/* columns rows colors chars-per-pixel */
"32 32 120 2 ",
"   c #AB5364",
".  c #AE5768",
"X  c #AC5F6E",
"o  c #B15768",
"O  c #B45A6C",
"+  c #B95A6E",
"@  c #BD5D71",
"#  c #AA6573",
"$  c #A76E7A",
"%  c #AA6E7A",
"&  c #B66F7E",
"*  c #C36175",
"=  c #C66579",
"-  c #CA6479",
";  c #D2677E",
":  c #D4697F",
">  c #AE7C86",
",  c #BB7382",
"<  c #BD7E8B",
"1  c #D76B82",
"2  c #DB6E85",
"3  c #C57082",
"4  c #CB7789",
"5  c #CA7C8C",
"6  c #D37285",
"7  c #DE7187",
"8  c #D97489",
"9  c #DA7A8F",
"0  c #E1758B",
"q  c #9E9E9C",
"w  c #AB858C",
"e  c #A38B8E",
"r  c #AD8D93",
"t  c #B48791",
"y  c #BC8B95",
"u  c #A49094",
"i  c #A79C9D",
"p  c #A89C9E",
"a  c #B19B9F",
"s  c #AD9FA2",
"d  c #A5A4A4",
"f  c #ABA5A5",
"g  c #A7A8A7",
"h  c #ACACAC",
"j  c #B2ADAE",
"k  c #B0AFB0",
"l  c #B3B3B3",
"z  c #BCB2B4",
"x  c #BCBCBC",
"c  c #C1818F",
"v  c #CE8895",
"b  c #D18F9D",
"n  c #C4929C",
"m  c #CB959F",
"M  c #E28D9F",
"N  c #F7869D",
"B  c #FB879E",
"V  c #C99DA6",
"C  c #D19DA8",
"Z  c #F68DA3",
"A  c #FC8CA3",
"S  c #E496A7",
"D  c #E89DAD",
"F  c #F392A7",
"G  c #FE90A7",
"H  c #F693A8",
"J  c #FE94AA",
"K  c #F39AAB",
"L  c #FE98AE",
"P  c #FE9DB1",
"I  c #C4A1A8",
"U  c #D7A7B0",
"Y  c #D0AAB0",
"T  c #C5BBBE",
"R  c #D2B5BA",
"E  c #DFB7BE",
"W  c #D8B9BE",
"Q  c #FDA1B5",
"!  c #FEA5B9",
"~  c #FDAABD",
"^  c #F2B0BE",
"/  c #FDAEC1",
"(  c #E1BEC3",
")  c #E8BBC3",
"_  c #FDB1C2",
"`  c #FBBBCB",
"'  c #C3C3C3",
"]  c #C8C8C7",
"[  c #CCCCCC",
"{  c #DBC1C6",
"}  c #D1CACB",
"|  c #D5CFD0",
" . c #D3D3D3",
".. c #DCDCDC",
"X. c #EFCAD1",
"o. c #F6C5D0",
"O. c #F2CED5",
"+. c #FBCAD3",
"@. c #FBCFD9",
"#. c #E9DADD",
"$. c #F5D2D9",
"%. c #FBD3DD",
"&. c #FBD7E0",
"*. c #F2DFE1",
"=. c #E4E4E4",
"-. c #ECE5E6",
";. c #EBEBEB",
":. c #FBE0E7",
">. c #F6E6EA",
",. c #FBE3E9",
"<. c #F2EBEC",
"1. c #FAE9ED",
"2. c #F0EFF0",
"3. c #FCECF0",
"4. c #F4F4F4",
"5. c #FAF4F5",
"6. c #FBF9F7",
"7. c #F8F7F8",
"8. c #F7F8F8",
"9. c none",
/* pixels */
"9.9.9.9.9.9.9.9.9.9.9.9.8.4.4.4.4.4.8.9.9.9.9.9.9.9.9.9.9.9.9.9.",
"9.9.9.9.9.9.9.9.9.9.9.8.;.;.4.4.7.8.8.4.8.9.9.9.9.9.9.9.9.9.9.9.",
"9.9.9.9.9.9.9.9.9.9.2.=.;.4.4.4.4.4.4.4.4.8.9.9.9.9.9.9.9.9.9.9.",
"9.9.9.9.9.9.9.9.8.;...;.;.8.8.8.1.:.:.1.6.8.4.9.9.9.9.9.9.9.9.9.",
"9.9.9.9.9.9.9.9.=...=.2.8.8.5.+._ / _ _ ` :.5.4.9.9.9.9.9.9.9.9.",
"9.9.9.9.9.9.9.;. ...=.2.8.3.` Q Q ~ ~ ~ / _ %.4.4.9.9.9.9.9.9.9.",
"9.9.9.9.9.9.2.[  .=.;.2.4.+.P P Q Q Q ~ ~ ~ ~ %.4.8.9.9.9.9.9.9.",
"9.9.9.9.9.8. .]  ...=.2.>.Q J P P Q Q ! ! ! ! ~ ,.4.9.9.9.9.9.9.",
"9.9.9.9.9.=.' ]  ...=.4.$.H J L P P P P Q Q Q Q ` 4.8.9.9.9.9.9.",
"9.9.9.9.8.] x '  ...=.;.o.G G G G J P P P P P P Q ,.2.8.9.9.9.9.",
"9.9.9.9...l x '  ...=.;.O.A A G G J J L J L P J L &.4.2.9.9.9.9.",
"9.9.9.8.' l l ' [  .=.=.-.K Z A G G J J J J J J J &.8.;.9.9.9.9.",
"9.9.9.;.l h l x ]  ...=.;.O.Z N A A A G J G G G Q 1.8.;.4.9.9.9.",
"9.9.9...k h j z ' [ ....=.;.X.F Z A A A A A A J +.6.8.;.;.9.9.9.",
"9.9.9.] h a < 5 m '  ...=.;.;.*.^ H A B A A P @.5.8.4.;.=.9.9.9.",
"9.9.8.x f & * - 6 b }  ...=.;.;.;.-.$.` o.$.1.7.7.7.4.;.=.8.9.9.",
"9.9.7.l w O @ = 1 1 Y  .....=.=.;.;.2.4.8.4.4.8.4.4.;.;...8.9.9.",
"9.9.4.j % . @ @ = 3 v [ [ ....=.=.-.-.;.;.2.2.2.2.;.;.=...4.9.9.",
"9.9.2.h # . O @ @ = 4 T [ [  .......=.=.-.;.<.;.;.;.=.=...2.9.9.",
"9.9.4.h #   . O @ * 3 l ' [  . . .....=.=.=.=.#.) D S E | 4.9.9.",
"9.9.8.z %     . O @ , j x x ] [  . . .......( M 0 0 7 8 R 8.9.9.",
"9.9.8.' r .     o O > h k x x ' [ [ [  .| U 9 2 2 2 1 ; C 8.9.9.",
"9.9.9.[ h %       X u d h l x x ' ' ] ] C 6 1 : ; ; ; - U 9.9.9.",
"9.9.9.;.k g > # $ e q s g g k l l x ' I 3 - - - * - * * | 9.9.9.",
"9.9.9.8.] l h f d d q q d d g k l l k , @ @ @ @ @ @ + c <.9.9.9.",
"9.9.9.9.=.l l h g d d s d d g g h j t . O O O o o o X { 9.9.9.9.",
"9.9.9.9.9. .l l h h g d d d d d g f #               I 5.9.9.9.9.",
"9.9.9.9.9.8.[ l l h h h d d d d g p X         .   n <.9.9.9.9.9.",
"9.9.9.9.9.9.8. .l l l h h g g g g i X     .   O V <.9.9.9.9.9.9.",
"9.9.9.9.9.9.9.9...' l l h h h h g f % . . O , W 4.9.9.9.9.9.9.9.",
"9.9.9.9.9.9.9.9.9.4. .' l l k k j h f t y R -.6.9.9.9.9.9.9.9.9.",
"9.9.9.9.9.9.9.9.9.9.9.8.=. .' ' x '  ...<.9.9.9.9.9.9.9.9.9.9.9."
};
