/* XPM */
static char *_4632c211b6c49ebe5bd88abaff26da7ALzoqZn0aMJRMFND[] = {
/* columns rows colors chars-per-pixel */
"32 32 127 2 ",
"   c None",
".  c #473535",
"X  c #483636",
"o  c #4A3837",
"O  c #4A3738",
"+  c #4C3939",
"@  c #523E3D",
"#  c #55403F",
"$  c #564241",
"%  c #5C4544",
"&  c #5E4946",
"*  c #604747",
"=  c #604847",
"-  c #634B4A",
";  c #694F4F",
":  c #67524D",
">  c #69524E",
",  c #6D5251",
"<  c #725655",
"1  c #745B56",
"2  c #765958",
"3  c #7B5E5B",
"4  c #746256",
"5  c #766158",
"6  c #7C625C",
"7  c #7E695E",
"8  c #80615F",
"9  c #836562",
"0  c #846C62",
"q  c #896A66",
"w  c #8D6D69",
"e  c #906F6B",
"r  c #867263",
"t  c #897566",
"y  c #8D7369",
"u  c #8F796A",
"i  c #93736E",
"p  c #937D6D",
"a  c #977770",
"s  c #977971",
"d  c #9A7B72",
"f  c #95806E",
"g  c #978071",
"h  c #9A8373",
"j  c #9B8273",
"k  c #9A8072",
"l  c #988571",
"z  c #9A8472",
"x  c #9B8573",
"c  c #9E8175",
"v  c #9C8274",
"b  c #9E8276",
"n  c #9D8674",
"m  c #9F8676",
"M  c #9D8774",
"N  c #9F8977",
"B  c #9F8876",
"V  c #A08377",
"C  c #A08477",
"Z  c #A08577",
"A  c #A18577",
"S  c #A08D77",
"D  c #A18A77",
"F  c #A08578",
"G  c #A28779",
"H  c #A18978",
"J  c #A38979",
"K  c #A3897A",
"L  c #A48A7A",
"P  c #A38D79",
"I  c #A18E78",
"U  c #A38E79",
"Y  c #A48D7A",
"T  c #A58C7B",
"R  c #A68E7B",
"E  c #A78F7C",
"W  c #A38C79",
"Q  c #A88F7D",
"!  c #A49079",
"~  c #A4907A",
"^  c #A5917A",
"/  c #A5927A",
"(  c #A6937B",
")  c #A6907C",
"_  c #A7937C",
"`  c #A9917E",
"'  c #AA927E",
"]  c #AB967F",
"[  c #AB947F",
"{  c #AC9A7F",
"}  c #AD9780",
"|  c #AC9780",
" . c #AD9880",
".. c #AC9980",
"X. c #AD9981",
"o. c #AE9881",
"O. c #AE9981",
"+. c #AC9A80",
"@. c #AE9B81",
"#. c #AE9982",
"$. c #AF9B83",
"%. c #AF9C81",
"&. c #AF9D82",
"*. c #AE9B80",
"=. c #B09B83",
"-. c #B09C82",
";. c #B09D82",
":. c #B09C83",
">. c #B19D83",
",. c #B19E83",
"<. c #B29F83",
"1. c #B29E84",
"2. c #B29F84",
"3. c #B39F84",
"4. c #B19D83",
"5. c #B3A084",
"6. c #B4A285",
"7. c #B5A285",
"8. c #B4A286",
"9. c #B5A286",
"0. c #B4A386",
"q. c #B5A386",
"w. c #B6A386",
"e. c #B6A486",
"r. c #B6A487",
"t. c #B7A587",
"y. c #B4A185",
/* pixels */
"                                                                ",
"                            5                                   ",
"                        7 t u t 7                               ",
"                      r N @.@.@.! l t 5                         ",
"                    9 j #.r.r.9.5.S p 5 &                       ",
"                  , y m ` } ,.r.~ p r > #                       ",
"                  < w a d b | #.r & # + o                       ",
"                  2 q i a s d F : o o . X X                     ",
"                  3 q i a e a a & . . X X o                     ",
"                & 9 w a a e e e - O X X X X                     ",
"              1 1 q i s a a w q , O . . . . .                   ",
"          6 r p p j Z L F d e q , + . . + + $                   ",
"        0 f ~ ,.9.,.,.,.,.L s q , @ + @ % : 5 7                 ",
"    ; 0 U @.5.9.e.9.e.9.9.,.R 0 < % - 6 y l ~ I f r             ",
"    2 w K #.9.r.e.r.r.r.r.e.#.9 , ; 0 N ] 5.9.,.( u ,           ",
"  = 6 i s F } 9.e.r.r.r.9.5._ 6 , 3 d ..5.9.e.,.~ t -           ",
"  ; 9 e i d d o.e.e.e.e.,.{ y < ; 9 s b Q ,.,.l 5 & + X         ",
"  < e e i i d | ,.@.#.~ g 0 , ; < 9 a a d L j 1 $ X . .         ",
"  3 e e i i i d Y m d i 3 $ @ ; 9 q i i i s q @ X . X X .       ",
"% 9 e i a i i e y 6 9 6 > + O ; q w i a a a 9 @ X X X X .       ",
"% 8 w i a i i w 6 2 2 2 ; + O - e e a a d V w % X X X + - 4     ",
"% 3 e a i e i q 2 2 2 2 < $ X - e a a d Q | c 5 $ X X % 0 f r   ",
"% 9 i i i i i 8 2 2 2 2 2 % X & w a e L =.3.1.Z 4 + + 1 D @.x : ",
"% q i w e a e 3 2 2 2 2 < - O $ 9 e w d | 3.3.L 1 + o , y f 7 $ ",
"% 8 q 2 9 e w 3 2 2 2 < < , & : 0 9 3 i m ] x 0 - o @ - < 6 ; + ",
"% 3 3 % ; 9 9 2 2 2 2 ; < 3 0 p i , = q i d 1 $ + + ; * % , % . ",
"  3 3 @ + - 2 2 < < 2 = 2 q D ] g & + 5 i q & O X $ 9 3 % % @   ",
"- 3 9 * + + ; 2 < , < * 2 w K U 7 @ . ; q 3 + . o $ 6 6 %       ",
"; 3 q 1 + O % , , ; , = 2 q i 0 $ o . $ 3 < + . X + ; ,         ",
"* < 6 , + O @ ; < - % $ , q y 1 + X . + = = +                   ",
"  - < ; + O     , =     ; 3 3 - X . . .                         ",
"                          = & $ X . o                           "
};
