/* XPM */
static char *fc147747d9ce4c819e9549e0a0d0ed35iOTWK9Z6wRlYrukV[] = {
/* columns rows colors chars-per-pixel */
"89 24 250 2 ",
"   c #B1BFCA",
".  c #B2BECA",
"X  c #B3BFCB",
"o  c #B4BECA",
"O  c #B5BFCB",
"+  c #B7BFCA",
"@  c #B2C0CB",
"#  c #B6C0CA",
"$  c #B4C0CC",
"%  c #B5C1CD",
"&  c #B6C0CC",
"*  c #B7C1CD",
"=  c #B5C3CE",
"-  c #B6C2CE",
";  c #B7C3CF",
":  c #B6C4CF",
">  c #B8C0CB",
",  c #B9C1CC",
"<  c #BAC2CD",
"1  c #B8C2CE",
"2  c #B9C3CF",
"3  c #BBC3CE",
"4  c #BCC4CF",
"5  c #B8C4D0",
"6  c #BAC4D0",
"7  c #BDC5D0",
"8  c #BEC6D1",
"9  c #BCC6D2",
"0  c #BDC9D5",
"q  c #BFC9D5",
"w  c #BECAD6",
"e  c #C1C9D4",
"r  c #C2CAD5",
"t  c #C0CAD6",
"y  c #C1CBD7",
"u  c #C3CBD6",
"i  c #C2CAD7",
"p  c #C4CCD7",
"a  c #C3CBD8",
"s  c #C3CDD9",
"d  c #C2CEDA",
"f  c #C3CFDB",
"g  c #C5CDD8",
"h  c #C4CCD9",
"j  c #C6CED9",
"k  c #C5CDDA",
"l  c #C4CEDA",
"z  c #C5CFDB",
"x  c #C7CFDA",
"c  c #C4D0DC",
"v  c #C6D0DC",
"b  c #C7D1DD",
"n  c #C6D3DC",
"m  c #C7D4DD",
"M  c #C9D2DB",
"N  c #C9D1DC",
"B  c #C8D0DD",
"V  c #C8D2DC",
"C  c #C9D3DD",
"Z  c #CAD3DC",
"A  c #CAD2DD",
"S  c #CBD3DE",
"D  c #CAD2DF",
"F  c #CBD4DD",
"G  c #C8D5DE",
"H  c #CAD4DE",
"J  c #CBD5DF",
"K  c #C9D6DF",
"L  c #CCD5DE",
"P  c #CCD4DF",
"I  c #CDD6DF",
"U  c #CBD3E0",
"Y  c #CAD4E0",
"T  c #CAD7E0",
"R  c #CDD5E0",
"E  c #CCD6E0",
"W  c #CDD7E0",
"Q  c #CDD7E1",
"!  c #CED7E0",
"~  c #CED6E1",
"^  c #CDD7E3",
"/  c #CFD7E2",
"(  c #CED8E1",
")  c #CFD8E1",
"_  c #CED8E2",
"`  c #CFD9E2",
"'  c #CFD9E3",
"]  c #D0D9E2",
"[  c #D0D8E3",
"{  c #D2D9E3",
"}  c #D0DAE3",
"|  c #D1DAE3",
" . c #D1D9E4",
".. c #D3DAE4",
"X. c #D2DBE4",
"o. c #D2DAE5",
"O. c #D4DBE5",
"+. c #D3DCE5",
"@. c #D2DCE6",
"#. c #D6DDE5",
"$. c #D5DCE6",
"%. c #D4DDE6",
"&. c #D4DCE7",
"*. c #D6DDE7",
"=. c #D7DEE6",
"-. c #D9DDE6",
";. c #D8DFE7",
":. c #D5DDE8",
">. c #D4DEE8",
",. c #D7DEE8",
"<. c #D6DFE8",
"1. c #D7DFEA",
"2. c #D8DFE9",
"3. c #DBDFE8",
"4. c #DAE1E7",
"5. c #DCE1E7",
"6. c #D9E0E8",
"7. c #DAE1E9",
"8. c #DBE2E8",
"9. c #D9E0EA",
"0. c #D8E1EA",
"q. c #DAE1EB",
"w. c #D9E2EB",
"e. c #DCE0E9",
"r. c #DDE2E8",
"t. c #DEE3E9",
"y. c #DDE1EA",
"u. c #DCE0EB",
"i. c #DEE2EB",
"p. c #DFE4EA",
"a. c #DBE2EC",
"s. c #DAE3EC",
"d. c #DCE3ED",
"f. c #DFE3EC",
"g. c #DEE2ED",
"h. c #DFE3EE",
"j. c #DDE4EE",
"k. c #DEE5EF",
"l. c #E1E4EB",
"z. c #E0E5EB",
"x. c #E3E6EB",
"c. c #E2E7EB",
"v. c #E6E7EB",
"b. c #E0E4ED",
"n. c #E2E5EC",
"m. c #E1E6EC",
"M. c #E3E6ED",
"N. c #E2E7ED",
"B. c #E1E5EE",
"V. c #E0E4EF",
"C. c #E2E5EE",
"Z. c #E2E6EF",
"A. c #E3E6EF",
"S. c #E4E7EC",
"D. c #E6E7EC",
"F. c #E4E7EE",
"G. c #E3E8EB",
"H. c #E4E8EB",
"J. c #E3E8EC",
"K. c #E3E8EE",
"L. c #E5E8ED",
"P. c #E5EAED",
"I. c #E6EAED",
"U. c #E5E8EF",
"Y. c #E4E9EF",
"T. c #E6E9EE",
"R. c #E7EAEF",
"E. c #E7ECEF",
"W. c #E8E9ED",
"Q. c #E8E9EE",
"!. c #E9EAEE",
"~. c #E9EAEF",
"^. c #EAEBEF",
"/. c #E8ECEF",
"(. c #E1E5F0",
"). c #E3E7F0",
"_. c #E4E7F0",
"`. c #E6E9F0",
"'. c #E5EAF0",
"]. c #E7EAF1",
"[. c #E6EBF1",
"{. c #E8EBF0",
"}. c #EAEBF0",
"|. c #E8EBF2",
" X c #EBEBF3",
".X c #E9ECF1",
"XX c #EBECF0",
"oX c #EBECF1",
"OX c #E9ECF3",
"+X c #EAEDF2",
"@X c #EAEFF2",
"#X c #EBEFF2",
"$X c #EBEEF3",
"%X c #ECEDF1",
"&X c #EEEFF1",
"*X c #ECEDF2",
"=X c #EDEEF2",
"-X c #EDEEF3",
";X c #EEEFF3",
":X c #EAEDF4",
">X c #EBEEF5",
",X c #ECECF4",
"<X c #ECEFF4",
"1X c #EEEFF4",
"2X c #EEEEF6",
"3X c #F0EFF5",
"4X c #EFF0F2",
"5X c #ECF1F4",
"6X c #EDF1F4",
"7X c #EFF0F4",
"8X c #EFF0F5",
"9X c #EEF1F6",
"0X c #EEF3F6",
"qX c #EFF3F6",
"wX c #EFF2F7",
"eX c #EFF4F7",
"rX c #F0F1F3",
"tX c #F1F0F5",
"yX c #F0F1F5",
"uX c #F1F2F4",
"iX c #F2F3F5",
"pX c #F2F1F6",
"aX c #F1F2F6",
"sX c #F3F2F7",
"dX c #F2F3F7",
"fX c #F0F4F7",
"gX c #F3F4F6",
"hX c #F4F5F7",
"jX c #F0F3F8",
"kX c #F4F3F8",
"lX c #F1F5F8",
"zX c #F3F4F8",
"xX c #F3F7F8",
"cX c #F2F6F9",
"vX c #F3F7FA",
"bX c #F5F4F9",
"nX c #F4F5F9",
"mX c #F5F6F8",
"MX c #F6F7F9",
"NX c #F6F5FA",
"BX c #F5F6FA",
"VX c #F7F6FB",
"CX c #F6F7FB",
"ZX c #F8F7FC",
"AX c #F4F8F9",
"SX c #F5F9FA",
"DX c #F6FAFB",
"FX c #F7F8FC",
"GX c #F8F9FB",
"HX c #F9F8FD",
/* pixels */
"  @   = $ $     o o o o O + 2 O + + + 3 3 3 4 9 4 3 3 3 2 > > > o # $ = = O = O @ @ @   =     O   o o o   o O 2 + + + + 3 3 9 e 4 4 4 4 4 2 < > > > # # = = O =   O     O   O     ",
"= : = 2 5 5 ; = 5 2 = 5 5 6 9 9 e e r r r j p M p N p p p r e e 5 ; 5 5 = ; ; ; 5 : : = 5 5 ; ; ; 5 2 2 2 2 6 9 9 r e r r r j r V p p p p p r e e ; 5 5 5 ; ; ; ; ; 5 5 ; ; ; 5 = ",
"q q q q q w q q e q q a e k k z N M S S I I I I I I ) I I M N N z z r r q r q q q q q q q w w q q q q q a a r k k B M Z F I ) S I I ^ T I F M M N s s r r q q r q a q q q w w r q ",
"f f f c c s z s k k k c B U U S } } } o...$.$.+.+.+.$...+.} } _ _ _ U c k c c k c w c c k c c c a z z z k B U U U } } } } ..+...+.+.+.+.+.+.} } _ ^ ^ T c z V c k k f k k c k k V ",
"c m G G G G M V S N S S U /  .o.2.2.1.1.2.2.0.i.0.0.0.i.2.2.2.,.>.+._ _ T N N G G Z m m G N G Z N N S S S / ^  .o.,.2.3.0.2.i.0.u.u.w.w.u.0.0.2.,.>.+.' T G G N G N N M T N N N N ",
"T T K K I I I I S / / } o.:.,.,.d.1.3.d.d.d.0.0.0.i.d.d.u.u.0.,.0.>.+._ ^ ^ G ^ I G G T T I I G G ^ I ) / } :.,.,.u.d.1.i.0.i.0.u.u.w.u.u.i.0.2.,.0.>.+.} ^ I G I I ^ I T ^ G ^ I ",
"T _ _ _ } _ } I } } o.o.,.2.1.d.3.3.3.3.3.3.0.3.3.3.3.3.0.3.3.-.0.0.0.+...} ) I I I _ _ } } I } / / } ..o.o.2.3.u.u.3.3.3.3.2.3.-.3.3.3.0.i.-.i.,.0.0.0.$.+._ I I } ) ) ) ) } / / ",
"_ _ } } } } } ) } ..$.o.,.u.d.d.b.l.b.d.l.b.p.i.l.d.C.b.C.d.l.i.s.u.0.0.-...} } } } _ } } } } } } } ....-.2.d.d.k.p.b.i.b.i.b.l.i.b.b.b.b.b.p.i.d.d.0.u.0.$.$.+.} } ) } ) } } } } ",
"_ +.+.+.+.+...+...o.,.u.k.(.d.d.i.m.p.m.m.m.C.C.p.m.m.m.p.m.5.i.s.j.u.j.j.u.,.o.o.+.} +.+.+.+.+.o.o.-.2.d.d.(.d.j.d.l.p.m.m.m.m.C.p.p.p.C.p.p.i.d.d.k.s.d.d.0.,.........o.........",
"+.+.+.+.+.+.$.+.$.-.u.d.).k.(.b.i.m.m.m.C.T.J.C.J.J.C.C.m.m.m.m.p.k.j.k.p.d.,.,.o.o.} $.+.+.+.$.-.o.2.1.d.(.).b.d.b.m.m.m.T.J.J.T.C.J.).J.J.m.p.l.d.k.u.k.k.d.,.o.o.$.-.$.$.$.$.$.",
"+.+.$.$.+.-.-.6.3.3.b.C.A.A.b.C.m.x.H.A.T.T.^.T.@X`.}.`.T.H.A.m.).p.k.).).d.i.-.-.$.$.$.$.$.$.5.-.2.3.b.(._.).C.A.x.x.x.A.T.`.T.}.`.`.`.[.T.T.T.C.C.C.C.).C.k.d.3.-.-.-.-.-.-.-.-.",
"5.5.5.5.0.5.0.0.l.b.C.)._._.A.A.H.A.^.^./.@X@X@X@X@X@X@XT.^.T.T.C.).).).).).p.i.5.6.5.5.5.0.5.0.0.i.b.b._._._._.A.x.A.^.@X}.@X@X@X@X@X}.@X[.T.T.T.m.C.).).).).p.i.3.3.3.3.3.3.5.3.",
"5.6.5.6.5.p.5.5.m.m.C._.A._.A.A.^.^.}. X;X1X1X;X;X X;X;X}. X}.T.).J.J.).).J.m.p.5.5.6.5.6.4.r.r.5.m.m.x._._._.C.C.^.^.^.}.1X1X1X1X;X;X;X;X@X}.}.T.J.C.T.).).J.J.l.5.5.5.5.5.5.5.5.",
"5.6.4.4.i.i.5.p.C.C.`.`.}.}.`.T.@X;X;X3X1XaX1X1X1X1X1X1X;X;X;X}.|.[.[.`.[.[.J.p.p.6.6.5.4.r.0.p.l.m.A.A.`.`.}.`.T.;X;X3X3X5X3X3X1X;X1X1X1X1X1X;X@X}.[.`.`.`.).J.m.5.m.5.l.5.5.i.l.",
"p.p.p.p.p.p.p.p.T.T.`.|.}.|. X,X3X3X;X3X5XaX;XaX;X3X1X3XaX3XaX5X>X>X`.`.[.`.`.C.p.i.r.p.p.p.p.p.p.T.T.T.}.|.|.|.,X1X3X5XaX3XaX;XaX;X1X;X3X3X1X1X1X>X>X[.`.}.}.A.x.m.l.l.l.l.l.l.l.",
"p.G.p.G.J.J.J.J.`.T.|.|.|.1X1X1X5XaXaXaXaX3XrX;X3X5XaXaXaXaXaX5X0X>X>X@X@X`.`.T.C.G.G.J.G.J.G.J.J.`.`.}.|.|.1X1X1XaX1XaXrXaXaX5X;X;XaXaXaXaXaXaXaX5X5X>X@X@X`.^.x.A.x.A.m.x.A.x.x.",
"P.G.H.H.H.H.H.H.^.^.^.^.;X;X3X3XaXaXaXaXaXkX5XkXaXaXaX5XaXaXaXaXaXaXrX;X;X^.^.T.T.G.H.H.H.H.H.H.T.^.^.^.^.;X;X3X3XaXaXaXaXaXaXaX5XaXaX5XaXaXaXaXaXzXaX5X;X/.^.^.Q.Q.v.v.v.Q.Q.v.v.",
"G.G.G.G.H.H.H.H.^.^.^.;X;X;X3XsXaXkXzXzXzXuXaXzXzXzXkXkXkXzXzXzXaXrXrX;X;X^.^.^.x.G.G.H.H.H.H.H.m./.^.;X;X;X;X3XaXaXzXuXzXzXzXaXzXzXzXkXkXzXzXzXuXuXrXaX;X;X^.^.Q.v.v.v.v.v.v.A.v.",
"P.P.E.P.H.E.T.T.^.;X;X;XaXaXaXkXNXuXNXzXzXzXzXzXzXzXzXzXzXzXzXzXgXgXrXrX;X^.^.^.^.H.E.H.T.T.H.T.T.^.^.;X;XaXaXkXkXNXaXzXzXzXzXzXzXzXzXzXzXzXzXzXNXgXaXrXrX;X;X/.^.Q.Q.Q.Q.Q.`.Q.^.",
"E.E.E.E././././.;X;X;X3XaXaXkXkXNXzXzXzXNXzXzXzXzXSXzXzXzXzXzXzXgXgXaXrX;X;X;X;X/./././././.E.^.^.;X;X;XaXaXaXaXkXNXNXzXzXNXzXzXFXzXzXzXzXNXzXzXNXgXgXgXrX;X;X;X^.^.^.^. X`.}.}.^.",
"@X@X@X5X5X5X^.5X;X;X;X5X5XkXkXNXFXzXNXFXFXzXFXzXVXNXvXNXNXNXSXNXgXgXgXgXzX5X5XaX;X@X@X;X5X@X;X@X@X;X;X;XaXaXaXNXzXNXNXFXSXNXNXzXNXSXNXNXNXNXNXSXNXuXgXgXgXuX5XaX3X;X^.3X1X1X1X1X;X",
"5X5X5X5X5X5X5X5X;X1X;XaXzXzXkXNXFXFXFXGXFXFXFXFXGXGXFXFXFXFXFXGXGXGXgXgXzXuXuXaX3X5X5X5X5X5X5X5X5X;X3X5XaXaXzXNXVXFXFXGXFXFXFXFXGXGXFXFXFXFXFXGXGXSXSXNXuXNXzXuXaX3XrX3X2X2X1X1X1X",
"5XuXeXeXeXeXuXuXaXaXaXzXNXNXVXVXFXSXGXGXGXGXFXDXGXGXGXGXFXFXGXGXSXSXSXSXcXeXeXzXeXeX5XuXeXeXeXeX5XaXaXaXaXzXNXNXVXFXGXGXGXGXFXDXGXGXGXGXFXFXGXGXGXSXSXSXSXzXzXeXzX5X5XaX0XjXkX0XkX",
"lXlXuXeXeXlXuXeX5XaXkXzXNXSXFXFXGXGXGXGXGXGXGXGXGXGXGXGXGXSXGXGXSXSXSXSXvXvXzXuXeXeXeXeXuXeXeXzXuXuXzXaXNXNXSXFXGXFXGXGXGXGXGXGXGXGXGXGXGXDXSXFXGXDXSXSXSXvXvXeXzXeXeXzXjX0X0X0X0X"
};
