/* XPM */
static char *e1a81ee49d78488fff7b2f69d3a79c8dFO9YeVHEfC6iDrmJ[] = {
/* columns rows colors chars-per-pixel */
"20 20 196 2 ",
"   c #2D121B",
".  c #3B1B1C",
"X  c #3A1D24",
"o  c #351E28",
"O  c #322422",
"+  c #3F2822",
"@  c #3B222C",
"#  c #382E2D",
"$  c #31262E",
"%  c #3C2530",
"&  c #483024",
"*  c #57362F",
"=  c #412730",
"-  c #442C34",
";  c #452C3B",
":  c #4B3636",
">  c #4B323D",
",  c #463A3D",
"<  c #4C393C",
"1  c #433339",
"2  c #533D3E",
"3  c #553B39",
"4  c #693E37",
"5  c #5F4537",
"6  c #55453A",
"7  c #5C433C",
"8  c #544A3E",
"9  c #67433A",
"0  c #72473B",
"q  c #75493E",
"w  c #4C3241",
"e  c #4C3D4A",
"r  c #4C3D44",
"t  c #503641",
"y  c #513A45",
"u  c #533E4B",
"i  c #583948",
"p  c #5C3C47",
"a  c #5B3D50",
"s  c #544145",
"d  c #5B4547",
"f  c #5C4C43",
"g  c #53424D",
"h  c #5C444C",
"j  c #5D4A4C",
"k  c #565042",
"l  c #5A514C",
"z  c #5D4451",
"x  c #554754",
"c  c #5A5153",
"v  c #55525B",
"b  c #5C555C",
"n  c #624341",
"m  c #644C45",
"M  c #6C4B45",
"N  c #654C4C",
"B  c #6C4E4A",
"V  c #605247",
"C  c #6D534F",
"Z  c #6E5A4F",
"A  c #7D544B",
"S  c #75594D",
"D  c #79584F",
"F  c #624753",
"G  c #6D5353",
"H  c #675E57",
"J  c #6B5C54",
"K  c #64555A",
"L  c #68575B",
"P  c #755953",
"I  c #745E5C",
"U  c #775A55",
"Y  c #6E645B",
"T  c #7B6857",
"R  c #74625A",
"E  c #7A635C",
"W  c #76685B",
"Q  c #7D6A5D",
"!  c #6C5C61",
"~  c #695F68",
"^  c #645663",
"/  c #705B60",
"(  c #745F68",
")  c #7D5A61",
"_  c #6F6860",
"`  c #666668",
"'  c #686467",
"]  c #746464",
"[  c #7C6C65",
"{  c #70676C",
"}  c #776A6A",
"|  c #7F6B6D",
" . c #7C6762",
".. c #7D736D",
"X. c #7B7263",
"o. c #746F73",
"O. c #7D6A71",
"+. c #7C7472",
"@. c #757379",
"#. c #7A757A",
"$. c #7B7A7E",
"%. c #797976",
"&. c #815852",
"*. c #816558",
"=. c #856A5D",
"-. c #886B5B",
";. c #87725D",
":. c #806D6A",
">. c #996F63",
",. c #847263",
"<. c #8D7164",
"1. c #85766C",
"2. c #8B756B",
"3. c #897B6E",
"4. c #937769",
"5. c #947B6C",
"6. c #9B7F6F",
"7. c #837372",
"8. c #837B75",
"9. c #8C7C75",
"0. c #85767B",
"q. c #837B7B",
"w. c #957D77",
"e. c #997F72",
"r. c #937F7B",
"t. c #91806C",
"y. c #878175",
"u. c #8C847A",
"i. c #9E8171",
"p. c #9B8877",
"a. c #9A867D",
"s. c #968779",
"d. c #A28776",
"f. c #A78A7A",
"g. c #AA8F7E",
"h. c #7E7F83",
"j. c #847D83",
"k. c #897D84",
"l. c #827F88",
"z. c #907981",
"x. c #878384",
"c. c #8A8289",
"v. c #898486",
"b. c #938383",
"n. c #96858A",
"m. c #93898C",
"M. c #9A8E8A",
"N. c #978B83",
"B. c #969287",
"V. c #9D9286",
"C. c #9B908C",
"Z. c #959293",
"A. c #9D9394",
"S. c #9F9498",
"D. c #9D989E",
"F. c #A08782",
"G. c #AA8887",
"H. c #A39285",
"J. c #AB9887",
"K. c #A3958A",
"L. c #AB928C",
"P. c #A59A8C",
"I. c #AC9587",
"U. c #B1998F",
"Y. c #A99593",
"T. c #A59C95",
"R. c #AC9B94",
"E. c #AA9F9B",
"W. c #A2969A",
"Q. c #B59693",
"!. c #ABA194",
"~. c #B6A69B",
"^. c #B8A896",
"/. c #9E9BA2",
"(. c #A39EA2",
"). c #B7ADA1",
"_. c #BEADA3",
"`. c #B4A6A6",
"'. c #BCB4AA",
"]. c #BBB1A5",
"[. c #C1AFA3",
"{. c #C9B9A0",
"}. c #C4B1AD",
"|. c #C8B8B8",
" X c #CEC3AF",
".X c #C6C0B2",
"XX c #CDC9BD",
"oX c #D8C5B7",
"OX c #DCCFC6",
"+X c #DCD4C7",
"@X c #E4D5CD",
"#X c #E2D4C5",
"$X c #F3E5CF",
"%X c #F6E6D6",
"&X c #F2E1DA",
"*X c #FFF5DB",
/* pixels */
"q 0 4 0 <.oXu.u.M.b.M.W.'..XJ.8 6 8 K.!.",
">.&.0 0 <._.T.8.%...+.+.%.'.].Q 1.H.!.).",
"D A 0 5 S ~.T.8.+.j.q.o.%...!.p.K.R._.~.",
"4 9 E 6 9.R.C.q.$.#.@.o.} } Y 3.R E u.J ",
"N 3 [ [ !.W.m.j.h.v.@.c.0.7.} l Y 8.u.B.",
"M C 1.A.E.W.A.c.h.@.#.{ | K K ! H y.'.XX",
"V ,.M.A.S.c.k.~ o.h.c K ] w z ! [ V R K.",
"S a.M.M.k.#.1 $ ` Z.n.0.z.w a   N U.Q p.",
"E u.a.| O Y , , ] n.:.F = @ p X 3 !.<.J.",
"] Y.L.+ 6 '.s.} ! w ; = z X ) X M p.g.J.",
"| r.w.& 5.$X#X9.h F a a = 3 G.* S ;.g.g.",
":.:.L.5 {.*X XV N i ; w % > Q.A *.i.d.g.",
"7. .2.T ^.$X^.W : - % @ - 2 F.S 4.G.i.i.",
"E w.,.s.I.%X#XK.J k : j / Y.Y.I e.f.i.-.",
";.,.3.X.!.@X&X@X+XV._.OX}.R.] d 2.5.5.*.",
";.3.u.T.q.`.|.8...k T.N.2 s r s E =.=.=.",
"*.Q 8.Z.(.D.m.# O ] b.- g g u < G U B P ",
"U 2...@./.D.Z.m.< - h ; e g u y h G n p ",
"*.1.x.` @.l.l.v.0.s w y g x e > 2 U M 4 ",
"D m 7.` v v b c K - o % g ^ u g - G C B "
};
