/* XPM */
static char *result[] = {
/* columns rows colors chars-per-pixel */
"32 32 97 2 ",
"   c #1D1F36",
".  c #1F2137",
"X  c #1F213A",
"o  c #22253C",
"O  c #232741",
"+  c #262A43",
"@  c #292D47",
"#  c #292E4A",
"$  c #2F3147",
"%  c #2B314D",
"&  c #393C4F",
"*  c #2E3452",
"=  c #2D3658",
"-  c #2F395D",
";  c #303654",
":  c #323956",
">  c #333B5C",
",  c #343E62",
"<  c #36405F",
"1  c #374164",
"2  c #394365",
"3  c #3B4669",
"4  c #3E496B",
"5  c #44475A",
"6  c #414761",
"7  c #424D6D",
"8  c #4C5067",
"9  c #4B536C",
"0  c #555869",
"q  c #434E70",
"w  c #465172",
"e  c #495575",
"r  c #4D5877",
"t  c #495778",
"y  c #4D5A7B",
"u  c #515E7E",
"i  c #52607F",
"p  c #5B657E",
"a  c #515F80",
"s  c #556383",
"d  c #596785",
"f  c #5B6986",
"g  c #5B6B89",
"h  c #606882",
"j  c #6A6F83",
"k  c #616E8C",
"l  c #6D7287",
"z  c #62718E",
"x  c #657491",
"c  c #697792",
"v  c #6B7A96",
"b  c #6E7D98",
"n  c #727C94",
"m  c #727F9A",
"M  c #73829D",
"N  c #7A879F",
"B  c #7E889E",
"V  c #7685A1",
"C  c #7A87A1",
"Z  c #7A89A4",
"A  c #7F8EA9",
"S  c #80869A",
"D  c #838A9E",
"F  c #878FA2",
"G  c #8791A6",
"H  c #8393AC",
"J  c #8B96AC",
"K  c #8697B0",
"L  c #8798B2",
"P  c #8B9BB4",
"I  c #8F9FB8",
"U  c #929EB4",
"Y  c #909FB8",
"T  c #8FA0B8",
"R  c #94A1B7",
"E  c #98A1B1",
"W  c #92A2BA",
"Q  c #98A6BC",
"!  c #9BA8BD",
"~  c #9CABC2",
"^  c #A1AFC3",
"/  c #A4B1C5",
"(  c #A6B4C8",
")  c #A9B6CA",
"_  c #ADBACD",
"`  c #B1BDCE",
"'  c #B2BED0",
"]  c #B5C2D3",
"[  c #B9C5D6",
"{  c #BFCAD7",
"}  c #BBC7D8",
"|  c #BDC9D9",
" . c #C2CDDD",
".. c #CAD2DE",
"X. c #C6D1E1",
"o. c #CBD5E4",
"O. c #CCD8E6",
/* pixels */
"e 1 7 w d d d g g d f g d g t 1 , > v M m v c c c M k , 7 q s f ",
"e 2 2 3 d d d g d f f f g g t 1 3 7 L Y U P Y R I Q Z , 3 2 a f ",
": + > 2 3 3 3 3 3 3 3 3 4 4 4 1 c K ' | [ [ [ [ [ | ( A d , 4 4 ",
"; @ 4 e 4 t t 4 w w w 3 1 , 1 , V ~ ' } [ [ [ [ ] } _ ~ v q 3 3 ",
"* , b I L P L P P P P w - o = 1 V I L L P P P P L K Q X.^ P y - ",
"7 d L / ~ ~ ~ W P P L c r % > 1 x Z L L P P P P P K Q _ ^ ( n a ",
"x I ] o.X.X.O._ L P L Q Z 2 3 2 y g L I P P L P P P P K ( O.^ Y ",
"m ' ~ ~ ~ ~ ~ W L P L P N , 3 1 a g v V P P P P P P P L Q ~ Z x ",
"Z O.Q H K H L L P P P P V , 3 2 a g s x P L P P L P L L L L x a ",
"u v H P R ^ P P P Y L c d 2 : + 1 4 d g x z z z z z x k x z g g ",
"w u M R ^ U H H H H H d y 3 : # : 2 i s a a i i a a a a s a s s ",
"3 , f U v d g g g g f , , , , , # O 2 2 2 2 3 2 3 2 2 3 2 3 2 2 ",
", d F k r u y t 7 t y d f f d g < * : : 8 * = 2 3 2 3 3 > : 2 3 ",
"h n 3 = - - , #   = 2 K T P I W y > + . & $ X > 1 , , , * o > 3 ",
"n u B U U J m g 7 z M ( _ ' ~ K V c 2 ; o * : g M v v V 8 o , 3 ",
"e d ) O.X.[ R Z d H Q |  .X.( K T L 7 < + : 3 Z W T P ~ p o 1 3 ",
"z L L T T P T M s A T T W T T T P L 4 2 > d H ( } } _ P b i : @ ",
"z W H K P L H b y N K A A A A A A C 4 2 , x T _ } } _ P M f > O ",
"z Q T T R A g t 1 i g g g g g g q 1 3 3 , g Q L L P P T M d 4 i ",
"r v M C Z v t w 1 e y y y y y y 4 2 : > , d Z H L P L P M u f S ",
"% , y f s t - < 1 - 2 2 1 1 1 1 3 3 + # 2 e d A T T P T M S D 9 ",
"9 % 4 t N Z M v b b M C x a 4 3 ; % + % 2 e g x v v c v J J w , ",
"p o > 4 K W T T T T T W A z t 3 % O + % 2 e f s s s z G B d 4 2 ",
"g = b H H W } [ } [ } | _ A v s 7 > + % 3 3 4 s g b E M t 3 4 2 ",
"z > V W I / ..[ [ [ ] } _ I M d w < @ % 1 1 2 t i s d a q : 2 2 ",
"x > V W  .{ / ! L L L L L T V d 7 1 + o o ; 3 3 3 2 3 4 = o > 3 ",
"s , x J ` ] R P L L P P K Z x d q 1 ; * * > 3 > : : : > : * 2 3 ",
"t , z G U W P P I I I T A s d g q 2 2 1 1 1 , % o + O o * 3 , , ",
"< 8 B Z v c v v v v v b x g y w 3 3 c m b b M 7 ; + # = u M v n ",
"l 0 f x s d s d s s s s d g e , 2 7 K Q Q T W y 1 @ * 1 z Q I R ",
"l 5 > 4 d g f f f g g g s 3 3 3 y f ' } | / K x a , e H H K _ | ",
"5 o = 2 a s d s s d s d y 1 1 1 y x ' } | ~ L v d 2 y T I I ' | "
};
