/* XPM */
static char *result[] = {
/* columns rows colors chars-per-pixel */
"32 32 183 2 ",
"   c #3E3B1A",
".  c #572E1D",
"X  c #463B1D",
"o  c #58341B",
"O  c #5C321F",
"+  c #673918",
"@  c #733F17",
"#  c #733E1B",
"$  c #5E3422",
"%  c #573824",
"&  c #5A3D2B",
"*  c #563F32",
"=  c #623623",
"-  c #653926",
";  c #6B3B26",
":  c #653C2A",
">  c #6A3D2B",
",  c #703F2E",
"<  c #623F32",
"1  c #2A5D07",
"2  c #33550E",
"3  c #3D4617",
"4  c #1B6E07",
"5  c #177603",
"6  c #277D09",
"7  c #49540C",
"8  c #424B1A",
"9  c #54471B",
"0  c #52481F",
"q  c #4A5115",
"w  c #54541B",
"e  c #595E1C",
"r  c #7F441D",
"t  c #5B6819",
"y  c #5C7119",
"u  c #49452B",
"i  c #574B20",
"p  c #52432D",
"a  c #54492F",
"s  c #544333",
"d  c #5A4235",
"f  c #5D4739",
"g  c #5D4A3D",
"h  c #66402C",
"j  c #6D412E",
"k  c #71432E",
"l  c #664234",
"z  c #6D4431",
"x  c #624439",
"c  c #6C473B",
"v  c #624C3D",
"b  c #6C493B",
"n  c #724532",
"m  c #784736",
"M  c #764936",
"N  c #7A4B35",
"B  c #754B3A",
"V  c #7A4C3A",
"C  c #7C503D",
"Z  c #5F6623",
"A  c #644D42",
"S  c #6E4D41",
"D  c #704D40",
"F  c #6D5247",
"G  c #6D544A",
"H  c #735345",
"J  c #765946",
"K  c #745549",
"L  c #7A574B",
"P  c #745A4D",
"I  c #6D5E57",
"U  c #5F6358",
"Y  c #646949",
"T  c #636D55",
"R  c #7B6156",
"E  c #75625C",
"W  c #7C645A",
"Q  c #676665",
"!  c #7E6B65",
"~  c #7B6D69",
"^  c #6F7A6F",
"/  c #78716D",
"(  c #7F7D7E",
")  c #854A1C",
"_  c #944D19",
"`  c #9B521B",
"'  c #A7591F",
"]  c #92641B",
"[  c #966421",
"{  c #CB7B2E",
"}  c #D6792E",
"|  c #DB7D30",
" . c #825542",
".. c #846459",
"X. c #82695F",
"o. c #876D62",
"O. c #847169",
"+. c #91786E",
"@. c #877975",
"#. c #907C76",
"$. c #1C891A",
"%. c #329D12",
"&. c #05A903",
"*. c #14AC06",
"=. c #29A80B",
"-. c #38A618",
";. c #38B614",
":. c #3BB42D",
">. c #3BB928",
",. c #41BA1F",
"<. c #43AB2F",
"1. c #43B83B",
"2. c #45C119",
"3. c #4CC51C",
"4. c #4ECD1D",
"5. c #51C61E",
"6. c #4BC230",
"7. c #79D82C",
"8. c #7ED934",
"9. c #5C8643",
"0. c #48B745",
"q. c #7BD246",
"w. c #C1852C",
"e. c #DA8339",
"r. c #E38A3C",
"t. c #85CC2E",
"y. c #88CB2F",
"u. c #81D92F",
"i. c #84DB31",
"p. c #87D836",
"a. c #8BDE34",
"s. c #92DA34",
"d. c #8DE536",
"f. c #94EA36",
"g. c #96E639",
"h. c #94E43B",
"j. c #9BEB39",
"k. c #A3F23B",
"l. c #ABF43E",
"z. c #80AE42",
"x. c #8ABA4F",
"c. c #8EBE53",
"v. c #948074",
"b. c #F5AB5C",
"n. c #F8B464",
"m. c #FCBD6D",
"M. c #8ACB42",
"N. c #88D54A",
"B. c #99DE4D",
"V. c #8FC155",
"C. c #93DB53",
"Z. c #A3E142",
"A. c #ACF440",
"S. c #B0F740",
"D. c #B4FA41",
"F. c #9BCC64",
"G. c #A4DA76",
"H. c #978988",
"J. c #9C9092",
"K. c #B3B1AB",
"L. c #BAB6B3",
"P. c #C2BBBC",
"I. c #A5D88D",
"U. c #A8CCA6",
"Y. c #BBCDA7",
"T. c #BDCEB7",
"R. c #C2D9A8",
"E. c #C6D7B5",
"W. c #D7EEBD",
"Q. c #D1CDCE",
"!. c #C8DEC0",
"~. c #D1D3CD",
"^. c #DADAD7",
"/. c #E1DFD9",
"(. c #DAEDC4",
"). c #D9E5D9",
"_. c #E2E6DD",
"`. c #E4E5E3",
"'. c #E9E6E7",
"]. c #E7F1E7",
"[. c #F1EDF1",
"{. c #F7F6F7",
"}. c #FDF9FD",
/* pixels */
"N N N N k # = = = : , F ! * 0 v H.g i d ! J j % $ h h z V C N n ",
"N N N N N k - O $ $ < A * e z.0 s w q.t s P B h O h z M M M V N ",
"k k k N N N j > > : F W i F.E.c.0 x.P.F.9 W R : = z M M n n m m ",
"k j k k n n n j B B c g G ^.`.^./ /././.P d b $ = z B M > k k n ",
"j n j : = = : : V L M H K.J.( ^.^ ^.( J.L.S z : = : z z n n n n ",
"j n z - O - j n C ..X.P Q.Q Q E.1.!.Q Q Q.P R E $ = - > n m n n ",
"h z z : $ z B C ..O.g K Q.U Y N.8.M.T U Q.J s ~ P - = = > n n n ",
"h z l $ : z B M c f q x.R.M.B.A.A.l.Z.M.Y.V.q s b > - O = > , n ",
"z h : : : : : z < 8 %.p.B.A.D.S.D.l.D.l.B.p.-.8 B B > > - = - j ",
"$ % $ : : - : z : G I.d.l.D.k.4.k.4.k.D.l.d.I.Y : M B n - O $ - ",
"$ $ - j : $ $ : = W (.h.D.D.l.7.k.7.k.D.D.h.W.o.$ n m B j $ = - ",
"- > M z > = $ + $ W (.h.D.D.D.A.l.k.D.D.D.h.W.o.: n , z z j : - ",
"> M C N k j : O . R (.g.D.D.D.D.D.D.D.D.l.g.W.o.M m j - : j : - ",
"; k N N n n n j . P E.a.k.D.D.D.D.D.D.D.j.d.R.X.: n > = $ - j n ",
"k ; k k N k N N & * W i.i.j.D.D.D.D.D.k.a.u.Y A = - - = h z B B ",
"N j + N N k k C G F 2 5.i.i.j.j.j.j.j.a.u.5.w G D - + - k C B z ",
"k k n k ; - - > B R X $.2.5.u.i.i.i.u.5.2.6 8 K F = j n B m M k ",
"k n n n n > - - = b F X 5 *.2.3.5.3.3.*.5   A A . : j z n j > , ",
"j n n n n , ; - j J #.I   4 $.&.&.&.$.4 3 I ! K $ - j j > > n m ",
"> > k , > > > - n M J / u 2 9.0.0.0.9.2 u / P O : z z j > > , n ",
"> > > = = - > > = B L p 1 >.G.~.~.~.G.,.1 u P b z z > - = + $ = ",
"= - = O O - > > c W R 8 ;.N._.[.[.[.'.C.;.3 R +.B > > - = - = = ",
"= = = + > n k ; J E a y 7.q.).}.}.}.`.N.i.y p ! P j < k , , , , ",
"= = = > V  .M = < p t s.f.6.U.}.}.{.U.6.f.h.y % x M B m n > > , ",
"= > n , n M n B > e p.D.D.d.:.].}.].:.d.D.D.a.e > M n V n = : M ",
"n m n n z M n n z w y.A.D.f.1.).[.].0.d.D.l.y.Z : j n n n - $ = ",
"m V m z > n n n S f 9 7.f.N.Y.`.'.'.T.q.f.t.t g b n n n M z : $ ",
"n n M > > > k n W @.s 7 =.:.K.L.P.P.L.<.=.7 p @.o.n > > j n z : ",
"> > n > > > > > * f # { w.] o % * % o [ w.{ r * c n k - : z z h ",
"; > n n n > > - . r e.n.b.} _ . v.. _ { b.n.e.# $ k n n j j j j ",
"= > > , > > ; = . @ r.m.n.e.' . C o ` | n.m.r.k $ , k n j j - - ",
"O - > > > > > - : & ) r.e.' + d l d o ' e.r._ : : - - = = $ o % "
};
