/* XPM */
static char *result[] = {
/* columns rows colors chars-per-pixel */
"32 32 186 2 ",
"   c #3C3710",
".  c #463A0A",
"X  c #4B2B16",
"o  c #562C16",
"O  c #532D1C",
"+  c #483914",
"@  c #55331F",
"#  c #5C321E",
"$  c #653514",
"%  c #683817",
"&  c #62341D",
"*  c #6B3A1B",
"=  c #753E17",
"-  c #4D3522",
";  c #4E3B23",
":  c #4F3828",
">  c #543523",
",  c #5D3422",
"<  c #5B3825",
"1  c #5A3528",
"2  c #563C2C",
"3  c #5C3C2D",
"4  c #4D3C33",
"5  c #553E30",
"6  c #5B3F33",
"7  c #623623",
"8  c #683726",
"9  c #643926",
"0  c #6A3C25",
"q  c #653C2A",
"w  c #6A3D2B",
"e  c #703F2E",
"r  c #2A5509",
"t  c #38590F",
"y  c #3E471B",
"u  c #28690D",
"i  c #2E7609",
"p  c #52440D",
"a  c #4C4717",
"s  c #57461C",
"d  c #555619",
"f  c #416713",
"g  c #5A641A",
"h  c #54791D",
"j  c #60601C",
"k  c #687D1D",
"l  c #574629",
"z  c #544132",
"x  c #5C4234",
"c  c #57433A",
"v  c #4D5A3F",
"b  c #515B3B",
"n  c #66412C",
"m  c #6D412E",
"M  c #7D4724",
"N  c #72432E",
"B  c #644334",
"V  c #6D4431",
"C  c #6C4739",
"Z  c #64493D",
"A  c #6D4A3B",
"S  c #724532",
"D  c #784736",
"F  c #754935",
"G  c #7A4B35",
"H  c #754B39",
"J  c #7A4C3A",
"K  c #795135",
"L  c #7C523E",
"P  c #647A21",
"I  c #6E733D",
"U  c #624D44",
"Y  c #6E4E41",
"T  c #734C41",
"R  c #765D53",
"E  c #6E6F59",
"W  c #8A4A18",
"Q  c #9D531B",
"!  c #9B6E1D",
"~  c #87781D",
"^  c #A9681F",
"/  c #8C5525",
"(  c #AC5D20",
")  c #956920",
"_  c #B56222",
"`  c #BB6726",
"'  c #D4792C",
"]  c #DC7B2D",
"[  c #E17E2F",
"{  c #886C62",
"}  c #2E940E",
"|  c #0EA208",
" . c #27A60A",
".. c #25B90E",
"X. c #33AE12",
"o. c #3ABB14",
"O. c #37AD21",
"+. c #34BB20",
"@. c #548517",
"#. c #7A8117",
"$. c #4EB919",
"%. c #71962F",
"&. c #43BF22",
"*. c #76B42A",
"=. c #7AB939",
"-. c #3BC116",
";. c #49C51C",
":. c #54C91F",
">. c #47C423",
",. c #68C925",
"<. c #7BCC2C",
"1. c #6FD329",
"2. c #75D62B",
"3. c #7AD92D",
"4. c #64CE32",
"5. c #7DCF3A",
"6. c #76D633",
"7. c #7CBC78",
"8. c #7CC379",
"9. c #82A83E",
"0. c #D98932",
"q. c #E39439",
"w. c #83CB2E",
"e. c #81DD2F",
"r. c #84DB31",
"t. c #8ADE33",
"y. c #8BD73A",
"u. c #90D934",
"i. c #8BE333",
"p. c #8BE832",
"a. c #96E637",
"s. c #96E937",
"d. c #90E13B",
"f. c #9DEC39",
"g. c #9DF039",
"h. c #A9E73C",
"j. c #B8E93E",
"k. c #A5F23C",
"l. c #ADF63F",
"z. c #BC875F",
"x. c #8F8078",
"c. c #908771",
"v. c #CD8D5C",
"b. c #E99445",
"n. c #F4AC5D",
"m. c #D19A65",
"M. c #FBBB6C",
"N. c #89CB4D",
"B. c #8ADB44",
"V. c #91D949",
"C. c #92C355",
"Z. c #97D855",
"A. c #ADF541",
"S. c #B0F740",
"D. c #B4FA42",
"F. c #A2E25E",
"G. c #A1E164",
"H. c #B6EC6B",
"J. c #828181",
"K. c #A1A68E",
"L. c #9ED28C",
"P. c #98C891",
"I. c #B5C79D",
"U. c #B1C8A3",
"Y. c #B9DCB6",
"T. c #BCE5B5",
"R. c #D9C99F",
"E. c #C6D1B9",
"W. c #C3E2A2",
"Q. c #C8E9AA",
"!. c #CFC9CA",
"~. c #CDD7C0",
"^. c #D8D5D5",
"/. c #DADAD9",
"(. c #DBF1C6",
"). c #DDF0DD",
"_. c #E4E9DC",
"`. c #E4DFE2",
"'. c #E5E1E3",
"]. c #EAEBE5",
"[. c #EBE8EA",
"{. c #F0EDEE",
"}. c #EFF4E6",
"|. c #F4F4F2",
" X c #F8F4F8",
".X c #FEFAFD",
/* pixels */
"G G G G N * 9 7 7 w V w q 1 6 A { H H V w q m < 7 n V S K J J D ",
"G G G G G N 9 # , < 1 , 1 1 > z l z A H w S V n # n V V F G D G ",
"N N N G G G N 0 w 9 9 9 6 c + a *.l O B q m V n < m H F S S D D ",
"N m N N S F S m T F F C 6 d =.O.5.K.- + + s z q 9 m H F e V e S ",
"w F V q 7 7 q q L J J A z C.!.U.N.E + } *.<.d + 2 x V V S S S m ",
"V V V 9 # 9 m S H F C x U ^.^.J.Y.E =.a.k.l.h.u.g - 3 w S D D S ",
"w C V q < V H L S V 3 d C.].[.J.~.Z.A.S.a.g.l.l.u.d O 9 w S S S ",
"q V w 9 9 V F F H H z d Z.|.[.%.N.A.A.S.k.;.p.D.l.k - 6 7 w m m ",
"B n 9 q 9 q w V w O a *.Z.}.|.E.V.D.D.D.D.f.l.D.l.u.g , 9 7 q m ",
"9 , < 9 q < q q M ~ } r.d.G.G.F.A.D.D.D.D.D.D.D.D.f.P < 9 # # q ",
", # 7 m q 7 7 < = 9.&.(.(.Q.y.r.l.D.D.D.D.D.D.D.l.a.P q m 7 , 9 ",
"9 w V F m 7 # n % R Y..X.X.XT.&.a.l.D.D.D.D.D.S.k.:.f , V m q 9 ",
"w G K G N m q , e v.]..X.X.X).+.2.a.A.D.D.D.D.k.t.h y < q m q 9 ",
"0 S G G N G S 7 = v.'..X.X.X|.8.;.2.a.s.s.s.a.i.;.f @ q , q m S ",
"N N 0 N G S F S 7 G x.'. X X'./.8.+.2.r.r.r.e.:.i y 3 w q m K H ",
"G 0 0 G G N N J 1 6 5 c.W.{.'.[./.7.h $.-.-.@.f y > 3 q S L H m ",
"N N S N w 0 8 w 9 Z U ; %.W.[.[.^.{ c u u u y X > 3 n G D G D S ",
"m S S S w w 9 9 , A R c . B.W.].!.> U 1 O O 3 B > 9 n V S m e w ",
"N S S S S N 0 9 m A A l k t.B._./.x Y C 7 # # < # q m m w w e D ",
"w w S w q 7 , < Z B c I t.k.1.T.'.R 2 9 7 9 7 # n m m m w w e S ",
"w w 0 7 O s j l 4 < L I.i.s...B.}.!.3 , q S V m V V w 9 7 & & & ",
"7 9 7 # O k h.9.n = z.I.3.s.-.4.T.`.B , w S H L m m q 9 8 9 7 8 ",
"7 7 7 7 , h i.H.R.m.m.L...g.e.-.o.P.x 7 m S J L w m w V V e e e ",
"7 7 9 w 6 t X.6.G.Q.Q.1.-.2.l.l.r.X.  > B H H V m S H D V w w e ",
"8 0 m S B : r X.:.>.d.r.,...g.l.l.w.. o # 6 6 w H S S G V 7 9 S ",
"S S S S m 5 @ t $.e.l.k.1...2.l.k.<.p Q ( $ 6 A F m S F V q 7 9 ",
"D D F S B @ = ^ #.$.j.h.w.:. .p.2.$.! ' [ _ & S S S S N S V q 7 ",
"S D S m # = _ ] 0.0.q.0.9.} |  . .! ' [ [ _ & q F S e w m S m q ",
"w N S w B > W ] b.M.M.n.` v b ) ^ ' ] ' _ $ 1 q w S V 0 q m V n ",
"9 w N N n 6 > W b.M.M.n.` X X ( ' ' _ $ o 3 w V 8 N S N m V m n ",
"7 w m w w C x > $ / b.` n c 5 # * * $ < O , 8 e w e N N m n n q ",
"& 9 w w w w m Y Y ; * * x C A m 9 n n w 8 # 8 8 w 8 8 9 9 # # # "
};
