/* XPM */
static char *result[] = {
/* columns rows colors chars-per-pixel */
"32 32 178 2 ",
"   c #3B3B16",
".  c #492C18",
"X  c #542B1A",
"o  c #5A2E1B",
"O  c #5D321E",
"+  c #683619",
"@  c #4A3D29",
"#  c #5E3422",
"$  c #5F3924",
"%  c #5B392A",
"&  c #563F34",
"*  c #593E33",
"=  c #623623",
"-  c #683726",
";  c #653926",
":  c #6B3C26",
">  c #653C2A",
",  c #6A3D2B",
"<  c #703F2E",
"1  c #1F5703",
"2  c #2F4209",
"3  c #3B470C",
"4  c #255707",
"5  c #3A4917",
"6  c #3B4A17",
"7  c #147804",
"8  c #287C08",
"9  c #424712",
"0  c #4A4314",
"q  c #4F451C",
"w  c #52491A",
"e  c #55541A",
"r  c #486210",
"t  c #50402E",
"y  c #5C5226",
"u  c #544234",
"i  c #5B453A",
"p  c #6B4023",
"a  c #66402C",
"s  c #6D412E",
"d  c #71432E",
"f  c #7B4B29",
"g  c #644133",
"h  c #6D4431",
"j  c #64443A",
"k  c #664E3C",
"l  c #6C493C",
"z  c #724532",
"x  c #784736",
"c  c #754935",
"v  c #7A4B35",
"b  c #71473A",
"n  c #744B3A",
"m  c #7A4C39",
"M  c #7D513D",
"N  c #4F6939",
"B  c #5C5F57",
"V  c #644C44",
"C  c #6D4D41",
"Z  c #724F42",
"A  c #6B5246",
"S  c #69534B",
"D  c #745144",
"F  c #7B5343",
"G  c #74554A",
"H  c #795548",
"J  c #75594E",
"K  c #7C5A4E",
"L  c #665B57",
"P  c #755B52",
"I  c #7B5D53",
"U  c #70634D",
"Y  c #797F4C",
"T  c #616D52",
"R  c #7D6257",
"E  c #7D635A",
"W  c #686767",
"Q  c #6F7C6F",
"!  c #79716D",
"~  c #885E16",
"^  c #AB5B1C",
"/  c #936416",
"(  c #804F3E",
")  c #B16F2D",
"_  c #C9732A",
"`  c #815441",
"'  c #85665B",
"]  c #836B64",
"[  c #8D6E64",
"{  c #86736D",
"}  c #897C79",
"|  c #917E78",
" . c #C17F48",
".. c #1B8C1A",
"X. c #179516",
"o. c #259209",
"O. c #379D14",
"+. c #01AA01",
"@. c #08A803",
"#. c #10AB05",
"$. c #26A909",
"%. c #29B10E",
"&. c #32A91C",
"*. c #24B211",
"=. c #33AB2F",
"-. c #34BA2D",
";. c #3CBD29",
":. c #3DB937",
">. c #45BB17",
",. c #52A73E",
"<. c #7DAE39",
"1. c #4BC419",
"2. c #4DC91A",
"3. c #57C81D",
"4. c #6ACE23",
"5. c #6ED427",
"6. c #77D828",
"7. c #7CD831",
"8. c #598142",
"9. c #43AF43",
"0. c #46B342",
"q. c #5CC05B",
"w. c #79CD44",
"e. c #DC8638",
"r. c #84D72E",
"t. c #84DB2D",
"y. c #8ADF2E",
"u. c #86C835",
"i. c #87D937",
"p. c #8DDE32",
"a. c #8FE333",
"s. c #94E436",
"d. c #96EB34",
"f. c #9DED36",
"g. c #93E338",
"h. c #A4ED39",
"j. c #A3F239",
"k. c #AAF33B",
"l. c #B3F93F",
"z. c #828F55",
"x. c #8AB84B",
"c. c #E59445",
"v. c #F3AC5B",
"b. c #F4B465",
"n. c #F4B96C",
"m. c #8CD44A",
"M. c #99D847",
"N. c #9BDF4D",
"B. c #97C95C",
"V. c #B6FB40",
"C. c #FEC272",
"Z. c #878587",
"A. c #9B8F91",
"S. c #A09496",
"D. c #A1B69A",
"F. c #B4A9A9",
"G. c #CEBDB5",
"H. c #9FD883",
"J. c #A9D991",
"K. c #BDD1A5",
"L. c #B4D1AE",
"P. c #C3D7AC",
"I. c #C6C3BB",
"U. c #D6EEBB",
"Y. c #CAC7C7",
"T. c #CCCBCA",
"R. c #CDD8C8",
"E. c #D6D6D6",
"W. c #DBDBDB",
"Q. c #CAE0C3",
"!. c #DAEDC3",
"~. c #DAE5DA",
"^. c #E1E2D7",
"/. c #E9E6E7",
"(. c #EAEAEA",
"). c #E5F1E5",
"_. c #FAF6FA",
"`. c #FDF9FD",
/* pixels */
"v v v v f : - = = , C C % % j P b , < H a a s = $ a s c v M v c ",
"v v v v c , - O # # C E @ @ V z.V @ & ] D h z a O a h h n c v x ",
"d d f c v c d , > h j u e <.. u q <.w i A c c ; $ s n c z z x x ",
"d s d s z z z s x ' ] y B.P.x.w x.P.B.q ] K h = = s n c < s z < ",
"s z s > = ; ; > m n V S /.(.W.Z.^./.^.S & l h % # > h z z z z d ",
"s z h - O ; s z Z < C F.A.Z.W.8.W.} S.F.j g h # # $ - , z x x z ",
"a h h > ; h n F ] ' J Y.L W Q.0.R.W W T.l E I % - = = = , z z h ",
"a h a % ; h n ' ] i S T.B T m.7.m.T B T.k & { I a a = = = > s s ",
"h a > > > > , C i e x.K.u.M.k.k.k.g.x.K.x.0 i H ( v s > - = > s ",
"% # # > > # > % 6 O.i.N.k.l.V.V.V.l.j.N.i.O.  % c m m z ; o O > ",
"O O % s , # # # U H.g.k.l.j.2.d.2.h.V.j.a.J.V o , d c v a ; # ; ",
": a z z , # # X ] U.g.V.V.k.5.f.5.k.V.V.g.!.I # z d s h h s > ; ",
", v M v s s , X ] U.s.l.V.l.k.l.k.V.V.V.g.!.] = ( x a - > a a ; ",
": c v v d v z # ] U.s.l.V.V.V.V.V.V.l.l.g.!.' # c z s = = - s z ",
"d : p d v c c a R P.a.f.l.V.V.V.V.l.V.d.p.P.P = - - > = a h v n ",
"v : : v v d d h * z.t.p.h.l.V.V.V.l.f.p.r.Y V , : - + ; s M n h ",
"d d z z : > - J * 3 3.7.p.f.f.f.f.f.y.t.3.6 A C o = s c m m x d ",
"s z z z z : > H I   o.1.3.t.t.t.t.r.3.>.8 9 J I O % a z z , < , ",
"s z z z z < > = G S   7 #.2.2.2.2.1.#.7   L j % # > s s , , z x ",
", , h < , , , > ' { S   7 X.+.+.@.....4 @ ! J O > a s s : - < z ",
"> > : = + = , , = ' | @ 3 8.:.9.9.Q Q X.1 @ J n z z a - = = = = ",
"= : = = = = , , = Z E 9 %.w.R.E.E.E.R.=.+.  E ' s a > - - - = = ",
"= = = = > x h - < = @ r 4.-.~._._.`.(.q.*.4 t n a a a s d , , z ",
"= = = : m ` n = , X 5 >.d.;.L./.`.`.`.R.m.#.6 , s c n x z , , < ",
"- : s s z c m x n = w s.k.6.;.L._.`._.T.w.$.6 # v z c c s = ; z ",
"z x c z d z c z m > e k.l.k.5.-.).`.(.L.=.2 i Z z s h x z > ; ; ",
"c n c z s z z h z > w r.h.d.5.:.W./.G.,.N . ] [ c z z z z h > # ",
"z x z , , , d s = > & 3 $.$.&.D.I.G. .) ) + * b x z , , s h s > ",
", , z , , s , , - J E O / / ~ % L ) e.v.b.e.p = : d s , a h h a ",
": , z z s , > = = , D g O o O & . _ v.n.C.b.f > - < c s s s s a ",
"= , h , < , : = = > z z h , n { X ^ e.b.n.c.< = : < z z a a p > ",
"= = , , , : > : - z n z h c n I * + + : : + = > , - - = - O O $ "
};
