/* XPM */
static char *result[] = {
/* columns rows colors chars-per-pixel */
"32 32 191 2 ",
"   c #3E3613",
".  c #4D2E1C",
"X  c #542C14",
"o  c #522C1A",
"O  c #5B2F18",
"+  c #443816",
"@  c #4D3D1C",
"#  c #5A3417",
"$  c #54301F",
"%  c #5D321E",
"&  c #623412",
"*  c #64381B",
"=  c #4C3C26",
"-  c #553322",
";  c #5D3522",
":  c #543C25",
">  c #5F3925",
",  c #533B2B",
"<  c #5C3B2C",
"1  c #4E3F38",
"2  c #563E32",
"3  c #5C3E31",
"4  c #623623",
"5  c #643926",
"6  c #6B3C25",
"7  c #643C2A",
"8  c #6A3D2B",
"9  c #713F27",
"0  c #673F30",
"q  c #37450E",
"w  c #2B560B",
"e  c #3A5D14",
"r  c #37660F",
"t  c #2B6713",
"y  c #3F7031",
"u  c #4A430E",
"i  c #474617",
"p  c #504417",
"a  c #55421C",
"s  c #4C5915",
"d  c #535119",
"f  c #78401E",
"g  c #426E0E",
"h  c #59671C",
"j  c #5D761B",
"k  c #63621D",
"l  c #66781C",
"z  c #494425",
"x  c #584C27",
"c  c #5B4134",
"v  c #574539",
"b  c #66402D",
"n  c #6D412E",
"m  c #72442E",
"M  c #654233",
"N  c #6D4432",
"B  c #64463C",
"V  c #68473B",
"C  c #6B4A3C",
"Z  c #724532",
"A  c #784736",
"S  c #754935",
"D  c #7B4B35",
"F  c #754C3A",
"G  c #7A4B39",
"H  c #645634",
"J  c #7C513D",
"K  c #725C3A",
"L  c #4F6C33",
"P  c #686721",
"I  c #606C21",
"U  c #75633B",
"Y  c #674E41",
"T  c #6A5647",
"R  c #795845",
"E  c #566044",
"W  c #6D6C5A",
"Q  c #72776C",
"!  c #A6591E",
"~  c #87741A",
"^  c #875C2D",
"/  c #985727",
"(  c #B36426",
")  c #B76B2A",
"_  c #A87321",
"`  c #B67329",
"'  c #CF732B",
"]  c #C37735",
"[  c #D97D34",
"{  c #825542",
"}  c #857766",
"|  c #8F7E75",
" . c #C17840",
".. c #149508",
"X. c #27870A",
"o. c #2C9E0D",
"O. c #3C9C18",
"+. c #19A50F",
"@. c #18B20A",
"#. c #1DA610",
"$. c #37AB15",
"%. c #2BB918",
"&. c #34B428",
"*. c #33B62D",
"=. c #4A8914",
"-. c #44A914",
";. c #459F26",
":. c #698725",
">. c #718022",
",. c #738E37",
"<. c #70AD27",
"1. c #77B928",
"2. c #78B836",
"3. c #3DC216",
"4. c #42C318",
"5. c #4CC51C",
"6. c #4CCA1C",
"7. c #54C91F",
"8. c #45C326",
"9. c #4AC128",
"0. c #5BCC22",
"q. c #67CA27",
"w. c #7BC228",
"e. c #74D62B",
"r. c #76D42D",
"t. c #7DD72E",
"y. c #5EB75A",
"u. c #7CBD76",
"i. c #7ACB48",
"p. c #CA832C",
"a. c #DB8136",
"s. c #E48738",
"d. c #81C82E",
"f. c #8DCD31",
"g. c #83D730",
"h. c #8FD332",
"j. c #84DA31",
"k. c #89DE33",
"l. c #87E231",
"z. c #8BE532",
"x. c #94E636",
"c. c #96E937",
"v. c #99EB38",
"b. c #A2E93B",
"n. c #A8F33D",
"m. c #ACF53E",
"M. c #CC8D5E",
"N. c #E79142",
"B. c #F2AD5F",
"V. c #C38B61",
"C. c #F7B667",
"Z. c #8DDC46",
"A. c #92DB49",
"S. c #8ECB54",
"D. c #91C753",
"F. c #9ADB59",
"G. c #9EE05A",
"H. c #ACF440",
"J. c #B4FA42",
"K. c #A3E267",
"L. c #A2A88F",
"P. c #C4B6A4",
"I. c #BADD94",
"U. c #AAC4A5",
"Y. c #C2E49F",
"T. c #C1C7B8",
"R. c #C5D5BD",
"E. c #C6EAAE",
"W. c #D1EFB2",
"Q. c #CDC6C7",
"!. c #D0CECC",
"~. c #CDD3C9",
"^. c #D7D9D6",
"/. c #E4D0C7",
"(. c #E1DBDE",
"). c #D8E1CC",
"_. c #DBF1C6",
"`. c #DAE8DA",
"'. c #E2E8DA",
"]. c #E3DEE2",
"[. c #E5E1E5",
"{. c #EAEDE3",
"}. c #E9EAE7",
"|. c #F1ECEF",
" X c #EAF2EA",
".X c #F2F4EC",
"XX c #F1EDF1",
"oX c #F6F4F3",
"OX c #F7F9F2",
"+X c #FAF6FA",
"@X c #FEFAFE",
/* pixels */
"D D D D m * 6 * 5 7 0 0 7 7 B W < 0 Z Z b b b % 5 b n Z G J G Z ",
"D D D D D m 4 ; ; ; 4 ; - 2 c a < 7 8 N b N S b # b N Z S S G D ",
"m m S S G S Z 6 7 5 4 % < 1 x <.q @ , Y N Z Z b > n F F Z 8 A A ",
"9 n m m Z Z Z 7 7 > @ @ . , L.i.&.2.d 3 b N N 4 4 n F Z Z Z 9 Z ",
"n Z N 5 4 7 3 : @ h d.q.X.  W S.U.).D.a M F Z 5 4 7 N Z Z Z Z Z ",
"n Z N 5 4 < : j f.b.m.n.c.2.W T.| (.^.H 2 M b ; ; 4 5 8 Z A A Z ",
"b N N 7 Y M I h.m.m.n.v.m.n.S.R.Q ].}.D.p c b % 5 5 4 4 8 Z Z Z ",
"b N 0 5 M , l H.J.l.6.m.J.J.H.S.Q ].oXF.p , 7 b b 7 4 ; 4 8 8 Z ",
"N 7 7 7 $ h f.J.J.H.v.J.J.J.J.Z.R..X XG.1.u X n ^ F 8 6 5 4 5 0 ",
"> ; ; 7 $ l v.J.J.J.J.J.J.J.J.H.G.K.K.Z.j.o.~ f 0 A R 9 5 % % 8 ",
"% ; 5 b - l c.J.J.J.J.J.J.J.J.H.k.Z.W._._.*.~ f 4 A G R 0 4 4 4 ",
"6 b Z Z - r 0.v.J.J.J.J.J.J.H.l.8.E.OX@X+X~.U * 0 0 8 9 Z 0 8 4 ",
"8 A ^ A 0 + =.j.H.J.J.J.J.H.c.e.%.`.@X@X@XXXV.n Z A 8 5 8 8 8 5 ",
"6 Z D Z V , e 0.k.x.c.c.c.x.t.9.u. X@X@X+X].M.f 8 A 8 4 4 4 N Z ",
"m 8 9 m Z M + X.0.j.j.j.j.r.9.u.^.[.+XoX].| R 9 5 8 6 4 5 N F F ",
"^ 5 6 A G N 3 i r =.3.3.-.:.u.^.}.[.}.Y.} B 0 V 8 6 4 5 Z J F N ",
"Z Z Z Z 8 8 7 3 o + t t t = | ^.[.Y.I.,.z c b 5 % > n S G A Z Z ",
"8 Z Z Z N 8 5 7 0 , ; ; , 1 - Q.`.A.t.u v B b b $ 5 b N m n 9 m ",
"Z Z Z Z Z 8 8 5 V 0 < < 0 1 Q (.'.A.g.>.: , > > % 7 b n 8 8 8 G ",
"8 8 Z 9 8 8 8 7 0 x h d + L ~.XX{.A.0.z.l + . o > > 7 8 8 8 8 A ",
"8 8 8 4 4 4 8 5 = l j.1.h y.}.@X.XZ.3.7.l.g s k P P # - 4 4 % 4 ",
"4 4 4 % ; 5 8 ; s q.j.e.i.~.oX@XOXK.t.@.z.6.5.x.H.H.>.$ 5 5 4 4 ",
"* 4 4 4 8 Z Z ; q ..0.6.*.!.+X@X+X~.i.3.z.v.6.6.x.t.I - 0 9 9 9 ",
"4 4 5 8 G { A < 2 q ..o.;.P././.|.).*.e.m.m.m.4.4.$.e 0 A 0 0 9 ",
"5 8 Z n Z Z G Z 0 , . K ` ` ]  .P.U.%.z.J.J.H.3...w , C n 4 7 N ",
"8 A A Z Z Z S Z R M O ( N.C.C.s.` O.@.0.z.n.t.$.w = V K Z 7 4 5 ",
"G G Z Z 8 Z Z Z Z 7 # ) B.C.C.C.a._ w.%.@.@.+.y v M N m Z Z b % ",
"Z A Z 8 8 8 m N 5 7 2 & ( ) ] B.s.` 1.e.q.%.L ^ b b n b n Z n 7 ",
"8 9 Z 8 8 8 8 8 5 4 0 3 & ! ( a.[ p.-.#.L E ^ ! G M m 6 b N N n ",
"5 8 Z Z Z 8 8 4 4 4 N Y c o Y T R [ p.H ^ / * O 3 V Z Z n n n b ",
"4 8 8 8 8 8 8 4 4 8 Z F B : . . / ( ' a X O < 7 5 N m Z n b b > ",
"4 5 8 8 8 8 8 6 5 Z S Z N N V < # * * M ; - ; 8 8 5 4 4 4 > % # "
};
