/* XPM */
static char *result[] = {
/* columns rows colors chars-per-pixel */
"32 32 183 2 ",
"   c #39340E",
".  c #3A3B0F",
"X  c #3D3713",
"o  c #562F0D",
"O  c #442C16",
"+  c #4B2E19",
"@  c #572D1B",
"#  c #473415",
"$  c #4D321C",
"%  c #433F1B",
"&  c #4B391B",
"*  c #52331C",
"=  c #5D321F",
"-  c #673916",
";  c #643A1B",
":  c #6B3D1C",
">  c #4E3322",
",  c #543623",
"<  c #5E3422",
"1  c #563B27",
"2  c #5D3925",
"3  c #563B2A",
"4  c #5C3B2C",
"5  c #5D3E31",
"6  c #623623",
"7  c #683726",
"8  c #643926",
"9  c #6B3B26",
"0  c #603728",
"q  c #653C2A",
"w  c #6A3D2A",
"e  c #703F2E",
"r  c #673E30",
"t  c #1F5D01",
"y  c #2C4706",
"u  c #394B0C",
"i  c #39560F",
"p  c #3B4112",
"a  c #364D11",
"s  c #3E4A15",
"d  c #3D5218",
"f  c #157601",
"g  c #2D6909",
"h  c #247806",
"j  c #3E730E",
"k  c #4A460C",
"l  c #49480D",
"z  c #45510D",
"x  c #484714",
"c  c #514617",
"v  c #495616",
"b  c #555919",
"n  c #60400E",
"m  c #44660F",
"M  c #56631A",
"N  c #54751E",
"B  c #4E422B",
"V  c #554728",
"C  c #544330",
"Z  c #5D4333",
"A  c #5B4738",
"S  c #66412D",
"D  c #6D412E",
"F  c #71432E",
"G  c #634333",
"H  c #6D4432",
"J  c #694639",
"K  c #654A3D",
"L  c #6C4838",
"P  c #724532",
"I  c #784736",
"U  c #764935",
"Y  c #7A4B35",
"T  c #744C3B",
"R  c #7A4C39",
"E  c #7C503D",
"W  c #627522",
"Q  c #704F43",
"!  c #6C5145",
"~  c #755245",
"^  c #9E5C1C",
"/  c #A4571E",
"(  c #906A1A",
")  c #88781A",
"_  c #804F3E",
"`  c #AF5E20",
"'  c #B76221",
"]  c #BB6523",
"[  c #B77A2A",
"{  c #BF7234",
"}  c #C46C28",
"|  c #CD722A",
" . c #D8792C",
".. c #C57334",
"X. c #C1763D",
"o. c #E17E2F",
"O. c #815441",
"+. c #099B01",
"@. c #3A860C",
"#. c #259E0B",
"$. c #319F0F",
"%. c #379D10",
"&. c #01A500",
"*. c #0EAC08",
"=. c #13AA0D",
"-. c #1DB00A",
";. c #29A30E",
":. c #26AC0D",
">. c #27B00D",
",. c #2DB40F",
"<. c #30B70F",
"1. c #3AA911",
"2. c #24B616",
"3. c #3AB918",
"4. c #34B924",
"5. c #44BE19",
"6. c #66A318",
"7. c #72AD27",
"8. c #74B327",
"9. c #77BB29",
"0. c #6CB530",
"q. c #77B835",
"w. c #44C319",
"e. c #4CC41C",
"r. c #54C321",
"t. c #6ACF27",
"y. c #6DCE28",
"u. c #7AC42B",
"i. c #7BCA2B",
"p. c #6FD229",
"a. c #74D42C",
"s. c #7CD42D",
"d. c #7ED92E",
"f. c #5EBD54",
"g. c #74BD5D",
"h. c #69C15D",
"j. c #A88122",
"k. c #B6852C",
"l. c #BB8234",
"z. c #94BB2F",
"x. c #92B43E",
"c. c #DE8133",
"v. c #E48333",
"b. c #88C32F",
"n. c #81D52F",
"m. c #81D92F",
"M. c #9EC331",
"N. c #8DD533",
"B. c #84DB31",
"V. c #87D935",
"C. c #92D436",
"Z. c #90D837",
"A. c #8AE033",
"S. c #A3EC3B",
"D. c #ABE83B",
"F. c #AAF43E",
"G. c #E89A5E",
"H. c #D5A946",
"J. c #EAA659",
"K. c #F0AD5E",
"L. c #C7976A",
"P. c #CFB379",
"I. c #EDA065",
"U. c #96DC56",
"Y. c #BBD04E",
"T. c #A2CC51",
"R. c #A0DF58",
"E. c #AFF740",
"W. c #ADD678",
"Q. c #BAF564",
"!. c #CBCD57",
"~. c #E1C762",
"^. c #CBB996",
"/. c #D4B492",
"(. c #D9BCA5",
"). c #B5DB9D",
"_. c #C1CC9E",
"`. c #D9CFAF",
"'. c #C8DCB8",
"]. c #E1D4BE",
"[. c #DCE1B5",
"{. c #E7D9C4",
"}. c #C8E5C2",
/* pixels */
"Y Y Y Y F : 8 ; 0 w r r 4 5 4 J L Q P H D S S = 2 S S P T E Y I ",
"Y Y Y Y Y F 7 = < < 0 5 # c > K 1 V & J S D U S = q P P R U Y I ",
"F F F Y Y U P 7 w r q & b 7.x & l 7.b * S H U q ; S R U P P I I ",
"F D F F P U P D T ~ ! b u.B.8.k 9.n.u.c Z L P 6 2 D R U P w P e ",
"D H H q 6 6 q q E T A v n.B.u.k i.B.s.z + H P 2 6 q H H P P P e ",
"D P H 8 = 8 D P Q G s ;.m.m.u.z i.B.d.;.. K J < = 6 8 w P I I P ",
"w H H q 8 H T E L V y ,.m.m.a.,.s.B.d.:.y + 2 < 8 8 6 8 w P P P ",
"S H D 2 8 H T L S d $.p.m.B.m.a.m.B.B.p.#.. 4 H S S 8 < 6 7 D D ",
"H S q q 8 q w J C v t.B.B.B.B.N.B.B.B.B.y.z > T _ Y w w 8 6 q D ",
"2 < < q q 2 q q d %.m.B.B.B.C.!.V.B.B.B.n.;.. 6 U U R P 8 = = q ",
"< = < D w < < * M t.B.B.B.B.C.~.Z.B.B.B.B.y.v = w F U U D 6 6 8 ",
"8 D P P D 6 = @ M m.B.B.B.m.C.H.C.B.B.B.B.n.M < P F D P H D q 6 ",
"w U _ Y F D q @ i e.B.B.B.B.B.M.B.B.B.B.d.5.v 8 _ Y w 9 q w q q ",
"9 P Y Y F Y P S % @.m.B.B.B.Z.Y.N.B.B.B.d.j > 4 I P w 6 = q D U ",
"F F D F Y U U T 3 a e.B.B.m.C.H.Z.B.B.m.5.x 1 q 7 7 8 8 8 D U T ",
"Y 9 : F Y F D E 4 X h 3.r.m.n.6.e.a.e.3.g x r P 7 7 ; 8 P E T H ",
"F F P F w 8 9 w 0 ,   f *.w.r.q.0.5.*.f X 1 q 8 = 2 S U Y Y I D ",
"P P P P F w 8 8 q G 1   f &.*.x.H.;.f   , G G D = 6 D P P D w e ",
"D F P P P D 7 8 e T K O y &.=.h.P.g.N # 1 4 2 2 = 8 S F w w P I ",
"w D P w w w w q P H 4 X t =.f.^.(.`.W.W # 1 Z = S D D S w 7 e P ",
"7 w w 6 < 7 7 w q q & g 2.f.^...} } /.W.W & G J U S w 8 7 = 6 ; ",
"6 8 6 = ; 9 w w 2 1 p 3.U.].{ v.o.o...].R.m B Q D D q 7 7 8 6 6 ",
"; 6 6 6 S P D 8 8 # m n.R.{.X.G.I.G...{.Q.e.z J q D D H H e e e ",
"6 7 6 w R O.U 6 2 u >.V.Q.[.L.'.}.'.L.`.Q.a.b q D U T P P w w e ",
"7 7 D D P U U U w a -.d.S.T._.4.2.4.).U.a.1.s < U P P Y H 6 8 P ",
"H I U P P P P I H s +.,.z.[ l.b.d.B.V.a.1.) ; H U D P U H q 6 8 ",
"U R U D D P P P S $ y @.l.K.J.k.D.E.A.<.) ^ ; e P P D P U H q < ",
"P I P D w D D D q 1 O n  .v.c.[ D.E.F.<.j.- , w I P D w S U D q ",
"w D P w w w w w 8 5 C -  .} ] ( 1.a.S.,.) ; q J 9 P H 7 q F H S ",
"8 w P D D w 9 8 6 < : |  .' / o X l 8.:.p 5 G e 7 F P F D D D S ",
"6 w D D w w 7 8 6 < : | ' ` ` + 1 $ c p 3 A r w 9 e P P S S 9 8 ",
"; 7 w w w w w 9 7 H r - = ; ; Z S S D q 0 0 7 7 e 7 7 ; 8 = = 2 "
};
