/* XPM */
static char *result[] = {
/* columns rows colors chars-per-pixel */
"32 32 189 2 ",
"   c #3E3913",
".  c #4F260E",
"X  c #473A0B",
"o  c #4C2C17",
"O  c #532C17",
"+  c #592F1D",
"@  c #423515",
"#  c #4F3F1B",
"$  c #55301F",
"%  c #5D321E",
"&  c #523B1B",
"*  c #643514",
"=  c #6A3917",
"-  c #61351B",
";  c #6B3A1C",
":  c #753D16",
">  c #4C3928",
",  c #543423",
"<  c #5D3422",
"1  c #553927",
"2  c #5D3926",
"3  c #553B2D",
"4  c #5C3C2B",
"5  c #543D33",
"6  c #5C3E31",
"7  c #623623",
"8  c #653926",
"9  c #6B3C26",
"0  c #653C2A",
"q  c #6A3E2B",
"w  c #703F2E",
"e  c #633F30",
"r  c #36510A",
"t  c #3A5D14",
"y  c #37660F",
"u  c #2C6712",
"i  c #4D4813",
"p  c #42411C",
"a  c #54431D",
"s  c #7A411A",
"d  c #5C671C",
"f  c #5C741B",
"g  c #63631F",
"h  c #657A1D",
"j  c #544F25",
"k  c #58452B",
"l  c #4F413A",
"z  c #5C4134",
"x  c #5C4539",
"c  c #4E5B3D",
"v  c #66402C",
"b  c #6D412E",
"n  c #744121",
"m  c #72442E",
"M  c #644334",
"N  c #6D4432",
"B  c #6A4837",
"V  c #64463A",
"C  c #6B4A3C",
"Z  c #724532",
"A  c #784736",
"S  c #754935",
"D  c #7B4B35",
"F  c #754C3B",
"G  c #7A4B39",
"H  c #645634",
"J  c #7C523C",
"K  c #616E22",
"L  c #75633B",
"P  c #684C41",
"I  c #7F5844",
"U  c #707041",
"Y  c #68715B",
"T  c #72776C",
"R  c #787776",
"E  c #874919",
"W  c #A85A1F",
"Q  c #96691E",
"!  c #8D731B",
"~  c #A9691F",
"^  c #895426",
"/  c #AF5E20",
"(  c #987E20",
")  c #B76525",
"_  c #B86423",
"`  c #D2742B",
"'  c #DA7A2D",
"]  c #C47933",
"[  c #E27E2F",
"{  c #825542",
"}  c #82685F",
"|  c #887E67",
" . c #8F7E75",
".. c #27870A",
"X. c #2F9E0E",
"o. c #14A20B",
"O. c #26A50A",
"+. c #38A50F",
"@. c #27B90E",
"#. c #36A711",
"$. c #2AB918",
"%. c #38BA15",
"&. c #3AB829",
"*. c #508E16",
"=. c #7D8319",
"-. c #50B61A",
";. c #6B8A30",
":. c #70AD26",
">. c #7BB12E",
",. c #78B836",
"<. c #3DC217",
"1. c #4DCC1C",
"2. c #56CA1F",
"3. c #46C425",
"4. c #4AC128",
"5. c #50C622",
"6. c #59CA20",
"7. c #69C92D",
"8. c #7BCC2B",
"9. c #6AD227",
"0. c #73D52B",
"q. c #7ADA2D",
"w. c #7CCF3B",
"e. c #6ED137",
"r. c #75D533",
"t. c #7CBD76",
"y. c #D98B33",
"u. c #E38536",
"i. c #E49539",
"p. c #83CA2E",
"a. c #80DD2F",
"s. c #8DCD31",
"d. c #8FD332",
"f. c #84DB32",
"g. c #8ADE33",
"h. c #8AE732",
"j. c #8AE035",
"k. c #95E536",
"l. c #96EA37",
"z. c #99E938",
"x. c #A2E93B",
"c. c #B5E73D",
"v. c #A4F13C",
"b. c #ACF53E",
"n. c #CC8D5E",
"m. c #E99344",
"M. c #F5AD5D",
"N. c #D09161",
"B. c #CCA277",
"V. c #F7B567",
"C. c #FCBB6B",
"Z. c #89D842",
"A. c #92DE47",
"S. c #93D84C",
"D. c #91C753",
"F. c #9ADB59",
"G. c #9EE05A",
"H. c #ACF540",
"J. c #B4FB42",
"K. c #83C47E",
"L. c #A3E267",
"P. c #B4E86A",
"I. c #A2A78F",
"U. c #9AC892",
"Y. c #A6D690",
"T. c #BEDE9B",
"R. c #B8C9A8",
"E. c #B6E3AF",
"W. c #D2C590",
"Q. c #C1C7B8",
"!. c #C5D5BD",
"~. c #C5E7A7",
"^. c #D1EFB2",
"/. c #CFC9CA",
"(. c #D4D9D2",
"). c #DCD8D8",
"_. c #E1DCDF",
"`. c #CDE7C2",
"'. c #DBF1C6",
"]. c #DCEFDC",
"[. c #E9F1DE",
"{. c #E3DEE2",
"}. c #E5E3E4",
"|. c #EAECE5",
" X c #ECE9EB",
".X c #F1ECEE",
"XX c #EAF2EA",
"oX c #F7F5F4",
"OX c #FEFAFE",
/* pixels */
"D D D D m 9 7 2 7 0 N e 0 7 V } F A Z N q v b 2 2 8 v S D J G Z ",
"D D D D D n 8 % < < < < , , 3 k , C B q v N S v % v S B S S G A ",
"m m m D G S m q w 0 < < 6 > k :.r a 6 V 0 N Z 9 7 v D S Z Z A A ",
"w m m m Z S S N C k & & o > I.w.&.,.i 5 v N N 2 7 N S S m w Z w ",
"b N b 0 2 B P 1 & g p.7...@ Y D.R.(.D.# 7 b Z 7 < 0 N Z Z Z Z w ",
"b Z Z 0 O > k f s.x.b.v.z.>.Y Q.R ).).H 3 v q < % 7 8 q Z A A Z ",
"q N N 0 < $ K d.b.b.v.z.J.b.D.!.T {..XD.i , 8 < 8 8 7 7 q Z Z Z ",
"v N e 7 6 1 h H.b.h.1.b.J.J.H.S.T {.oXF.i > 4 q v q 8 < 7 q q m ",
"N v 0 0 $ d d.J.J.b.l.J.J.J.b.A.!.XX|.G.:.i o M I S N q 8 7 0 b ",
"< < < 0 , f z.J.J.J.J.J.J.J.J.J.G.L.L.A.f.X.! s b D S A 7 + % 0 ",
"% < 7 N , h z.J.J.J.J.J.J.J.b.b.f.A.^.'.'.&.! s 7 Z S S v 7 7 8 ",
"8 v Z N , y 6.z.J.J.J.J.J.b.b.g.3.~.oXOXOX`.L 8 N w q Z Z b 0 8 ",
"q D ^ F e p *.j.v.J.b.J.b.b.k.0.$.].OXOXOX Xn.n G D v 9 0 q 0 8 ",
"9 Z D D e 1 t 6.j.z.k.k.z.z.0.4.K.XXOXOXOX{.n.9 0 Z q 7 7 8 b S ",
"m q w m A M # u 2.f.f.a.g.9.4.K.(.{.oXoX_. .I w 7 9 8 7 8 b S F ",
"^ 0 9 Z G N 5 r y *.%.1.-.;.t.(. X{.XXT.| P 6 N q 8 7 8 S J F N ",
"m Z Z m q 8 0 4 $   u u u >  .). X|.T.;.a z M v % 7 v D G G A b ",
"m Z Z Z w q 0 0 6 6 < 2 e x 1 /.}.~.Z.i l z v v & 7 q N N w q w ",
"q Z Z Z Z w 9 7 w N Z 9 e V k ).].S.k.h > l < < < 0 v b q q Z A ",
"q w Z q q q q 8 N A Z 0 < 6 } ).E.e.H.d.U 5 5 3 8 2 0 q q 9 w Z ",
"q q q 7 7 8 q q 7 q A A 0 V /.[.Z.@.l.k.R.J 1 k j K & $ 7 % % 7 ",
"7 7 7 + - 8 q q 0 0 q N w V (.E.7.%.h.e.R.n.s B >.x.h $ 8 8 7 9 ",
"- 7 7 7 q A w 8 q 8 7 8 7 k U.%.<.q.l.<.Y.B.N.W.P.f.f , w q w w ",
"7 7 9 q G { A 8 0 % + 7 <   %.h.b.b.0.<.9.~.`.L.r.+.t 0 Z w q w ",
"8 q b b Z S D S Z 6 1 O . X 8.b.J.v.@.9.j.j.4.5.+.r > C b 2 8 N ",
"Z A A Z N Z Z A F 3 * / W X 8.b.b.q.@.0.H.J.q.#.r > x N S 9 8 8 ",
"A G A Z b Z Z Z 0 ; _ ' ' Q +.0.h.@.6.p.c.c.6.=.~ : , V N N 0 2 ",
"Z Z Z q q q N b + * _ [ [ [ Q X.O.o.o.( y.i.y.' u._ = % b N b 9 ",
"q m Z q q q q q 7 > * _ ' [ y.~ Q c c ) M.C.V.m.' E 1 z 0 N N v ",
"8 q m m b q 9 8 0 z 4 + = _ ` ` / o @ ) V.C.C.m.E 4 V Z b b m v ",
"8 q w q q q q 7 7 q B 0 4 * ; ; - l l - ] u.^ ; k P F S b v v 8 ",
"+ 8 q q q q q 8 8 N A N N N b v v V C z - * 4 < 0 q v 8 7 % % % "
};
