/* XPM */
static char *result[] = {
/* columns rows colors chars-per-pixel */
"32 32 192 2 ",
"   c #54290F",
".  c #4A2D1B",
"X  c #522C1B",
"o  c #562E1A",
"O  c #473917",
"+  c #55311D",
"@  c #5D321D",
"#  c #643616",
"$  c #62361B",
"%  c #733D1A",
"&  c #4D3821",
"*  c #523524",
"=  c #5D3523",
"-  c #533926",
";  c #5C3825",
":  c #543B2C",
">  c #5C3A2C",
",  c #533D31",
"<  c #5A3D32",
"1  c #623623",
"2  c #643926",
"3  c #6B3B26",
"4  c #643728",
"5  c #643C29",
"6  c #6B3D2B",
"7  c #703F2E",
"8  c #643E32",
"9  c #394A0E",
"0  c #29560A",
"q  c #3E451B",
"w  c #3E491B",
"e  c #395719",
"r  c #28690D",
"t  c #2E7609",
"y  c #3D7231",
"u  c #49430D",
"i  c #4C4615",
"p  c #57461C",
"a  c #445419",
"s  c #55541A",
"d  c #5C5F19",
"f  c #75421F",
"g  c #426B12",
"h  c #486916",
"j  c #55601E",
"k  c #5A631A",
"l  c #54791D",
"z  c #67651F",
"x  c #657C1B",
"c  c #574C28",
"v  c #524234",
"b  c #5B4537",
"n  c #65402D",
"m  c #6D412E",
"M  c #7E4622",
"N  c #72432E",
"B  c #644233",
"V  c #6D4431",
"C  c #6C473A",
"Z  c #64483B",
"A  c #6D4A3B",
"S  c #724532",
"D  c #784736",
"F  c #754935",
"G  c #7A4B35",
"H  c #754C3A",
"J  c #7A4C3A",
"K  c #6A573A",
"L  c #7D513D",
"P  c #486B30",
"I  c #647A21",
"U  c #62663A",
"Y  c #504540",
"T  c #535F43",
"R  c #664F43",
"E  c #715947",
"W  c #677358",
"Q  c #74796F",
"!  c #A6581D",
"~  c #87781D",
"^  c #975727",
"/  c #8A5B31",
"(  c #A85B20",
")  c #B06F27",
"_  c #B66728",
"`  c #D4792F",
"'  c #C67837",
"]  c #806744",
"[  c #856E63",
"{  c #0A9F02",
"}  c #15930B",
"|  c #2C940D",
" . c #379A14",
".. c #16A70D",
"X. c #18B409",
"o. c #23B80D",
"O. c #23A813",
"+. c #32AC10",
"@. c #2AB516",
"#. c #39BE15",
"$. c #36B528",
"%. c #33B62D",
"&. c #548517",
"*. c #6E851F",
"=. c #44AE14",
"-. c #71962F",
";. c #49A02D",
":. c #43BF22",
">. c #76B629",
",. c #7AB939",
"<. c #3DC216",
"1. c #43C21A",
"2. c #4DC51C",
"3. c #4AC91B",
"4. c #53C71E",
"5. c #46C323",
"6. c #58CB21",
"7. c #66CB26",
"8. c #7DCB2F",
"9. c #69D227",
"0. c #78D72C",
"q. c #7ED42E",
"w. c #7DCF3A",
"e. c #61B85D",
"r. c #74CD43",
"t. c #7CC379",
"y. c #BD852A",
"u. c #CF812C",
"i. c #DB8437",
"p. c #E4883A",
"a. c #81D82F",
"s. c #84DB31",
"d. c #89DB34",
"f. c #90D433",
"g. c #80E22E",
"h. c #8BE133",
"j. c #89E632",
"k. c #95E636",
"l. c #95E836",
"z. c #9DEC39",
"x. c #9DF039",
"c. c #A7EA3D",
"v. c #A6F33C",
"b. c #ACF53E",
"n. c #BC865F",
"m. c #8F8078",
"M. c #908771",
"N. c #CD8D5C",
"B. c #E79042",
"V. c #EFAC5F",
"C. c #F3AE5F",
"Z. c #F6B567",
"A. c #89CB4D",
"S. c #8DDC45",
"D. c #92DD4A",
"F. c #92C355",
"G. c #97D855",
"H. c #ADF542",
"J. c #B0F740",
"K. c #B4FA41",
"L. c #A2E25E",
"P. c #A2DB6B",
"I. c #A1E164",
"U. c #828181",
"Y. c #A1A68E",
"T. c #C8B5A4",
"R. c #B7DE8E",
"E. c #A2C19D",
"W. c #B5D1AE",
"Q. c #C7CFBD",
"!. c #C6D1B9",
"~. c #C6E7A8",
"^. c #CCC6C6",
"/. c #CDD7C0",
"(. c #CCD1CB",
"). c #D4DCCA",
"_. c #D8D7D6",
"`. c #E1CCC2",
"'. c #E5D1C8",
"]. c #DBF1C6",
"[. c #DDF0DD",
"{. c #E3E8DA",
"}. c #E4DFE2",
"|. c #E4E0E4",
" X c #EAEDE3",
".X c #E9E8E9",
"XX c #F0ECED",
"oX c #F3F7EB",
"OX c #F2EEF2",
"+X c #F5F4F3",
"@X c #FAF6FA",
"#X c #FEFAFD",
/* pixels */
"G G G G N 3 $ 1 4 5 V 8 4 4 B A [ A 7 S 3 n n $ ; 5 m V L L J D ",
"G G G G G N 2 $ = = = = > < B + p c 8 V 6 N F n @ n V F S F D G ",
"N N N G J G N 5 6 5 1 8 R v i u >.c , B 3 n S n 2 m F F S N D D ",
"7 N N N N S S m H F + n > p e.=.w.Y.* O O p v Z Z m F F V S 7 S ",
"V V V 2 1 1 5 6 L J ; 5 c F./.W.A.W O | >.8.z O - < 7 S S S S 7 ",
"m S S 2 @ 2 m V H F C b K )._.U.Q.W ,.k.v.b.c.f.k & > 5 S D D S ",
"6 V V 2 5 V H L F H A s F..X|.Q /.G.c.J.l.x.b.b.f.k . = 6 S S S ",
"n V B 4 ; V F F F H : s G.+X.XQ A.H.J.K.b.3.j.b.J.x & > 1 6 6 m ",
"V n 5 5 2 5 6 V V X i >.L. XoX!.D.K.K.K.b.v.b.K.K.f.k ; 2 1 5 m ",
"; = = 5 2 ; 5 8 M ~  .s.S.I.I.L.J.K.K.K.K.K.K.K.K.k.x ; 2 @ @ 5 ",
"= @ 1 m 5 1 = = p y.%.].].~.d.s.b.K.K.K.K.K.K.K.K.l.I n n 1 = 1 ",
"2 m V S m 1 @ = + ] W.#X#X#X~.5.h.K.K.K.K.K.K.b.c.4.e ; N m n 2 ",
"6 G L G N m 6 @ M n.XX#X#X#X[.$.0.k.b.b.K.K.K.c.g.l w ; 6 n 6 2 ",
"3 S G F N F S = # N.{.#X#X#X+Xt.:.0.k.z.k.k.k.h.2.g + > = 2 m S ",
"N N 3 N G G F S 5 G m.{.@XOX}._.t.%.0.s.s.s.a.2.t a ; 1 n V H H ",
"G 3 % F G N m L > : v M.~.XX}..X}.F.&.=.:.#.&.g q * 5 2 N L H V ",
"N S S N 6 5 3 5 1 5 v & -.R.~..X_.[ Y 0 r r q . * ; m S H G D m ",
"N S S S N 5 3 4 1 5 B v u 8.S.{.^.* Y , X X > n * 1 m N S m 7 7 ",
"6 S S S S 7 3 1 A H > c *.q.D.{.}.[ , Y * X > > = 5 m N 6 7 S D ",
"6 m S 6 2 1 = 1 n B c x h.7.D. XXX(.P & d k & : n m m n 6 5 6 S ",
"5 3 6 1 o p z z k a g a.6.<.D.oX#X.Xe.h >.s.x & B V 6 2 1 @ 1 @ ",
"1 4 1 $   x b.b.d.4.1.g.o.q.P.oX#X@X(.r.q.s.9.j 1 m 5 2 1 3 1 1 ",
"$ 1 1 1 @ l g.j.6.3.k.l.#.r.).@X#X+X(.%.2.7.| e ; m m m N 7 7 7 ",
"1 1 4 6 5 e +.3.3.b.b.b.9.$._.XX'.`.T.;.} } 9 v B S H S S 6 7 7 ",
"4 6 V N C : 0 { 3.H.K.J.j.@.E.T.' ' ' ) K . , 4 F S F F m 1 1 F ",
"S S S S V Z : 0 @.0.x.l.6.X.+.) B.Z.Z.B._ $ 8 D S V m D S 5 1 1 ",
"G D F S m V b Y P ..X.o.<.>.) i.Z.Z.Z.C._ @ 7 E D S m S S V n ; ",
"S D S m 6 m 5 f / y O.9.9.8.) p.V.' _ ( @ > 8 D S D m 6 m S m 5 ",
"5 m S 6 6 6 B G ( / T P O.=.u.` i._ ! @ * 8 7 7 6 N m 5 5 S V m ",
"3 6 S S m 6 B :   # ^ / U y.` E R R   * = 3 7 7 4 N F S m m m n ",
"4 6 V 6 6 6 6 ; ; - @ + $ ` _ ^ . & v b 4 1 1 7 3 7 N N m n n 2 ",
"$ 1 6 6 6 6 6 2 5 V m 5 * # $ @ : n V V 1 1 1 3 6 3 2 1 2 @ @ @ "
};
