/* XPM */
static char *result[] = {
/* columns rows colors chars-per-pixel */
"32 32 186 2 ",
"   c #3A3C15",
".  c #3A3718",
"X  c #562912",
"o  c #542C1B",
"O  c #592E1D",
"+  c #45331B",
"@  c #553215",
"#  c #5D321F",
"$  c #67371B",
"%  c #733D1B",
"&  c #5C2F20",
"*  c #4C3E2C",
"=  c #5E3422",
"-  c #5F3924",
";  c #5A3829",
":  c #5B3A2C",
">  c #543F32",
",  c #593F35",
"<  c #623623",
"1  c #683726",
"2  c #643926",
"3  c #6A3B26",
"4  c #653C29",
"5  c #6A3D2B",
"6  c #703F2E",
"7  c #613E31",
"8  c #1F5A04",
"9  c #294809",
"0  c #38450D",
"q  c #2D5606",
"w  c #394616",
"e  c #157703",
"r  c #4A4817",
"t  c #53451C",
"y  c #54521A",
"u  c #5A531F",
"i  c #74401E",
"p  c #484329",
"a  c #584A24",
"s  c #5B4236",
"d  c #534339",
"f  c #5B473A",
"g  c #5D463C",
"h  c #6E4327",
"j  c #66402C",
"k  c #6D412E",
"l  c #71432E",
"z  c #7A4B28",
"x  c #615920",
"c  c #664132",
"v  c #6D4332",
"b  c #65463B",
"n  c #6D493A",
"m  c #68483C",
"M  c #724532",
"N  c #784736",
"B  c #764936",
"V  c #7A4B35",
"C  c #744B3A",
"Z  c #7A4C3A",
"A  c #7D523E",
"S  c #496A33",
"D  c #5C5F58",
"F  c #624B42",
"G  c #6A4C42",
"H  c #6C5345",
"J  c #645846",
"K  c #6D5349",
"L  c #735245",
"P  c #73564C",
"I  c #78584C",
"U  c #755B52",
"Y  c #7D5E53",
"T  c #5E6A4E",
"R  c #5E6158",
"E  c #7C6056",
"W  c #7C625A",
"Q  c #637252",
"!  c #6A6867",
"~  c #7B6A65",
"^  c #717970",
"/  c #AE5F1F",
"(  c #8F6215",
")  c #946515",
"_  c #AD6826",
"`  c #B26F38",
"'  c #C97229",
"]  c #825542",
"[  c #815E54",
"{  c #836559",
"}  c #83685F",
"|  c #BD7C45",
" . c #846B62",
".. c #83726C",
"X. c #8A7770",
"o. c #1B8919",
"O. c #1A9619",
"+. c #278109",
"@. c #339811",
"#. c #01AA01",
"$. c #08A803",
"%. c #14AC06",
"&. c #24A30A",
"*. c #25AD0A",
"=. c #36A619",
"-. c #2AB01A",
";. c #34B111",
":. c #2EB32D",
">. c #33BA2B",
",. c #3AA834",
"<. c #3BB738",
"1. c #41BB16",
"2. c #53843C",
"3. c #40BD2D",
"4. c #41B33C",
"5. c #7EAD3A",
"6. c #47C518",
"7. c #4CC419",
"8. c #4ECA1A",
"9. c #58C91D",
"0. c #44C12F",
"q. c #68D124",
"w. c #73D728",
"e. c #6ECB3C",
"r. c #7BD830",
"t. c #7A8449",
"y. c #4EB74E",
"u. c #DA8436",
"i. c #85C62B",
"p. c #83DA2D",
"a. c #8EDF33",
"s. c #87D938",
"d. c #8BE02F",
"f. c #8DE233",
"g. c #94E436",
"h. c #96EB34",
"j. c #9EEC37",
"k. c #95E439",
"l. c #9DF037",
"z. c #A9EE3A",
"x. c #A3F239",
"c. c #AAF33C",
"v. c #B4F93F",
"b. c #89B74B",
"n. c #8FBC53",
"m. c #90827E",
"M. c #E49446",
"N. c #F3AC5B",
"B. c #F4B365",
"V. c #F4B96C",
"C. c #88C541",
"Z. c #84D04F",
"A. c #96D849",
"S. c #97C75C",
"D. c #8ED352",
"F. c #9DDE51",
"G. c #A0DB41",
"H. c #B6FB40",
"J. c #FEC272",
"K. c #838182",
"L. c #9E9193",
"P. c #A4B69C",
"I. c #B1A7A7",
"U. c #B9AFB0",
"Y. c #CBBCB5",
"T. c #A5D98B",
"R. c #BDCEAA",
"E. c #B3D1B1",
"W. c #C1D2AC",
"Q. c #C3DBA8",
"!. c #C9D1B6",
"~. c #D5ECBA",
"^. c #C9C5C7",
"/. c #D1CDCF",
"(. c #CAD7C6",
"). c #D2D0CE",
"_. c #D6D6D5",
"`. c #DCDED3",
"'. c #D8D7D8",
"]. c #DAEDC3",
"[. c #D9E8D9",
"{. c #E2E2D9",
"}. c #E7E6E6",
"|. c #F1F3F1",
" X c #FAF6FA",
".X c #FDF9FD",
/* pixels */
"V V V V z 3 2 < < 7 6 n G : - m [ M 5 n L c k - - 4 j M A A V B ",
"V V V V M l 1 # = = ; m ~ > t g K.m t >  .I M j # j M M B B N B ",
"l l M V Z B l 3 5 4 7 b > t 5.r d t 5.y d L C 4 - k C B M 6 B N ",
"l h l l l M M k Z N [  .a S.W.b.r b.W.S.t W E - < k B B M M 6 M ",
"k M k 4 < < 4 4 A Z C F F `.}.[.! `.}.{.H s n 4 = 4 v v M M M 6 ",
"k M v 2 = 2 k M C Z n G I.L.m._.^ '.K.L.U.F 7 - # 2 2 5 M B B M ",
"j v v 4 - v C A B { } P ^.! ! (.4.(.^ D /.K Y W 4 2 < < 5 M M M ",
"j v c - 4 v B B { ..f H /.R T A.r.A.Q D /.H > ..Y j < < < 5 5 6 ",
"v j 4 4 4 4 5 v n F r b.R.C.A.c.G.H.G.i.W.n.r f I B v 5 2 < 4 k ",
"- = = 4 4 = 4 v 4 w @.s.F.c.v.v.H.H.H.c.F.s.=.w k V N M 2 O # 4 ",
"# = - c 4 < # 5 < J T.f.c.H.x.8.l.8.x.v.c.f.T.J = M N V k < = 2 ",
"2 k M M k 2 # = = Y ].k.H.H.c.w.l.w.c.v.v.g.~. .4 5 k v v k 4 2 ",
"5 V Z V v k 5 # & U ].k.H.H.H.x.v.x.H.H.H.g.~. .M N k 2 4 k j < ",
"3 M V B M V M 5 & W ].k.H.H.H.H.H.H.H.H.H.g.]. .4 M 5 < # 4 v M ",
"l h 6 z V B B B ; P !.f.j.H.H.H.H.H.H.v.j.a.Q.W & 1 2 2 4 k C C ",
"V 3 $ V V l l Z ; > t.s.a.j.H.H.H.H.v.j.a.p.t.K < 1 $ 2 v A A h ",
"l M M M 5 3 2 3 L F w q.p.d.l.j.j.j.j.d.p.9.r F b - k M C Z M M ",
"k M M M k 5 2 2 L W + e 6.9.p.r.p.d.r.8.7.+.w P K 4 k v l k 6 6 ",
"k M M M M k 4 1 6 U U . e $.3.8.8.8.8.%.e   F b - 4 k k 5 5 l N ",
"5 k M 5 5 h 5 2 M [ ^ p q o.o.$.#.$.o.e . J ~ P j k k j 5 3 6 M ",
"3 5 3 < < 1 3 5 n L * 8 O.^ t.y.<.y.2.w p K.{ h v v 5 2 < $ & < ",
"< 2 1 O < 2 5 5 P U   $.:.(.'.'._.!.e.;.w W { L v k 4 2 2 2 1 1 ",
"$ < < < 5 M M 2 5 p q -.y.|..X.X|.[.>.q.y p C A 4 k 5 v v k 5 6 ",
"< < 1 5 N ] B < - 9 *.D.). X.X X}.E.0.f.1.w j M k M B B M 5 5 6 ",
"< 5 v l M B N B 5 w &.Z.(. X.X|.E.<.w.c.a.y 4 5 C M M B k < 2 M ",
"M M M M k M B B I >   ,.E.}. X[.-.w.c.v.z.x 6 N M l M B M 4 2 2 ",
"N C B M 5 M M M }  .+ S y.!.}._.>.q.h.j.i.u 6 Z B M l M M M 4 = ",
"M B M k 5 k k k 5 , @ _ / | Y.^.P.=.*.&.0 f n 6 B M k 5 j M k 4 ",
"5 k M 5 5 k 5 5 & i u.B.N.u.` J ; ( ) ( @  .Y 6 5 l k 4 j k M j ",
"2 5 M v k 5 2 1 O z V.J.V.N.' o d o X X : n N 5 1 l B l k v k j ",
"2 5 k h 5 5 5 1 & % M.V.B.u./ = X.n - = & < 1 6 5 6 l l k j j 4 ",
"O 1 5 5 5 5 3 2 5 : $ h h 3 $ s L n v 5 1 & 1 1 5 1 2 2 < # # # "
};
