/* XPM */
static char *result[] = {
/* columns rows colors chars-per-pixel */
"32 32 171 2 ",
"   c #36380B",
".  c #3C3B11",
"X  c #3E3816",
"o  c #58370C",
"O  c #452E15",
"+  c #4A2914",
"@  c #4B2D1A",
"#  c #552E17",
"$  c #552D1A",
"%  c #5A2F1D",
"&  c #4D351C",
"*  c #433E1A",
"=  c #5F3415",
"-  c #54331C",
";  c #5C321E",
":  c #69380F",
">  c #633514",
",  c #61361A",
"<  c #673919",
"1  c #6D3E1B",
"2  c #763F12",
"3  c #533622",
"4  c #5E3522",
"5  c #5C3925",
"6  c #5C3B2C",
"7  c #593F32",
"8  c #623623",
"9  c #683726",
"0  c #643926",
"q  c #6A3B26",
"w  c #653C29",
"e  c #6A3D2B",
"r  c #703F2E",
"t  c #2D4607",
"y  c #3C4B0C",
"u  c #245C03",
"i  c #39560F",
"p  c #3D4816",
"a  c #3D5318",
"s  c #157601",
"d  c #2D6F08",
"f  c #3D610D",
"g  c #247806",
"h  c #3E730E",
"j  c #49450D",
"k  c #4A480B",
"l  c #45510D",
"z  c #484715",
"x  c #45441D",
"c  c #504616",
"v  c #544B1E",
"b  c #455615",
"n  c #4C5714",
"m  c #555818",
"M  c #546219",
"N  c #4D7012",
"B  c #7D7B17",
"V  c #55462B",
"C  c #5A4435",
"Z  c #66402D",
"A  c #6D412E",
"S  c #71432E",
"D  c #634231",
"F  c #6D4432",
"G  c #65473B",
"H  c #724532",
"J  c #784736",
"K  c #754935",
"L  c #7A4B35",
"P  c #704739",
"I  c #744C3A",
"U  c #7A4C39",
"Y  c #7D523E",
"T  c #5C7A28",
"R  c #68792D",
"E  c #A2571D",
"W  c #AB5D1E",
"Q  c #9F661D",
"!  c #804F3E",
"~  c #B96422",
"^  c #BF6824",
"/  c #B87E30",
"(  c #C36E2C",
")  c #C6712F",
"_  c #CD722A",
"`  c #D7782C",
"'  c #DC7B2E",
"]  c #C3763B",
"[  c #815441",
"{  c #0A9B02",
"}  c #2E8808",
"|  c #3E820F",
" . c #269F0C",
".. c #319F0F",
"X. c #379D10",
"o. c #09A905",
"O. c #18AD0A",
"+. c #2BA30E",
"@. c #27B20E",
"#. c #39AB11",
"$. c #2AB518",
"%. c #34BB12",
"&. c #3BBA15",
"*. c #3EB92D",
"=. c #45BD18",
"-. c #6CA51B",
";. c #74B327",
":. c #77B929",
">. c #6FB732",
",. c #44C219",
"<. c #4DC41C",
"1. c #53C121",
"2. c #6CCE27",
"3. c #6DCF28",
"4. c #7AC42B",
"5. c #79C92B",
"6. c #6FD229",
"7. c #74D52B",
"8. c #7CD42D",
"9. c #7DD82E",
"0. c #57BF53",
"q. c #62BE55",
"w. c #77BC63",
"e. c #A18521",
"r. c #B8832D",
"t. c #BB8038",
"y. c #8BBC2C",
"u. c #8BB53D",
"i. c #DE8033",
"p. c #E48232",
"a. c #81D52F",
"s. c #81D92F",
"d. c #9EC331",
"f. c #8DD533",
"g. c #84DB31",
"h. c #8ADB37",
"j. c #92D436",
"k. c #90D837",
"l. c #8EE234",
"z. c #A6E93B",
"x. c #ABF53E",
"c. c #E59659",
"v. c #D4A946",
"b. c #EEAB5C",
"n. c #C39565",
"m. c #EA9D62",
"M. c #CDB378",
"N. c #EDA065",
"B. c #9FCB4B",
"V. c #8DDB4C",
"C. c #9CDF5B",
"Z. c #BBD04E",
"A. c #A0E555",
"S. c #A5DF64",
"D. c #ACD072",
"F. c #B6F360",
"G. c #CBCD57",
"H. c #E1C762",
"J. c #C3F770",
"K. c #CDBB9A",
"L. c #D6B898",
"P. c #D9BCA5",
"I. c #B2DA9B",
"U. c #CBC6A2",
"Y. c #DCCBB2",
"T. c #C7DBB6",
"R. c #DDDAB3",
"E. c #E8D3BF",
"W. c #DCDAC3",
"Q. c #E3DDC8",
"!. c #C8E5C2",
/* pixels */
"L L L L S 1 8 8 8 e r w 6 G 6 P P D D H e Z A 5 5 w H H U Y U H ",
"L L L L L S 0 , 4 4 7 7 O V @ 7 C v 3 D A F F Z ; Z F F K K L K ",
"S S S L U K H q e w 5 & m ;.j O c ;.m & w H P w 0 A K K H S J J ",
"S A S S H H H A U P 7 m 4.g.;.j :.s.4.c V H H 8 0 A K K H r H H ",
"A H H 0 8 8 w e Y F 3 n a.s.4.k 5.s.8.l O F H 5 8 w F F H H H r ",
"A H F 0 ; 0 A H I D p +.s.s.4.l 5.g.8.+.. 6 A ; ; 8 0 e H J J H ",
"e F F w 8 F I Y Z & t @.s.g.7.+.8.g.s.@.t O 8 8 8 8 8 8 e H H H ",
"Z F D 5 w F I P w a +.6.g.g.g.8.s.s.s.7. .  6 D A A 0 4 8 q A A ",
"F w w w w w w G C n 2.s.g.g.g.g.g.g.g.g.2.l @ I [ P A e 0 8 0 A ",
"5 4 5 w w 8 w w a X.s.g.g.g.k.G.h.g.g.g.9.... 6 K K U H 0 % ; e ",
"; ; 8 e e 4 4 4 M 2.s.g.g.g.j.H.k.g.g.g.g.3.m % q H K K Z 0 4 0 ",
"w A H P e 5 ; $ M g.g.g.g.g.j.v.j.g.g.g.a.s.m 4 H S A H S A Z 8 ",
"q K Y L S A w # i <.g.g.g.g.g.d.f.g.g.g.g.=.b 0 ! K A 0 w Z e 8 ",
"q L L K S K H Z * | g.g.g.g.k.Z.g.g.g.g.9.h * 8 J H q 8 8 0 A H ",
"S S q S S S L H 3 y <.9.g.g.j.v.j.g.g.9.=.z 6 e 9 9 w 0 w F U I ",
"L q 1 L ! S S Y 5 * g &.<.7.=.-.a.s.,.&.d * D H q 9 , 0 H Y U F ",
"S S H S q w w w 8 7 . s O.1.:.>.,.&.o.s   5 w w ; 5 A K U K J S ",
"S H H H F e q 9 8 C C p s +.v.u.O.o.s   3 D F Z ; 8 Z H S A r r ",
"e H H H H e q 0 F F C V T w.M.q.o.{   + C 6 8 5 4 w A A e e S J ",
"e A H S e e e q F D V R D.P.P.U.0.o.u X 6 w 4 4 Z A A Z q 9 r H ",
"q e q 8 8 0 q D V 3 R D.L.) ( ] K.0.$.u + e F Z H A e 0 0 8 ; 8 ",
"8 0 8 4 ; w e w x N S.Y.) ' ' ' / W.V.&.p D I [ F A e 0 0 0 8 9 ",
"4 9 8 8 e H F 4 f <.J.E./ m.N.c.] Q.A.a.i & F Y w Z A A H A r r ",
"8 0 0 q U [ J $ M 7.F.R.n.T.!.T.n.R.F.g.@.p D H A H I H H e q r ",
"0 q A A H K I e b #.7.C.I.$.@.*.U.B.z.7.@.p w q I K H I A 8 0 H ",
"H H J H S H H w < B #.7.V.g.7.d.t.r.y.@.{ p e U K A H J H w 8 0 ",
"J I K H e H H w < W B %.l.x.z.r.N.b./ } t 3 F U H H H H H H w 5 ",
"H J H e e A A w + 2 e.%.x.x.z.^ i.p.' o O 7 P H H H S q A H A w ",
"q F H e e A e F 5 = B %.z.5.#.Q ^ ^ ` : @ w H r q S S w w F H Z ",
"0 e H H A e q w 4 + y +.;.j   o Q ~ ' _ = 9 r r 9 S K H A A A Z ",
"0 q r e e e w 0 w 6 & z V - 6 $ E W ~ _ > % 9 r q e S S A A Z 0 ",
"8 0 e e e e q 0 e P F Z Z A F 5 = , , < # % 9 9 r 9 8 0 0 ; ; ; "
};
